NotoSerifTamil-SemiCondensedBlack.ufo
<glyph name="exclam" format="2">
  <advance width="392.7"/>
  <unicode hex="0021"/>
  <outline>
    <contour>
      <point x="167.0" y="243.23333333333335" type="line"/>
      <point x="226.33333333333334" y="243.23333333333335" type="line"/>
      <point x="298.56666666666666" y="714.0" type="line"/>
      <point x="94.76666666666667" y="714.0" type="line"/>
    </contour>
    <contour>
      <point x="198.16666666666669" y="-8.633333333333333" type="curve" smooth="yes"/>
      <point x="246.23333333333335" y="-8.633333333333333"/>
      <point x="288.3" y="12.633333333333335"/>
      <point x="288.3" y="77.8" type="curve" smooth="yes"/>
      <point x="288.3" y="143.6"/>
      <point x="246.23333333333335" y="164.23333333333332"/>
      <point x="198.16666666666669" y="164.23333333333332" type="curve" smooth="yes"/>
      <point x="147.46666666666667" y="164.23333333333332"/>
      <point x="108.03333333333333" y="143.6"/>
      <point x="108.03333333333333" y="77.8" type="curve" smooth="yes"/>
      <point x="108.03333333333333" y="12.633333333333335"/>
      <point x="147.46666666666667" y="-8.633333333333333"/>
    </contour>
  </outline>
</glyph>
<glyph name="quotedbl" format="2">
  <advance width="546.8"/>
  <unicode hex="0022"/>
  <outline>
    <contour>
      <point x="363.90000000000003" y="416.96666666666664" type="line"/>
      <point x="439.7666666666667" y="416.96666666666664" type="line"/>
      <point x="476.56666666666666" y="714.0" type="line"/>
      <point x="294.93333333333334" y="714.0" type="line"/>
    </contour>
    <contour>
      <point x="122.3" y="416.96666666666664" type="line"/>
      <point x="198.16666666666669" y="416.96666666666664" type="line"/>
      <point x="250.86666666666667" y="714.0" type="line"/>
      <point x="69.6" y="714.0" type="line"/>
    </contour>
  </outline>
</glyph>
<glyph name="numbersign" format="2">
  <advance width="524.9"/>
  <unicode hex="0023"/>
  <outline>
    <contour>
      <point x="74.80000000000001" y="0.0" type="line"/>
      <point x="153.8" y="0.0" type="line"/>
      <point x="191.79999999999998" y="198.0" type="line"/>
      <point x="272.4666666666667" y="198.0" type="line"/>
      <point x="236.46666666666667" y="0.0" type="line"/>
      <point x="315.4666666666667" y="0.0" type="line"/>
      <point x="351.4666666666667" y="198.0" type="line"/>
      <point x="469.1333333333333" y="198.0" type="line"/>
      <point x="469.1333333333333" y="274.0" type="line"/>
      <point x="367.4666666666667" y="274.0" type="line"/>
      <point x="399.4666666666667" y="444.0" type="line"/>
      <point x="501.1333333333333" y="444.0" type="line"/>
      <point x="501.1333333333333" y="522.0" type="line"/>
      <point x="413.4666666666667" y="522.0" type="line"/>
      <point x="450.4666666666667" y="714.0" type="line"/>
      <point x="371.46666666666664" y="714.0" type="line"/>
      <point x="334.46666666666664" y="522.0" type="line"/>
      <point x="253.8" y="522.0" type="line"/>
      <point x="288.79999999999995" y="714.0" type="line"/>
      <point x="208.79999999999998" y="714.0" type="line"/>
      <point x="174.8" y="522.0" type="line"/>
      <point x="56.13333333333333" y="522.0" type="line"/>
      <point x="56.13333333333333" y="444.0" type="line"/>
      <point x="159.8" y="444.0" type="line"/>
      <point x="126.80000000000001" y="274.0" type="line"/>
      <point x="24.133333333333333" y="274.0" type="line"/>
      <point x="24.133333333333333" y="198.0" type="line"/>
      <point x="112.8" y="198.0" type="line"/>
    </contour>
    <contour>
      <point x="205.8" y="274.0" type="line"/>
      <point x="239.8" y="444.0" type="line"/>
      <point x="321.46666666666664" y="444.0" type="line"/>
      <point x="288.46666666666664" y="274.0" type="line"/>
    </contour>
  </outline>
</glyph>
<glyph name="percent" format="2">
  <advance width="857.2666666666667"/>
  <unicode hex="0025"/>
  <outline>
    <contour>
      <point x="229.33333333333334" y="0.0" type="line"/>
      <point x="310.8333333333333" y="0.0" type="line"/>
      <point x="625.3" y="714.0" type="line"/>
      <point x="544.4333333333333" y="714.0" type="line"/>
    </contour>
    <contour>
      <point x="204.43333333333334" y="280.0" type="curve" smooth="yes"/>
      <point x="326.09999999999997" y="280.0"/>
      <point x="385.06666666666666" y="369.0"/>
      <point x="385.06666666666666" y="503.0" type="curve"/>
      <point x="385.06666666666666" y="637.0"/>
      <point x="326.09999999999997" y="724.0"/>
      <point x="205.43333333333334" y="724.0" type="curve" smooth="yes"/>
      <point x="76.86666666666667" y="724.0"/>
      <point x="24.166666666666668" y="637.0"/>
      <point x="24.166666666666668" y="503.0" type="curve" smooth="yes"/>
      <point x="24.166666666666668" y="369.0"/>
      <point x="76.86666666666667" y="280.0"/>
    </contour>
    <contour>
      <point x="204.8" y="335.1666666666667" type="curve" smooth="yes"/>
      <point x="162.36666666666667" y="335.1666666666667"/>
      <point x="146.46666666666667" y="396.53333333333336"/>
      <point x="146.46666666666667" y="503.0" type="curve"/>
      <point x="146.46666666666667" y="607.4666666666667"/>
      <point x="162.36666666666667" y="667.8333333333334"/>
      <point x="205.43333333333334" y="667.8333333333334" type="curve" smooth="yes"/>
      <point x="247.86666666666667" y="667.8333333333334"/>
      <point x="261.76666666666665" y="607.4666666666667"/>
      <point x="261.76666666666665" y="503.0" type="curve" smooth="yes"/>
      <point x="261.76666666666665" y="396.53333333333336"/>
      <point x="247.86666666666667" y="335.1666666666667"/>
    </contour>
    <contour>
      <point x="653.4666666666667" y="-10.0" type="curve" smooth="yes"/>
      <point x="774.7666666666667" y="-10.0"/>
      <point x="833.7333333333333" y="79.0"/>
      <point x="833.7333333333333" y="213.0" type="curve" smooth="yes"/>
      <point x="833.7333333333333" y="347.0"/>
      <point x="774.7666666666667" y="434.0"/>
      <point x="654.4666666666667" y="434.0" type="curve" smooth="yes"/>
      <point x="525.9" y="434.0"/>
      <point x="473.2" y="347.0"/>
      <point x="473.2" y="213.0" type="curve" smooth="yes"/>
      <point x="473.2" y="79.0"/>
      <point x="525.9" y="-10.0"/>
    </contour>
    <contour>
      <point x="653.4666666666667" y="45.166666666666664" type="curve" smooth="yes"/>
      <point x="611.4" y="45.166666666666664"/>
      <point x="595.5" y="106.53333333333333"/>
      <point x="595.5" y="213.0" type="curve" smooth="yes"/>
      <point x="595.5" y="317.46666666666664"/>
      <point x="611.4" y="377.8333333333333"/>
      <point x="654.4666666666667" y="377.8333333333333" type="curve" smooth="yes"/>
      <point x="696.5333333333333" y="377.8333333333333"/>
      <point x="710.8" y="317.46666666666664"/>
      <point x="710.8" y="213.0" type="curve" smooth="yes"/>
      <point x="710.8" y="106.53333333333333"/>
      <point x="696.5333333333333" y="45.166666666666664"/>
    </contour>
  </outline>
</glyph>
<glyph name="quotesingle" format="2">
  <advance width="321.46666666666664"/>
  <unicode hex="0027"/>
  <outline>
    <contour>
      <point x="122.3" y="416.96666666666664" type="line"/>
      <point x="198.16666666666669" y="416.96666666666664" type="line"/>
      <point x="250.86666666666667" y="714.0" type="line"/>
      <point x="69.6" y="714.0" type="line"/>
    </contour>
  </outline>
</glyph>
<glyph name="parenleft" format="2">
  <advance width="413.2333333333333"/>
  <unicode hex="0028"/>
  <outline>
    <contour>
      <point x="383.43333333333334" y="-145.16666666666666" type="curve"/>
      <point x="383.43333333333334" y="-71.1" type="line"/>
      <point x="275.4" y="9.9"/>
      <point x="244.23333333333335" y="159.63333333333333"/>
      <point x="244.23333333333335" y="318.6333333333333" type="curve" smooth="yes"/>
      <point x="244.23333333333335" y="476.0"/>
      <point x="275.4" y="623.7333333333333"/>
      <point x="383.43333333333334" y="706.1" type="curve"/>
      <point x="383.43333333333334" y="778.8" type="line"/>
      <point x="146.46666666666667" y="680.7333333333333"/>
      <point x="53.333333333333336" y="519.0333333333333"/>
      <point x="53.333333333333336" y="318.6333333333333" type="curve" smooth="yes"/>
      <point x="53.333333333333336" y="116.60000000000001"/>
      <point x="146.46666666666667" y="-46.733333333333334"/>
    </contour>
  </outline>
</glyph>
<glyph name="parenright" format="2">
  <advance width="413.2333333333333"/>
  <unicode hex="0029"/>
  <outline>
    <contour>
      <point x="29.8" y="-145.16666666666666" type="line"/>
      <point x="266.76666666666665" y="-46.733333333333334"/>
      <point x="359.90000000000003" y="116.60000000000001"/>
      <point x="359.90000000000003" y="318.6333333333333" type="curve" smooth="yes"/>
      <point x="359.90000000000003" y="519.0333333333333"/>
      <point x="266.76666666666665" y="680.7333333333333"/>
      <point x="29.8" y="778.8" type="curve"/>
      <point x="29.8" y="706.1" type="line"/>
      <point x="136.83333333333334" y="623.7333333333333"/>
      <point x="169.0" y="476.0"/>
      <point x="169.0" y="318.6333333333333" type="curve" smooth="yes"/>
      <point x="169.0" y="159.63333333333333"/>
      <point x="136.83333333333334" y="9.9"/>
      <point x="29.8" y="-71.1" type="curve"/>
    </contour>
  </outline>
</glyph>
<glyph name="asterisk" format="2">
  <advance width="472.20000000000005"/>
  <unicode hex="002A"/>
  <outline>
    <contour>
      <point x="179.26666666666668" y="360.4666666666667" type="line"/>
      <point x="299.56666666666666" y="360.4666666666667" type="line"/>
      <point x="261.76666666666665" y="525.4666666666667" type="line"/>
      <point x="398.9666666666667" y="415.29999999999995" type="line"/>
      <point x="448.66666666666663" y="525.9" type="line"/>
      <point x="310.8333333333333" y="560.7333333333333" type="line"/>
      <point x="448.66666666666663" y="594.5666666666667" type="line"/>
      <point x="398.9666666666667" y="706.1666666666666" type="line"/>
      <point x="261.76666666666665" y="596.6333333333334" type="line"/>
      <point x="301.2" y="760.0" type="line"/>
      <point x="179.26666666666668" y="760.0" type="line"/>
      <point x="215.06666666666666" y="594.0" type="line"/>
      <point x="77.86666666666667" y="708.1666666666666" type="line"/>
      <point x="29.166666666666664" y="595.5666666666667" type="line"/>
      <point x="167.0" y="560.7333333333333" type="line"/>
      <point x="29.166666666666664" y="524.9" type="line"/>
      <point x="77.86666666666667" y="414.29999999999995" type="line"/>
      <point x="214.06666666666666" y="527.4666666666667" type="line"/>
    </contour>
  </outline>
</glyph>
<glyph name="plus" format="2">
  <advance width="509.8666666666667"/>
  <unicode hex="002B"/>
  <outline>
    <contour>
      <point x="215.16666666666666" y="143.0" type="line"/>
      <point x="294.06666666666666" y="143.0" type="line"/>
      <point x="294.06666666666666" y="319.1" type="line"/>
      <point x="456.23333333333335" y="319.1" type="line"/>
      <point x="456.23333333333335" y="395.9" type="line"/>
      <point x="294.06666666666666" y="395.9" type="line"/>
      <point x="294.06666666666666" y="572.0" type="line"/>
      <point x="215.16666666666666" y="572.0" type="line"/>
      <point x="215.16666666666666" y="395.9" type="line"/>
      <point x="53.63333333333334" y="395.9" type="line"/>
      <point x="53.63333333333334" y="319.1" type="line"/>
      <point x="215.16666666666666" y="319.1" type="line"/>
    </contour>
  </outline>
</glyph>
<glyph name="comma" format="2">
  <advance width="306.56666666666666"/>
  <unicode hex="002C"/>
  <outline>
    <contour>
      <point x="52.7" y="-154.0" type="line"/>
      <point x="182.26666666666665" y="-119.36666666666666"/>
      <point x="230.96666666666667" y="-43.733333333333334"/>
      <point x="230.96666666666667" y="40.53333333333333" type="curve" smooth="yes"/>
      <point x="230.96666666666667" y="115.7"/>
      <point x="202.8" y="164.23333333333332"/>
      <point x="140.20000000000002" y="164.23333333333332" type="curve" smooth="yes"/>
      <point x="98.4" y="164.23333333333332"/>
      <point x="61.96666666666667" y="138.6"/>
      <point x="61.96666666666667" y="90.43333333333334" type="curve" smooth="yes"/>
      <point x="61.96666666666667" y="0.09999999999999998"/>
      <point x="130.56666666666666" y="11.0"/>
      <point x="130.56666666666666" y="-25.0" type="curve" smooth="yes"/>
      <point x="130.56666666666666" y="-61.0"/>
      <point x="102.4" y="-76.2"/>
      <point x="52.7" y="-96.83333333333333" type="curve"/>
    </contour>
  </outline>
</glyph>
<glyph name="hyphen" format="2">
  <advance width="291.3"/>
  <unicode hex="002D"/>
  <outline>
    <contour>
      <point x="23.533333333333335" y="211.56666666666666" type="line"/>
      <point x="267.76666666666665" y="211.56666666666666" type="line"/>
      <point x="267.76666666666665" y="333.43333333333334" type="line"/>
      <point x="23.533333333333335" y="333.43333333333334" type="line"/>
    </contour>
  </outline>
</glyph>
<glyph name="period" format="2">
  <advance width="306.56666666666666"/>
  <unicode hex="002E"/>
  <outline>
    <contour>
      <point x="153.10000000000002" y="-8.633333333333333" type="curve" smooth="yes"/>
      <point x="201.16666666666669" y="-8.633333333333333"/>
      <point x="243.6" y="12.633333333333335"/>
      <point x="243.6" y="77.8" type="curve" smooth="yes"/>
      <point x="243.6" y="143.6"/>
      <point x="201.16666666666669" y="164.23333333333332"/>
      <point x="153.10000000000002" y="164.23333333333332" type="curve" smooth="yes"/>
      <point x="102.4" y="164.23333333333332"/>
      <point x="62.96666666666667" y="143.6"/>
      <point x="62.96666666666667" y="77.8" type="curve" smooth="yes"/>
      <point x="62.96666666666667" y="12.633333333333335"/>
      <point x="102.4" y="-8.633333333333333"/>
    </contour>
  </outline>
</glyph>
<glyph name="slash" format="2">
  <advance width="270.4"/>
  <unicode hex="002F"/>
  <outline>
    <contour>
      <point x="0.0" y="-121.0" type="line"/>
      <point x="77.23333333333333" y="-121.0" type="line"/>
      <point x="270.4" y="760.0" type="line"/>
      <point x="196.16666666666666" y="760.0" type="line"/>
    </contour>
  </outline>
</glyph>
<glyph name="zero" format="2">
  <advance width="524.9"/>
  <unicode hex="0030"/>
  <outline>
    <contour>
      <point x="262.76666666666665" y="-10.0" type="curve" smooth="yes"/>
      <point x="438.4" y="-10.0"/>
      <point x="500.3666666666667" y="135.9"/>
      <point x="500.3666666666667" y="358.0" type="curve" smooth="yes"/>
      <point x="500.3666666666667" y="581.4666666666667"/>
      <point x="438.4" y="724.0"/>
      <point x="263.76666666666665" y="724.0" type="curve" smooth="yes"/>
      <point x="78.86666666666666" y="724.0"/>
      <point x="24.166666666666668" y="580.7333333333332"/>
      <point x="24.166666666666668" y="359.0" type="curve" smooth="yes"/>
      <point x="24.166666666666668" y="135.53333333333333"/>
      <point x="78.86666666666667" y="-10.0"/>
    </contour>
    <contour>
      <point x="262.76666666666665" y="60.8" type="curve" smooth="yes"/>
      <point x="208.43333333333334" y="60.8"/>
      <point x="204.8" y="170.53333333333333"/>
      <point x="204.8" y="358.0" type="curve" smooth="yes"/>
      <point x="204.8" y="545.4666666666667"/>
      <point x="208.43333333333334" y="653.2"/>
      <point x="263.76666666666665" y="653.2" type="curve" smooth="yes"/>
      <point x="316.1" y="653.2"/>
      <point x="319.09999999999997" y="545.4666666666667"/>
      <point x="319.09999999999997" y="358.0" type="curve" smooth="yes"/>
      <point x="319.09999999999997" y="170.53333333333333"/>
      <point x="316.1" y="60.8"/>
    </contour>
  </outline>
</glyph>
<glyph name="one" format="2">
  <advance width="524.9"/>
  <unicode hex="0031"/>
  <outline>
    <contour>
      <point x="72.23333333333333" y="0.0" type="line"/>
      <point x="492.1" y="0.0" type="line"/>
      <point x="492.1" y="59.166666666666664" type="line"/>
      <point x="425.1666666666667" y="59.166666666666664" type="line" smooth="yes"/>
      <point x="388.73333333333335" y="59.166666666666664"/>
      <point x="376.8" y="88.86666666666667"/>
      <point x="376.8" y="120.26666666666668" type="curve" smooth="yes"/>
      <point x="376.8" y="718.0" type="line"/>
      <point x="238.23333333333335" y="718.0" type="line"/>
      <point x="172.63333333333335" y="667.4666666666667" type="line" smooth="yes"/>
      <point x="109.93333333333334" y="619.2"/>
      <point x="59.96666666666667" y="601.5666666666667"/>
      <point x="22.533333333333335" y="591.5666666666667" type="curve"/>
      <point x="22.533333333333335" y="538.7666666666667"/>
      <point x="50.33333333333333" y="506.23333333333335"/>
      <point x="82.5" y="506.23333333333335" type="curve" smooth="yes"/>
      <point x="120.3" y="506.23333333333335"/>
      <point x="156.83333333333334" y="544.2"/>
      <point x="203.8" y="604.7333333333333" type="curve"/>
      <point x="203.8" y="120.26666666666668" type="line" smooth="yes"/>
      <point x="203.8" y="76.96666666666667"/>
      <point x="185.86666666666667" y="59.166666666666664"/>
      <point x="156.06666666666666" y="59.166666666666664" type="curve" smooth="yes"/>
      <point x="72.23333333333333" y="59.166666666666664" type="line"/>
    </contour>
  </outline>
</glyph>
<glyph name="two" format="2">
  <advance width="524.9"/>
  <unicode hex="0032"/>
  <outline>
    <contour>
      <point x="25.166666666666668" y="0.0" type="line"/>
      <point x="495.73333333333335" y="0.0" type="line"/>
      <point x="500.3666666666667" y="230.76666666666668" type="line"/>
      <point x="432.76666666666665" y="230.76666666666668" type="line"/>
      <point x="422.5" y="192.6" type="line" smooth="yes"/>
      <point x="409.8666666666667" y="144.33333333333331"/>
      <point x="370.8" y="126.86666666666667"/>
      <point x="345.6333333333333" y="126.86666666666667" type="curve" smooth="yes"/>
      <point x="144.46666666666667" y="126.86666666666667" type="line"/>
      <point x="207.06666666666666" y="184.66666666666666" type="line" smooth="yes"/>
      <point x="427.16666666666663" y="368.0333333333333"/>
      <point x="477.2" y="447.56666666666666"/>
      <point x="477.2" y="549.3666666666667" type="curve" smooth="yes"/>
      <point x="477.2" y="653.3666666666667"/>
      <point x="399.96666666666664" y="724.0"/>
      <point x="243.86666666666667" y="724.0" type="curve" smooth="yes"/>
      <point x="94.76666666666668" y="724.0"/>
      <point x="25.166666666666664" y="647.8333333333334"/>
      <point x="25.166666666666664" y="578.8333333333334" type="curve" smooth="yes"/>
      <point x="25.166666666666664" y="498.76666666666665"/>
      <point x="93.13333333333334" y="478.5"/>
      <point x="167.36666666666667" y="478.5" type="curve"/>
      <point x="167.36666666666667" y="612.2666666666667"/>
      <point x="196.16666666666666" y="656.8333333333334"/>
      <point x="243.86666666666667" y="656.8333333333334" type="curve" smooth="yes"/>
      <point x="273.40000000000003" y="656.8333333333334"/>
      <point x="300.5666666666667" y="632.2666666666667"/>
      <point x="300.5666666666667" y="549.6333333333333" type="curve" smooth="yes"/>
      <point x="300.5666666666667" y="446.73333333333335"/>
      <point x="269.56666666666666" y="373.7"/>
      <point x="147.10000000000002" y="242.0666666666667" type="curve" smooth="yes"/>
      <point x="25.166666666666668" y="110.6" type="line"/>
    </contour>
  </outline>
</glyph>
<glyph name="three" format="2">
  <advance width="524.9"/>
  <unicode hex="0033"/>
  <outline>
    <contour>
      <point x="227.96666666666667" y="-10.0" type="curve" smooth="yes"/>
      <point x="373.8" y="-10.0"/>
      <point x="499.3666666666667" y="43.0"/>
      <point x="499.3666666666667" y="205.9" type="curve" smooth="yes"/>
      <point x="499.3666666666667" y="311.1"/>
      <point x="416.8666666666667" y="361.73333333333335"/>
      <point x="337.0" y="380.6333333333333" type="curve"/>
      <point x="414.8666666666666" y="413.53333333333336"/>
      <point x="475.83333333333337" y="468.0"/>
      <point x="475.83333333333337" y="558.0" type="curve" smooth="yes"/>
      <point x="475.83333333333337" y="664.0"/>
      <point x="388.7" y="724.0"/>
      <point x="243.86666666666667" y="724.0" type="curve" smooth="yes"/>
      <point x="95.76666666666668" y="724.0"/>
      <point x="27.166666666666664" y="655.7333333333333"/>
      <point x="27.166666666666664" y="588.3666666666667" type="curve" smooth="yes"/>
      <point x="27.166666666666664" y="522.5666666666666"/>
      <point x="80.5" y="498.3"/>
      <point x="161.36666666666667" y="498.3" type="curve"/>
      <point x="161.36666666666667" y="576.6666666666667"/>
      <point x="181.9" y="656.8333333333334"/>
      <point x="236.23333333333335" y="656.8333333333334" type="curve" smooth="yes"/>
      <point x="271.40000000000003" y="656.8333333333334"/>
      <point x="297.56666666666666" y="613.4666666666667"/>
      <point x="297.56666666666666" y="545.3666666666667" type="curve" smooth="yes"/>
      <point x="297.56666666666666" y="461.26666666666665"/>
      <point x="278.6666666666667" y="403.26666666666665"/>
      <point x="198.8" y="403.26666666666665" type="curve"/>
      <point x="122.93333333333334" y="403.26666666666665" type="line"/>
      <point x="122.93333333333334" y="335.46666666666664" type="line"/>
      <point x="192.53333333333333" y="335.46666666666664" type="line" smooth="yes"/>
      <point x="277.6666666666667" y="335.46666666666664"/>
      <point x="320.1" y="280.1"/>
      <point x="320.1" y="206.9" type="curve" smooth="yes"/>
      <point x="320.1" y="95.9"/>
      <point x="274.0333333333333" y="69.06666666666666"/>
      <point x="222.33333333333334" y="69.06666666666666" type="curve" smooth="yes"/>
      <point x="159.73333333333335" y="69.06666666666666"/>
      <point x="110.03333333333333" y="116.8"/>
      <point x="110.03333333333333" y="210.23333333333332" type="curve"/>
      <point x="60.96666666666667" y="210.23333333333332"/>
      <point x="14.899999999999999" y="181.96666666666667"/>
      <point x="14.899999999999999" y="124.8" type="curve" smooth="yes"/>
      <point x="14.899999999999999" y="47.266666666666666"/>
      <point x="72.86666666666666" y="-10.0"/>
    </contour>
  </outline>
</glyph>
<glyph name="four" format="2">
  <advance width="524.9"/>
  <unicode hex="0034"/>
  <outline>
    <contour>
      <point x="144.46666666666667" y="0.0" type="line"/>
      <point x="509.0" y="0.0" type="line"/>
      <point x="509.0" y="59.166666666666664" type="line"/>
      <point x="496.73333333333335" y="59.166666666666664" type="line" smooth="yes"/>
      <point x="454.66666666666663" y="59.166666666666664"/>
      <point x="419.8666666666667" y="68.16666666666667"/>
      <point x="419.8666666666667" y="131.16666666666666" type="curve" smooth="yes"/>
      <point x="419.8666666666667" y="180.83333333333334" type="line"/>
      <point x="503.3666666666667" y="180.83333333333334" type="line"/>
      <point x="503.3666666666667" y="252.0" type="line"/>
      <point x="419.8666666666667" y="252.0" type="line"/>
      <point x="419.8666666666667" y="714.0" type="line"/>
      <point x="256.93333333333334" y="714.0" type="line"/>
      <point x="9.633333333333333" y="252.16666666666666" type="line"/>
      <point x="9.633333333333333" y="180.83333333333334" type="line"/>
      <point x="247.86666666666667" y="180.83333333333334" type="line"/>
      <point x="247.86666666666667" y="131.16666666666666" type="line" smooth="yes"/>
      <point x="247.86666666666667" y="68.16666666666667"/>
      <point x="213.06666666666666" y="59.166666666666664"/>
      <point x="171.0" y="59.166666666666664" type="curve" smooth="yes"/>
      <point x="144.46666666666667" y="59.166666666666664" type="line"/>
    </contour>
    <contour>
      <point x="87.5" y="252.0" type="line"/>
      <point x="191.06666666666666" y="456.33333333333337" type="line" smooth="yes"/>
      <point x="204.46666666666667" y="484.70000000000005"/>
      <point x="240.66666666666669" y="561.8666666666667"/>
      <point x="255.13333333333333" y="601.7333333333333" type="curve"/>
      <point x="250.13333333333333" y="539.7333333333333"/>
      <point x="248.5" y="483.5"/>
      <point x="248.5" y="425.5" type="curve" smooth="yes"/>
      <point x="248.5" y="252.0" type="line"/>
    </contour>
  </outline>
</glyph>
<glyph name="five" format="2">
  <advance width="524.9"/>
  <unicode hex="0035"/>
  <outline>
    <contour>
      <point x="230.96666666666667" y="-10.0" type="curve" smooth="yes"/>
      <point x="322.1" y="-10.0"/>
      <point x="489.1" y="26.866666666666667"/>
      <point x="489.1" y="220.63333333333333" type="curve" smooth="yes"/>
      <point x="489.1" y="365.26666666666665"/>
      <point x="392.3333333333333" y="437.26666666666665"/>
      <point x="228.96666666666667" y="437.26666666666665" type="curve" smooth="yes"/>
      <point x="202.8" y="437.26666666666665"/>
      <point x="151.1" y="430.9"/>
      <point x="130.56666666666666" y="421.9" type="curve"/>
      <point x="144.93333333333334" y="588.1333333333333" type="line"/>
      <point x="348.2666666666667" y="588.1333333333333" type="line" smooth="yes"/>
      <point x="371.8" y="588.1333333333333"/>
      <point x="379.59999999999997" y="574.1333333333333"/>
      <point x="386.33333333333337" y="550.6666666666666" type="curve" smooth="yes"/>
      <point x="396.3333333333333" y="515.1333333333333" type="line"/>
      <point x="460.93333333333334" y="515.1333333333333" type="line"/>
      <point x="456.3" y="714.6333333333333" type="line"/>
      <point x="86.60000000000001" y="714.6333333333333" type="line"/>
      <point x="54.96666666666666" y="373.53333333333336" type="line"/>
      <point x="98.4" y="349.3666666666667" type="line"/>
      <point x="130.5666666666667" y="356.73333333333335"/>
      <point x="159.36666666666667" y="365.46666666666664"/>
      <point x="194.16666666666669" y="365.46666666666664" type="curve" smooth="yes"/>
      <point x="271.0333333333333" y="365.46666666666664"/>
      <point x="311.46666666666664" y="318.3666666666667"/>
      <point x="311.46666666666664" y="220.63333333333333" type="curve" smooth="yes"/>
      <point x="311.46666666666664" y="99.53333333333333"/>
      <point x="260.76666666666665" y="65.43333333333332"/>
      <point x="209.43333333333334" y="65.43333333333332" type="curve" smooth="yes"/>
      <point x="132.56666666666666" y="65.43333333333332"/>
      <point x="114.3" y="140.23333333333332"/>
      <point x="114.3" y="197.60000000000002" type="curve"/>
      <point x="65.60000000000001" y="197.60000000000002"/>
      <point x="27.166666666666668" y="173.6"/>
      <point x="27.166666666666668" y="123.06666666666666" type="curve" smooth="yes"/>
      <point x="27.166666666666668" y="51.0"/>
      <point x="88.13333333333333" y="-10.0"/>
    </contour>
  </outline>
</glyph>
<glyph name="six" format="2">
  <advance width="524.9"/>
  <unicode hex="0036"/>
  <outline>
    <contour>
      <point x="275.0333333333333" y="-10.0" type="curve" smooth="yes"/>
      <point x="429.1333333333334" y="-10.0"/>
      <point x="503.3666666666667" y="88.0"/>
      <point x="503.3666666666667" y="231.63333333333333" type="curve" smooth="yes"/>
      <point x="503.3666666666667" y="363.26666666666665"/>
      <point x="429.1333333333334" y="440.26666666666665"/>
      <point x="315.4666666666667" y="440.26666666666665" type="curve" smooth="yes"/>
      <point x="249.86666666666667" y="440.26666666666665"/>
      <point x="222.23333333333332" y="421.2666666666667"/>
      <point x="196.16666666666666" y="406.5333333333333" type="curve"/>
      <point x="204.8" y="561.9333333333333"/>
      <point x="233.96666666666667" y="658.8333333333334"/>
      <point x="292.93333333333334" y="658.8333333333334" type="curve" smooth="yes"/>
      <point x="335.00000000000006" y="658.8333333333334"/>
      <point x="356.90000000000003" y="595.6666666666667"/>
      <point x="356.90000000000003" y="523.0333333333333" type="curve"/>
      <point x="451.6666666666667" y="523.0333333333333"/>
      <point x="484.46666666666664" y="562.8333333333334"/>
      <point x="484.46666666666664" y="610.7333333333333" type="curve" smooth="yes"/>
      <point x="484.46666666666664" y="670.3666666666667"/>
      <point x="432.1333333333333" y="724.0"/>
      <point x="298.5666666666667" y="724.0" type="curve" smooth="yes"/>
      <point x="120.93333333333334" y="724.0"/>
      <point x="30.8" y="576.4"/>
      <point x="30.8" y="330.1" type="curve" smooth="yes"/>
      <point x="30.8" y="97.0"/>
      <point x="125.93333333333334" y="-10.0"/>
    </contour>
    <contour>
      <point x="278.0333333333333" y="61.8" type="curve" smooth="yes"/>
      <point x="233.96666666666667" y="61.8"/>
      <point x="197.53333333333333" y="148.20000000000002"/>
      <point x="197.16666666666666" y="334.93333333333334" type="curve"/>
      <point x="216.86666666666667" y="353.0"/>
      <point x="243.20000000000002" y="369.4666666666667"/>
      <point x="269.40000000000003" y="369.4666666666667" type="curve" smooth="yes"/>
      <point x="308.8333333333333" y="369.4666666666667"/>
      <point x="337.0" y="326.73333333333335"/>
      <point x="337.0" y="221.63333333333333" type="curve" smooth="yes"/>
      <point x="337.0" y="110.53333333333335"/>
      <point x="311.83333333333337" y="61.8"/>
    </contour>
  </outline>
</glyph>
<glyph name="seven" format="2">
  <advance width="524.9"/>
  <unicode hex="0037"/>
  <outline>
    <contour>
      <point x="132.56666666666666" y="0.0" type="line"/>
      <point x="237.6" y="0.0" type="line"/>
      <point x="489.46666666666664" y="654.3000000000001" type="line"/>
      <point x="489.46666666666664" y="714.6333333333333" type="line"/>
      <point x="43.43333333333333" y="714.6333333333333" type="line"/>
      <point x="38.43333333333333" y="487.7666666666667" type="line"/>
      <point x="107.03333333333335" y="487.7666666666667" type="line"/>
      <point x="114.66666666666667" y="537.4" type="line" smooth="yes"/>
      <point x="119.66666666666667" y="571.1333333333333"/>
      <point x="135.20000000000002" y="588.7666666666667"/>
      <point x="169.0" y="588.7666666666667" type="curve" smooth="yes"/>
      <point x="393.33333333333337" y="588.7666666666667" type="line"/>
    </contour>
  </outline>
</glyph>
<glyph name="eight" format="2">
  <advance width="524.9"/>
  <unicode hex="0038"/>
  <outline>
    <contour>
      <point x="256.5" y="-10.0" type="curve" smooth="yes"/>
      <point x="417.8666666666667" y="-10.0"/>
      <point x="508.0" y="70.89999999999999"/>
      <point x="508.0" y="186.89999999999998" type="curve" smooth="yes"/>
      <point x="508.0" y="284.0"/>
      <point x="468.56666666666666" y="335.0"/>
      <point x="359.90000000000003" y="392.53333333333336" type="curve"/>
      <point x="438.4" y="428.5333333333333"/>
      <point x="484.4666666666667" y="473.2666666666667"/>
      <point x="484.4666666666667" y="560.6333333333333" type="curve" smooth="yes"/>
      <point x="484.4666666666667" y="649.7333333333333"/>
      <point x="413.23333333333335" y="724.0"/>
      <point x="269.4" y="724.0" type="curve" smooth="yes"/>
      <point x="103.03333333333333" y="724.0"/>
      <point x="38.43333333333333" y="641.3666666666667"/>
      <point x="38.43333333333333" y="540.7333333333333" type="curve" smooth="yes"/>
      <point x="38.43333333333333" y="450.7333333333333"/>
      <point x="86.13333333333333" y="401.73333333333335"/>
      <point x="160.36666666666667" y="359.7333333333333" type="curve"/>
      <point x="78.86666666666667" y="329.3666666666667"/>
      <point x="16.9" y="278.6333333333333"/>
      <point x="16.9" y="174.0" type="curve" smooth="yes"/>
      <point x="16.9" y="76.26666666666667"/>
      <point x="87.13333333333334" y="-10.0"/>
    </contour>
    <contour>
      <point x="261.1333333333333" y="55.16666666666667" type="curve" smooth="yes"/>
      <point x="211.43333333333334" y="55.16666666666667"/>
      <point x="170.0" y="95.26666666666667"/>
      <point x="170.0" y="184.26666666666668" type="curve" smooth="yes"/>
      <point x="170.0" y="247.36666666666667"/>
      <point x="188.89999999999998" y="289.83333333333337"/>
      <point x="220.7" y="320.2" type="curve"/>
      <point x="293.56666666666666" y="278.73333333333335"/>
      <point x="337.6333333333333" y="229.73333333333332"/>
      <point x="337.6333333333333" y="166.0" type="curve" smooth="yes"/>
      <point x="337.6333333333333" y="94.9"/>
      <point x="306.2" y="55.16666666666667"/>
    </contour>
    <contour>
      <point x="290.93333333333334" y="427.43333333333334" type="curve"/>
      <point x="238.6" y="453.90000000000003"/>
      <point x="203.79999999999998" y="493.53333333333336"/>
      <point x="203.79999999999998" y="561.6333333333333" type="curve" smooth="yes"/>
      <point x="203.79999999999998" y="622.7333333333333"/>
      <point x="224.7" y="659.4666666666667"/>
      <point x="266.40000000000003" y="659.4666666666667" type="curve" smooth="yes"/>
      <point x="308.83333333333337" y="659.4666666666667"/>
      <point x="335.0" y="615.3666666666667"/>
      <point x="335.0" y="556.0" type="curve" smooth="yes"/>
      <point x="335.0" y="486.0"/>
      <point x="314.4666666666667" y="448.90000000000003"/>
    </contour>
  </outline>
</glyph>
<glyph name="nine" format="2">
  <advance width="524.9"/>
  <unicode hex="0039"/>
  <outline>
    <contour>
      <point x="213.0666666666667" y="-9.366666666666667" type="curve"/>
      <point x="413.23333333333335" y="-9.366666666666667"/>
      <point x="494.09999999999997" y="160.26666666666668"/>
      <point x="494.09999999999997" y="388.0" type="curve"/>
      <point x="494.09999999999997" y="626.6666666666667"/>
      <point x="389.7" y="724.0"/>
      <point x="246.86666666666667" y="724.0" type="curve" smooth="yes"/>
      <point x="106.03333333333333" y="724.0"/>
      <point x="21.533333333333335" y="628.6333333333333"/>
      <point x="21.533333333333335" y="485.0" type="curve" smooth="yes"/>
      <point x="21.533333333333335" y="350.3666666666667"/>
      <point x="97.76666666666667" y="275.73333333333335"/>
      <point x="204.43333333333334" y="275.73333333333335" type="curve" smooth="yes"/>
      <point x="269.4" y="275.73333333333335"/>
      <point x="304.2" y="300.26666666666665"/>
      <point x="335.0" y="340.06666666666666" type="curve"/>
      <point x="328.3666666666667" y="156.16666666666666"/>
      <point x="289.93333333333334" y="58.53333333333333"/>
      <point x="220.7" y="58.53333333333333" type="curve" smooth="yes"/>
      <point x="154.73333333333332" y="58.53333333333333"/>
      <point x="131.56666666666666" y="116.33333333333334"/>
      <point x="112.66666666666666" y="186.4" type="curve"/>
      <point x="63.6" y="178.4"/>
      <point x="46.06666666666666" y="142.23333333333332"/>
      <point x="46.06666666666666" y="110.96666666666667" type="curve" smooth="yes"/>
      <point x="46.06666666666666" y="45.53333333333333"/>
      <point x="93.76666666666667" y="-9.366666666666667"/>
    </contour>
    <contour>
      <point x="260.1333333333333" y="354.43333333333334" type="curve" smooth="yes"/>
      <point x="212.43333333333334" y="354.43333333333334"/>
      <point x="186.9" y="406.8"/>
      <point x="186.9" y="488.0" type="curve" smooth="yes"/>
      <point x="186.9" y="597.1"/>
      <point x="212.43333333333334" y="650.5666666666667"/>
      <point x="257.1333333333333" y="650.5666666666667" type="curve" smooth="yes"/>
      <point x="305.8333333333333" y="650.5666666666667"/>
      <point x="333.3666666666667" y="581.7666666666667"/>
      <point x="334.3666666666667" y="408.23333333333335" type="curve"/>
      <point x="313.4666666666667" y="372.8"/>
      <point x="287.3" y="354.43333333333334"/>
    </contour>
  </outline>
</glyph>
<glyph name="colon" format="2">
  <advance width="297.93333333333334"/>
  <unicode hex="003A"/>
  <outline>
    <contour>
      <point x="148.46666666666667" y="373.66666666666663" type="curve" smooth="yes"/>
      <point x="196.16666666666666" y="373.66666666666663"/>
      <point x="238.6" y="394.93333333333334"/>
      <point x="238.6" y="460.09999999999997" type="curve" smooth="yes"/>
      <point x="238.6" y="525.9000000000001"/>
      <point x="196.16666666666666" y="546.5333333333334"/>
      <point x="148.46666666666667" y="546.5333333333334" type="curve" smooth="yes"/>
      <point x="97.76666666666667" y="546.5333333333334"/>
      <point x="58.333333333333336" y="525.9000000000001"/>
      <point x="58.333333333333336" y="460.09999999999997" type="curve" smooth="yes"/>
      <point x="58.333333333333336" y="394.93333333333334"/>
      <point x="97.76666666666667" y="373.66666666666663"/>
    </contour>
    <contour>
      <point x="148.46666666666667" y="-8.633333333333333" type="curve" smooth="yes"/>
      <point x="196.16666666666666" y="-8.633333333333333"/>
      <point x="238.6" y="12.633333333333335"/>
      <point x="238.6" y="77.8" type="curve" smooth="yes"/>
      <point x="238.6" y="143.6"/>
      <point x="196.16666666666666" y="164.23333333333332"/>
      <point x="148.46666666666667" y="164.23333333333332" type="curve" smooth="yes"/>
      <point x="97.76666666666667" y="164.23333333333332"/>
      <point x="58.333333333333336" y="143.6"/>
      <point x="58.333333333333336" y="77.8" type="curve" smooth="yes"/>
      <point x="58.333333333333336" y="12.633333333333335"/>
      <point x="97.76666666666667" y="-8.633333333333333"/>
    </contour>
  </outline>
</glyph>
<glyph name="semicolon" format="2">
  <advance width="297.93333333333334"/>
  <unicode hex="003B"/>
  <outline>
    <contour>
      <point x="54.333333333333336" y="-154.0" type="line"/>
      <point x="184.26666666666668" y="-119.36666666666666"/>
      <point x="232.96666666666667" y="-43.733333333333334"/>
      <point x="232.96666666666667" y="40.53333333333333" type="curve" smooth="yes"/>
      <point x="232.96666666666667" y="115.7"/>
      <point x="204.8" y="164.23333333333332"/>
      <point x="141.83333333333334" y="164.23333333333332" type="curve" smooth="yes"/>
      <point x="100.39999999999999" y="164.23333333333332"/>
      <point x="63.96666666666667" y="138.6"/>
      <point x="63.96666666666667" y="90.43333333333334" type="curve" smooth="yes"/>
      <point x="63.96666666666667" y="0.09999999999999998"/>
      <point x="132.56666666666666" y="11.0"/>
      <point x="132.56666666666666" y="-25.0" type="curve" smooth="yes"/>
      <point x="132.56666666666666" y="-63.0"/>
      <point x="104.39999999999999" y="-76.2"/>
      <point x="54.333333333333336" y="-96.83333333333333" type="curve"/>
    </contour>
    <contour>
      <point x="148.46666666666667" y="373.66666666666663" type="curve" smooth="yes"/>
      <point x="196.53333333333333" y="373.66666666666663"/>
      <point x="238.6" y="394.93333333333334"/>
      <point x="238.6" y="460.09999999999997" type="curve" smooth="yes"/>
      <point x="238.6" y="525.9000000000001"/>
      <point x="196.53333333333333" y="546.5333333333334"/>
      <point x="148.46666666666667" y="546.5333333333334" type="curve" smooth="yes"/>
      <point x="97.76666666666667" y="546.5333333333334"/>
      <point x="58.333333333333336" y="525.9000000000001"/>
      <point x="58.333333333333336" y="460.09999999999997" type="curve" smooth="yes"/>
      <point x="58.333333333333336" y="394.93333333333334"/>
      <point x="97.76666666666667" y="373.66666666666663"/>
    </contour>
  </outline>
</glyph>
<glyph name="less" format="2">
  <advance width="509.8666666666667"/>
  <unicode hex="003C"/>
  <outline>
    <contour>
      <point x="456.23333333333335" y="101.1" type="line"/>
      <point x="456.23333333333335" y="186.63333333333333" type="line"/>
      <point x="163.29999999999998" y="357.0" type="line"/>
      <point x="456.23333333333335" y="529.3666666666667" type="line"/>
      <point x="456.23333333333335" y="614.9" type="line"/>
      <point x="53.63333333333334" y="379.6333333333333" type="line"/>
      <point x="53.63333333333334" y="335.3666666666667" type="line"/>
    </contour>
  </outline>
</glyph>
<glyph name="equal" format="2">
  <advance width="509.8666666666667"/>
  <unicode hex="003D"/>
  <outline>
    <contour>
      <point x="50.63333333333334" y="411.79999999999995" type="line"/>
      <point x="459.8666666666667" y="411.79999999999995" type="line"/>
      <point x="459.8666666666667" y="487.9666666666667" type="line"/>
      <point x="50.63333333333334" y="487.9666666666667" type="line"/>
    </contour>
    <contour>
      <point x="50.63333333333334" y="226.03333333333333" type="line"/>
      <point x="459.8666666666667" y="226.03333333333333" type="line"/>
      <point x="459.8666666666667" y="302.20000000000005" type="line"/>
      <point x="50.63333333333334" y="302.20000000000005" type="line"/>
    </contour>
  </outline>
</glyph>
<glyph name="greater" format="2">
  <advance width="509.8666666666667"/>
  <unicode hex="003E"/>
  <outline>
    <contour>
      <point x="53.63333333333334" y="101.1" type="line"/>
      <point x="456.23333333333335" y="335.3666666666667" type="line"/>
      <point x="456.23333333333335" y="379.6333333333333" type="line"/>
      <point x="53.63333333333334" y="614.9" type="line"/>
      <point x="53.63333333333334" y="529.3666666666667" type="line"/>
      <point x="346.2" y="357.0" type="line"/>
      <point x="53.63333333333334" y="186.63333333333333" type="line"/>
    </contour>
  </outline>
</glyph>
<glyph name="question" format="2">
  <advance width="551.4333333333334"/>
  <unicode hex="003F"/>
  <outline>
    <contour>
      <point x="217.06666666666666" y="235.43333333333334" type="line"/>
      <point x="274.4" y="235.43333333333334" type="line"/>
      <point x="307.2" y="323.0" type="line"/>
      <point x="437.76666666666665" y="380.26666666666665"/>
      <point x="497.09999999999997" y="433.3666666666667"/>
      <point x="497.09999999999997" y="538.7333333333333" type="curve" smooth="yes"/>
      <point x="497.09999999999997" y="655.3666666666667"/>
      <point x="400.9666666666667" y="724.0"/>
      <point x="248.86666666666667" y="724.0" type="curve" smooth="yes"/>
      <point x="98.4" y="724.0"/>
      <point x="31.166666666666664" y="661.4666666666667"/>
      <point x="31.166666666666664" y="601.1" type="curve" smooth="yes"/>
      <point x="31.166666666666664" y="537.3"/>
      <point x="87.50000000000001" y="519.3000000000001"/>
      <point x="187.9" y="519.3000000000001" type="curve"/>
      <point x="187.9" y="608.8333333333333"/>
      <point x="209.8" y="657.8333333333334"/>
      <point x="249.86666666666667" y="657.8333333333334" type="curve" smooth="yes"/>
      <point x="286.3" y="657.8333333333334"/>
      <point x="307.83333333333337" y="613.7333333333333"/>
      <point x="307.83333333333337" y="552.6333333333333" type="curve" smooth="yes"/>
      <point x="307.83333333333337" y="473.53333333333336"/>
      <point x="290.3" y="395.0"/>
      <point x="184.26666666666665" y="349.6333333333333" type="curve"/>
    </contour>
    <contour>
      <point x="243.23333333333332" y="-8.633333333333333" type="curve" smooth="yes"/>
      <point x="291.3" y="-8.633333333333333"/>
      <point x="333.3666666666666" y="12.633333333333335"/>
      <point x="333.3666666666666" y="77.8" type="curve" smooth="yes"/>
      <point x="333.3666666666666" y="143.6"/>
      <point x="291.3" y="164.23333333333332"/>
      <point x="243.23333333333332" y="164.23333333333332" type="curve" smooth="yes"/>
      <point x="192.53333333333333" y="164.23333333333332"/>
      <point x="153.10000000000002" y="143.6"/>
      <point x="153.10000000000002" y="77.8" type="curve" smooth="yes"/>
      <point x="153.10000000000002" y="12.633333333333335"/>
      <point x="192.53333333333333" y="-8.633333333333333"/>
    </contour>
  </outline>
</glyph>
<glyph name="bracketleft" format="2">
  <advance width="426.5"/>
  <unicode hex="005B"/>
  <outline>
    <contour>
      <point x="93.76666666666667" y="-128.0" type="line"/>
      <point x="391.70000000000005" y="-128.0" type="line"/>
      <point x="391.70000000000005" y="-68.83333333333333" type="line"/>
      <point x="351.6333333333333" y="-68.83333333333333" type="line" smooth="yes"/>
      <point x="309.2" y="-68.83333333333333"/>
      <point x="274.4" y="-59.833333333333336"/>
      <point x="274.4" y="3.166666666666667" type="curve" smooth="yes"/>
      <point x="274.4" y="628.8333333333334" type="line" smooth="yes"/>
      <point x="274.4" y="691.8333333333334"/>
      <point x="309.2" y="700.8333333333334"/>
      <point x="351.6333333333333" y="700.8333333333334" type="curve" smooth="yes"/>
      <point x="391.70000000000005" y="700.8333333333334" type="line"/>
      <point x="391.70000000000005" y="760.0" type="line"/>
      <point x="93.76666666666667" y="760.0" type="line"/>
    </contour>
  </outline>
</glyph>
<glyph name="backslash" format="2">
  <advance width="270.4"/>
  <unicode hex="005C"/>
  <outline>
    <contour>
      <point x="193.53333333333333" y="-121.0" type="line"/>
      <point x="270.4" y="-121.0" type="line"/>
      <point x="76.23333333333333" y="760.0" type="line"/>
      <point x="0.0" y="760.0" type="line"/>
    </contour>
  </outline>
</glyph>
<glyph name="bracketright" format="2">
  <advance width="426.5"/>
  <unicode hex="005D"/>
  <outline>
    <contour>
      <point x="34.800000000000004" y="-128.0" type="line"/>
      <point x="332.73333333333335" y="-128.0" type="line"/>
      <point x="332.73333333333335" y="760.0" type="line"/>
      <point x="34.800000000000004" y="760.0" type="line"/>
      <point x="34.800000000000004" y="700.8333333333334" type="line"/>
      <point x="75.23333333333333" y="700.8333333333334" type="line" smooth="yes"/>
      <point x="117.66666666666667" y="700.8333333333334"/>
      <point x="152.1" y="691.8333333333334"/>
      <point x="152.1" y="628.8333333333334" type="curve" smooth="yes"/>
      <point x="152.1" y="3.166666666666667" type="line" smooth="yes"/>
      <point x="152.1" y="-59.833333333333336"/>
      <point x="117.66666666666667" y="-68.83333333333333"/>
      <point x="75.23333333333333" y="-68.83333333333333" type="curve" smooth="yes"/>
      <point x="34.800000000000004" y="-68.83333333333333" type="line"/>
    </contour>
  </outline>
</glyph>
<glyph name="asciicircum" format="2">
  <advance width="509.8666666666667"/>
  <unicode hex="005E"/>
  <outline>
    <contour>
      <point x="32.099999999999994" y="259.73333333333335" type="line"/>
      <point x="112.60000000000001" y="259.73333333333335" type="line"/>
      <point x="253.43333333333334" y="594.9333333333334" type="line"/>
      <point x="395.2666666666667" y="259.73333333333335" type="line"/>
      <point x="476.1333333333333" y="259.73333333333335" type="line"/>
      <point x="276.96666666666664" y="714.0" type="line"/>
      <point x="230.9" y="714.0" type="line"/>
    </contour>
  </outline>
</glyph>
<glyph name="braceleft" format="2">
  <advance width="424.1333333333334"/>
  <unicode hex="007B"/>
  <outline>
    <contour>
      <point x="300.5666666666667" y="-123.36666666666666" type="curve" smooth="yes"/>
      <point x="410.23333333333335" y="-123.36666666666666" type="line"/>
      <point x="410.23333333333335" y="-64.2" type="line"/>
      <point x="367.1666666666667" y="-64.2" type="line" smooth="yes"/>
      <point x="315.46666666666664" y="-64.2"/>
      <point x="307.8333333333333" y="-30.833333333333332"/>
      <point x="307.8333333333333" y="28.9" type="curve" smooth="yes"/>
      <point x="307.8333333333333" y="199.26666666666665" type="line" smooth="yes"/>
      <point x="307.8333333333333" y="256.3666666666667"/>
      <point x="277.03333333333336" y="291.4666666666667"/>
      <point x="205.79999999999998" y="314.3666666666667" type="curve"/>
      <point x="205.79999999999998" y="326.26666666666665" type="line"/>
      <point x="280.0333333333333" y="347.1666666666667"/>
      <point x="307.8333333333333" y="382.26666666666665"/>
      <point x="307.8333333333333" y="439.3666666666667" type="curve" smooth="yes"/>
      <point x="307.8333333333333" y="609.3666666666667" type="line" smooth="yes"/>
      <point x="307.8333333333333" y="668.4666666666667"/>
      <point x="315.46666666666664" y="701.8333333333334"/>
      <point x="367.1666666666667" y="701.8333333333334" type="curve" smooth="yes"/>
      <point x="410.23333333333335" y="701.8333333333334" type="line"/>
      <point x="410.23333333333335" y="760.0" type="line"/>
      <point x="300.5666666666667" y="760.0" type="line" smooth="yes"/>
      <point x="182.9" y="760.0"/>
      <point x="121.93333333333332" y="706.3666666666667"/>
      <point x="121.93333333333332" y="612.3666666666667" type="curve" smooth="yes"/>
      <point x="121.93333333333332" y="441.3666666666667" type="line" smooth="yes"/>
      <point x="121.93333333333332" y="370.26666666666665"/>
      <point x="74.23333333333333" y="357.1666666666667"/>
      <point x="13.899999999999999" y="355.1666666666667" type="curve"/>
      <point x="13.899999999999999" y="283.4666666666667" type="line"/>
      <point x="74.23333333333333" y="280.4666666666667"/>
      <point x="121.93333333333332" y="269.3666666666667"/>
      <point x="121.93333333333332" y="196.26666666666665" type="curve" smooth="yes"/>
      <point x="121.93333333333332" y="26.9" type="line" smooth="yes"/>
      <point x="121.93333333333332" y="-65.73333333333332"/>
      <point x="182.9" y="-123.36666666666666"/>
    </contour>
  </outline>
</glyph>
<glyph name="bar" format="2">
  <advance width="524.9"/>
  <unicode hex="007C"/>
  <outline>
    <contour>
      <point x="224.33333333333331" y="-240.0" type="line"/>
      <point x="300.56666666666666" y="-240.0" type="line"/>
      <point x="300.56666666666666" y="760.0" type="line"/>
      <point x="224.33333333333331" y="760.0" type="line"/>
    </contour>
  </outline>
</glyph>
<glyph name="braceright" format="2">
  <advance width="424.1333333333334"/>
  <unicode hex="007D"/>
  <outline>
    <contour>
      <point x="13.899999999999999" y="-123.36666666666666" type="line"/>
      <point x="122.93333333333334" y="-123.36666666666666" type="line" smooth="yes"/>
      <point x="241.6" y="-123.36666666666666"/>
      <point x="302.2" y="-65.73333333333332"/>
      <point x="302.2" y="26.9" type="curve" smooth="yes"/>
      <point x="302.2" y="196.26666666666665" type="line" smooth="yes"/>
      <point x="302.2" y="269.3666666666667"/>
      <point x="350.2666666666667" y="280.4666666666667"/>
      <point x="410.23333333333335" y="283.4666666666667" type="curve"/>
      <point x="410.23333333333335" y="355.1666666666667" type="line"/>
      <point x="350.2666666666667" y="357.1666666666667"/>
      <point x="302.2" y="370.26666666666665"/>
      <point x="302.2" y="441.3666666666667" type="curve" smooth="yes"/>
      <point x="302.2" y="612.3666666666667" type="line" smooth="yes"/>
      <point x="302.2" y="706.3666666666667"/>
      <point x="241.6" y="760.0"/>
      <point x="122.93333333333334" y="760.0" type="curve" smooth="yes"/>
      <point x="13.899999999999999" y="760.0" type="line"/>
      <point x="13.899999999999999" y="701.8333333333334" type="line"/>
      <point x="57.33333333333333" y="701.8333333333334" type="line" smooth="yes"/>
      <point x="108.66666666666667" y="701.8333333333334"/>
      <point x="116.3" y="668.4666666666667"/>
      <point x="116.3" y="609.3666666666667" type="curve" smooth="yes"/>
      <point x="116.3" y="439.3666666666667" type="line" smooth="yes"/>
      <point x="116.3" y="382.26666666666665"/>
      <point x="144.46666666666667" y="347.1666666666667"/>
      <point x="218.7" y="326.26666666666665" type="curve"/>
      <point x="218.7" y="314.3666666666667" type="line"/>
      <point x="147.10000000000002" y="291.4666666666667"/>
      <point x="116.3" y="256.3666666666667"/>
      <point x="116.3" y="199.26666666666665" type="curve" smooth="yes"/>
      <point x="116.3" y="28.9" type="line" smooth="yes"/>
      <point x="116.3" y="-30.833333333333332"/>
      <point x="108.66666666666667" y="-64.2"/>
      <point x="57.33333333333333" y="-64.2" type="curve" smooth="yes"/>
      <point x="13.899999999999999" y="-64.2" type="line"/>
    </contour>
  </outline>
</glyph>
<glyph name="asciitilde" format="2">
  <advance width="509.8666666666667"/>
  <unicode hex="007E"/>
  <outline>
    <contour>
      <point x="29.000000000000004" y="258.1" type="curve"/>
      <point x="108.33333333333333" y="258.1" type="line"/>
      <point x="108.33333333333333" y="343.3666666666666"/>
      <point x="127.5" y="374.09999999999997"/>
      <point x="159.4" y="374.09999999999997" type="curve" smooth="yes"/>
      <point x="181.20000000000002" y="374.09999999999997"/>
      <point x="192.83333333333331" y="359.93333333333334"/>
      <point x="229.73333333333335" y="323.73333333333335" type="curve" smooth="yes"/>
      <point x="282.5333333333333" y="272.5333333333333"/>
      <point x="308.53333333333336" y="258.1"/>
      <point x="353.46666666666664" y="258.1" type="curve" smooth="yes"/>
      <point x="451.7" y="258.1"/>
      <point x="478.7" y="331.8"/>
      <point x="480.59999999999997" y="454.9" type="curve"/>
      <point x="400.0" y="454.9" type="line"/>
      <point x="400.0" y="369.53333333333336"/>
      <point x="385.2666666666667" y="338.9"/>
      <point x="354.3666666666667" y="338.9" type="curve" smooth="yes"/>
      <point x="333.1" y="338.9"/>
      <point x="318.4" y="353.9"/>
      <point x="282.96666666666664" y="386.9" type="curve" smooth="yes"/>
      <point x="225.1" y="440.8"/>
      <point x="203.79999999999998" y="454.9"/>
      <point x="162.36666666666667" y="454.9" type="curve" smooth="yes"/>
      <point x="62.699999999999996" y="454.9"/>
      <point x="29.000000000000004" y="374.23333333333335"/>
    </contour>
  </outline>
</glyph>
<glyph name="twosuperior" format="2">
  <advance width="375.43333333333334"/>
  <unicode hex="00B2"/>
  <outline>
    <contour>
      <point x="21.533333333333335" y="387.0" type="line"/>
      <point x="348.2666666666667" y="387.0" type="line"/>
      <point x="352.90000000000003" y="544.3333333333333" type="line"/>
      <point x="316.46666666666664" y="544.3333333333333" type="line"/>
      <point x="310.8333333333333" y="513.8" type="line"/>
      <point x="307.8333333333333" y="496.06666666666666"/>
      <point x="296.56666666666666" y="484.9666666666667"/>
      <point x="273.03333333333336" y="484.9666666666667" type="curve"/>
      <point x="103.03333333333333" y="484.9666666666667" type="line"/>
      <point x="155.46666666666667" y="514.3666666666667" type="line"/>
      <point x="311.8" y="596.7666666666667"/>
      <point x="347.26666666666665" y="637.3666666666667"/>
      <point x="347.26666666666665" y="705.3666666666666" type="curve" smooth="yes"/>
      <point x="347.26666666666665" y="772.0999999999999"/>
      <point x="304.2" y="825.0"/>
      <point x="185.9" y="825.0" type="curve" smooth="yes"/>
      <point x="74.86666666666667" y="825.0"/>
      <point x="24.166666666666668" y="783.3666666666667"/>
      <point x="24.166666666666668" y="733.7333333333333" type="curve" smooth="yes"/>
      <point x="24.166666666666668" y="695.8333333333334"/>
      <point x="48.7" y="679.8333333333334"/>
      <point x="122.93333333333334" y="679.8333333333334" type="curve"/>
      <point x="122.93333333333334" y="727.3"/>
      <point x="127.56666666666668" y="769.2"/>
      <point x="171.63333333333335" y="769.2" type="curve" smooth="yes"/>
      <point x="199.79999999999998" y="769.2"/>
      <point x="215.70000000000002" y="746.4666666666667"/>
      <point x="215.70000000000002" y="711.6333333333333" type="curve" smooth="yes"/>
      <point x="215.70000000000002" y="654.9"/>
      <point x="182.16666666666666" y="618.2666666666667"/>
      <point x="111.4" y="557.5333333333333" type="curve" smooth="yes"/>
      <point x="21.533333333333335" y="479.8666666666667" type="line"/>
    </contour>
  </outline>
</glyph>
<glyph name="threesuperior" format="2">
  <advance width="375.43333333333334"/>
  <unicode hex="00B3"/>
  <outline>
    <contour>
      <point x="165.36666666666667" y="380.0" type="curve" smooth="yes"/>
      <point x="294.93333333333334" y="380.0"/>
      <point x="355.9" y="432.2666666666667"/>
      <point x="355.9" y="510.6333333333333" type="curve" smooth="yes"/>
      <point x="355.9" y="576.3666666666667"/>
      <point x="301.2" y="603.0"/>
      <point x="244.86666666666667" y="612.0" type="curve"/>
      <point x="244.86666666666667" y="616.6333333333333" type="line"/>
      <point x="294.93333333333334" y="630.0"/>
      <point x="340.0" y="663.0"/>
      <point x="340.0" y="721.3666666666667" type="curve" smooth="yes"/>
      <point x="340.0" y="783.3666666666667"/>
      <point x="295.93333333333334" y="824.0"/>
      <point x="183.9" y="824.0" type="curve" smooth="yes"/>
      <point x="73.23333333333333" y="824.0"/>
      <point x="28.166666666666668" y="785.6333333333333"/>
      <point x="28.166666666666668" y="736.3666666666667" type="curve" smooth="yes"/>
      <point x="28.166666666666668" y="701.7333333333333"/>
      <point x="59.96666666666666" y="688.7333333333333"/>
      <point x="120.3" y="688.7333333333333" type="curve"/>
      <point x="120.3" y="735.4666666666667"/>
      <point x="123.93333333333332" y="771.8333333333334"/>
      <point x="164.36666666666667" y="771.8333333333334" type="curve" smooth="yes"/>
      <point x="191.53333333333336" y="771.8333333333334"/>
      <point x="207.43333333333334" y="749.8333333333334"/>
      <point x="207.43333333333334" y="714.3666666666667" type="curve" smooth="yes"/>
      <point x="207.43333333333334" y="665.0"/>
      <point x="186.9" y="636.2666666666667"/>
      <point x="139.83333333333334" y="636.2666666666667" type="curve" smooth="yes"/>
      <point x="105.03333333333333" y="636.2666666666667" type="line"/>
      <point x="105.03333333333333" y="580.1" type="line"/>
      <point x="139.83333333333331" y="580.1" type="line" smooth="yes"/>
      <point x="199.16666666666669" y="580.1"/>
      <point x="218.7" y="552.7333333333333"/>
      <point x="218.7" y="513.6333333333333" type="curve" smooth="yes"/>
      <point x="218.7" y="457.53333333333336"/>
      <point x="189.53333333333336" y="439.8"/>
      <point x="153.1" y="439.8" type="curve" smooth="yes"/>
      <point x="111.66666666666667" y="439.8"/>
      <point x="91.13333333333333" y="470.26666666666665"/>
      <point x="91.13333333333333" y="522.5333333333333" type="curve"/>
      <point x="40.06666666666666" y="522.5333333333333"/>
      <point x="13.266666666666666" y="503.90000000000003"/>
      <point x="13.266666666666666" y="470.26666666666665" type="curve" smooth="yes"/>
      <point x="13.266666666666666" y="421.26666666666665"/>
      <point x="58.96666666666667" y="380.0"/>
    </contour>
  </outline>
</glyph>
<glyph name="multiply" format="2">
  <advance width="509.8666666666667"/>
  <unicode hex="00D7"/>
  <outline>
    <contour>
      <point x="125.83333333333334" y="165.53333333333333" type="line"/>
      <point x="254.06666666666666" y="302.7333333333333" type="line"/>
      <point x="382.20000000000005" y="166.63333333333335" type="line"/>
      <point x="437.4666666666667" y="219.33333333333334" type="line"/>
      <point x="306.76666666666665" y="358.73333333333335" type="line"/>
      <point x="437.4666666666667" y="497.76666666666665" type="line"/>
      <point x="381.20000000000005" y="550.7333333333333" type="line"/>
      <point x="254.06666666666666" y="415.6333333333334" type="line"/>
      <point x="126.20000000000002" y="551.2" type="line"/>
      <point x="69.3" y="498.8666666666667" type="line"/>
      <point x="200.1" y="359.3666666666667" type="line"/>
      <point x="69.3" y="218.86666666666667" type="line"/>
    </contour>
  </outline>
</glyph>
<glyph name="divide" format="2">
  <advance width="509.8666666666667"/>
  <unicode hex="00F7"/>
  <outline>
    <contour>
      <point x="53.63333333333334" y="319.1" type="line"/>
      <point x="456.23333333333335" y="319.1" type="line"/>
      <point x="456.23333333333335" y="395.9" type="line"/>
      <point x="53.63333333333334" y="395.9" type="line"/>
    </contour>
    <contour>
      <point x="255.43333333333334" y="104.1" type="curve" smooth="yes"/>
      <point x="286.6" y="104.1"/>
      <point x="311.5" y="120.73333333333332"/>
      <point x="311.5" y="168.0" type="curve" smooth="yes"/>
      <point x="311.5" y="216.26666666666665"/>
      <point x="286.6" y="231.9"/>
      <point x="255.43333333333334" y="231.9" type="curve" smooth="yes"/>
      <point x="221.9" y="231.9"/>
      <point x="198.36666666666667" y="216.26666666666665"/>
      <point x="198.36666666666667" y="168.0" type="curve" smooth="yes"/>
      <point x="198.36666666666667" y="120.73333333333332"/>
      <point x="221.9" y="104.1"/>
    </contour>
    <contour>
      <point x="255.43333333333334" y="483.1" type="curve" smooth="yes"/>
      <point x="286.6" y="483.1"/>
      <point x="311.5" y="499.73333333333335"/>
      <point x="311.5" y="547.0" type="curve" smooth="yes"/>
      <point x="311.5" y="595.2666666666667"/>
      <point x="286.6" y="610.9"/>
      <point x="255.43333333333334" y="610.9" type="curve" smooth="yes"/>
      <point x="221.9" y="610.9"/>
      <point x="198.36666666666667" y="595.2666666666667"/>
      <point x="198.36666666666667" y="547.0" type="curve" smooth="yes"/>
      <point x="198.36666666666667" y="499.73333333333335"/>
      <point x="221.9" y="483.1"/>
    </contour>
  </outline>
</glyph>
<glyph name="udatta-deva" format="2">
  <unicode hex="0951"/>
  <anchor x="0.0" y="581.0666666666667" name="_vedic"/>
  <outline>
    <contour>
      <point x="-41.6" y="964.8666666666667" type="line"/>
      <point x="41.6" y="964.8666666666667" type="line"/>
      <point x="41.6" y="1172.5" type="line"/>
      <point x="-41.6" y="1172.5" type="line"/>
    </contour>
  </outline>
</glyph>
<glyph name="anudatta-deva" format="2">
  <unicode hex="0952"/>
  <anchor x="0.0" y="0.0" name="_bottom"/>
  <outline>
    <contour>
      <point x="-193.5" y="-604.9333333333334" type="line"/>
      <point x="193.5" y="-604.9333333333334" type="line"/>
      <point x="193.5" y="-506.66666666666674" type="line"/>
      <point x="-193.5" y="-506.66666666666674" type="line"/>
    </contour>
  </outline>
</glyph>
<glyph name="danda-deva" format="2">
  <advance width="352.26666666666665"/>
  <unicode hex="0964"/>
  <outline>
    <contour>
      <point x="74.19999999999999" y="0.0" type="line"/>
      <point x="278.43333333333334" y="0.0" type="line"/>
      <point x="278.43333333333334" y="581.0666666666667" type="line"/>
      <point x="74.19999999999999" y="581.0666666666667" type="line"/>
    </contour>
  </outline>
</glyph>
<glyph name="dbldanda-deva" format="2">
  <advance width="662.2666666666667"/>
  <unicode hex="0965"/>
  <outline>
    <contour>
      <point x="384.2" y="0.0" type="line"/>
      <point x="588.4333333333334" y="0.0" type="line"/>
      <point x="588.4333333333334" y="581.0666666666667" type="line"/>
      <point x="384.2" y="581.0666666666667" type="line"/>
    </contour>
    <contour>
      <point x="74.19999999999999" y="0.0" type="line"/>
      <point x="278.43333333333334" y="0.0" type="line"/>
      <point x="278.43333333333334" y="581.0666666666667" type="line"/>
      <point x="74.19999999999999" y="581.0666666666667" type="line"/>
    </contour>
  </outline>
</glyph>
<glyph name="anusvara-tamil" format="2">
  <unicode hex="0B82"/>
  <note>
uni0B82
</note>
  <anchor x="0.0" y="581.0666666666667" name="_top"/>
  <outline>
    <contour>
      <point x="0.0" y="626.5333333333333" type="curve" smooth="yes"/>
      <point x="82.8" y="626.5333333333333"/>
      <point x="149.96666666666667" y="691.7"/>
      <point x="149.96666666666667" y="777.5" type="curve" smooth="yes"/>
      <point x="149.96666666666667" y="863.5666666666667"/>
      <point x="82.8" y="927.7333333333333"/>
      <point x="0.0" y="927.7333333333333" type="curve" smooth="yes"/>
      <point x="-82.8" y="927.7333333333333"/>
      <point x="-149.96666666666667" y="863.5666666666667"/>
      <point x="-149.96666666666667" y="777.5" type="curve" smooth="yes"/>
      <point x="-149.96666666666667" y="691.7"/>
      <point x="-82.8" y="626.5333333333333"/>
    </contour>
    <contour>
      <point x="0.0" y="714.0666666666667" type="curve" smooth="yes"/>
      <point x="-32.53333333333333" y="714.0666666666667"/>
      <point x="-61.43333333333333" y="741.9666666666666"/>
      <point x="-61.43333333333333" y="777.1333333333333" type="curve" smooth="yes"/>
      <point x="-61.43333333333333" y="811.6666666666666"/>
      <point x="-32.53333333333333" y="839.5666666666666"/>
      <point x="0.0" y="839.5666666666666" type="curve" smooth="yes"/>
      <point x="32.53333333333333" y="839.5666666666666"/>
      <point x="61.43333333333333" y="811.6666666666666"/>
      <point x="61.43333333333333" y="777.1333333333333" type="curve" smooth="yes"/>
      <point x="61.43333333333333" y="741.9666666666666"/>
      <point x="32.53333333333333" y="714.0666666666667"/>
    </contour>
  </outline>
</glyph>
<glyph name="visarga-tamil" format="2">
  <advance width="884.8333333333333"/>
  <unicode hex="0B83"/>
  <note>
uni0B83
</note>
  <outline>
    <contour>
      <point x="659.6333333333334" y="-5.0" type="curve" smooth="yes"/>
      <point x="770.9000000000001" y="-5.0"/>
      <point x="842.6666666666666" y="65.7"/>
      <point x="842.6666666666666" y="187.26666666666668" type="curve" smooth="yes"/>
      <point x="842.6666666666666" y="309.2"/>
      <point x="769.9" y="378.9"/>
      <point x="664.5333333333333" y="378.9" type="curve" smooth="yes"/>
      <point x="550.5333333333333" y="378.9"/>
      <point x="482.9666666666667" y="296.93333333333334"/>
      <point x="482.9666666666667" y="181.36666666666667" type="curve" smooth="yes"/>
      <point x="482.9666666666667" y="73.7"/>
      <point x="545.2666666666667" y="-5.0"/>
    </contour>
    <contour>
      <point x="218.20000000000002" y="-5.0" type="curve" smooth="yes"/>
      <point x="329.73333333333335" y="-5.0"/>
      <point x="400.8666666666667" y="65.7"/>
      <point x="400.8666666666667" y="187.26666666666668" type="curve" smooth="yes"/>
      <point x="400.8666666666667" y="309.2"/>
      <point x="328.1" y="378.9"/>
      <point x="223.73333333333335" y="378.9" type="curve" smooth="yes"/>
      <point x="109.36666666666667" y="378.9"/>
      <point x="42.166666666666664" y="296.93333333333334"/>
      <point x="42.166666666666664" y="181.36666666666667" type="curve" smooth="yes"/>
      <point x="42.166666666666664" y="73.7"/>
      <point x="103.46666666666667" y="-5.0"/>
    </contour>
    <contour>
      <point x="446.53333333333336" y="439.6333333333333" type="curve" smooth="yes"/>
      <point x="557.4333333333333" y="439.6333333333333"/>
      <point x="629.2" y="510.3333333333333"/>
      <point x="629.2" y="631.9" type="curve" smooth="yes"/>
      <point x="629.2" y="754.2"/>
      <point x="556.4333333333333" y="823.5333333333333"/>
      <point x="451.0666666666667" y="823.5333333333333" type="curve" smooth="yes"/>
      <point x="337.06666666666666" y="823.5333333333333"/>
      <point x="269.8666666666667" y="742.2"/>
      <point x="269.8666666666667" y="626.0" type="curve" smooth="yes"/>
      <point x="269.8666666666667" y="518.7"/>
      <point x="331.8" y="439.6333333333333"/>
    </contour>
    <contour>
      <point x="190.3" y="77.06666666666666" type="curve" smooth="yes"/>
      <point x="138.63333333333333" y="77.06666666666666"/>
      <point x="117.03333333333333" y="126.3"/>
      <point x="117.03333333333333" y="187.26666666666668" type="curve" smooth="yes"/>
      <point x="117.03333333333333" y="250.76666666666665"/>
      <point x="140.89999999999998" y="296.83333333333337"/>
      <point x="191.03333333333333" y="296.83333333333337" type="curve" smooth="yes"/>
      <point x="236.43333333333334" y="296.83333333333337"/>
      <point x="258.5" y="260.56666666666666"/>
      <point x="258.5" y="187.26666666666668" type="curve" smooth="yes"/>
      <point x="258.5" y="116.76666666666667"/>
      <point x="232.26666666666665" y="77.06666666666666"/>
    </contour>
    <contour>
      <point x="417.6333333333333" y="522.0666666666667" type="curve" smooth="yes"/>
      <point x="366.9666666666667" y="522.0666666666667"/>
      <point x="344.73333333333335" y="571.5666666666667"/>
      <point x="344.73333333333335" y="631.9" type="curve" smooth="yes"/>
      <point x="344.73333333333335" y="695.4"/>
      <point x="368.6" y="741.8333333333333"/>
      <point x="418.3666666666667" y="741.8333333333333" type="curve" smooth="yes"/>
      <point x="463.76666666666665" y="741.8333333333333"/>
      <point x="486.2" y="705.1999999999999"/>
      <point x="486.2" y="631.9" type="curve" smooth="yes"/>
      <point x="486.2" y="561.4"/>
      <point x="459.6" y="522.0666666666667"/>
    </contour>
    <contour>
      <point x="631.1" y="77.06666666666666" type="curve" smooth="yes"/>
      <point x="580.0666666666667" y="77.06666666666666"/>
      <point x="558.2" y="126.3"/>
      <point x="558.2" y="187.26666666666668" type="curve" smooth="yes"/>
      <point x="558.2" y="250.76666666666665"/>
      <point x="581.7" y="296.83333333333337"/>
      <point x="631.8333333333334" y="296.83333333333337" type="curve" smooth="yes"/>
      <point x="677.2333333333333" y="296.83333333333337"/>
      <point x="699.3000000000001" y="260.56666666666666"/>
      <point x="699.3000000000001" y="187.26666666666668" type="curve" smooth="yes"/>
      <point x="699.3000000000001" y="116.76666666666667"/>
      <point x="673.0666666666667" y="77.06666666666666"/>
    </contour>
  </outline>
</glyph>
<glyph name="a-tamil" format="2">
  <advance width="1376.0666666666666"/>
  <unicode hex="0B85"/>
  <note>
uni0B85
</note>
  <anchor x="651.7666666666667" y="0.0" name="bottom"/>
  <anchor x="446.1" y="-178.16666666666666" name="nukta"/>
  <anchor x="654.8333333333334" y="581.0666666666667" name="top"/>
  <anchor x="654.8333333333333" y="581.0666666666667" name="vedic"/>
  <outline>
    <contour>
      <point x="1106.6" y="-249.5" type="line"/>
      <point x="1308.9333333333334" y="-249.5" type="line"/>
      <point x="1308.9333333333334" y="581.0666666666667" type="line"/>
      <point x="1106.6" y="581.0666666666667" type="line"/>
      <point x="1106.6" y="151.3" type="line"/>
      <point x="118.93333333333334" y="151.3" type="line" smooth="yes"/>
      <point x="61.166666666666664" y="151.3"/>
      <point x="22.0" y="117.4"/>
      <point x="22.0" y="67.66666666666667" type="curve" smooth="yes"/>
      <point x="22.0" y="-81.43333333333334"/>
      <point x="224.4" y="-178.16666666666666"/>
      <point x="446.1" y="-178.16666666666666" type="curve" smooth="yes"/>
      <point x="775.8666666666667" y="-178.16666666666666"/>
      <point x="1007.0333333333333" y="-34.03333333333333"/>
      <point x="1007.0333333333333" y="229.73333333333332" type="curve" smooth="yes"/>
      <point x="1007.0333333333333" y="444.6"/>
      <point x="860.0666666666666" y="586.0666666666667"/>
      <point x="621.3333333333334" y="586.0666666666667" type="curve" smooth="yes"/>
      <point x="435.4" y="586.0666666666667"/>
      <point x="359.8666666666667" y="484.06666666666666"/>
      <point x="359.8666666666667" y="378.43333333333334" type="curve" smooth="yes"/>
      <point x="359.8666666666667" y="277.9"/>
      <point x="435.3666666666667" y="208.46666666666667"/>
      <point x="533.9333333333334" y="208.46666666666667" type="curve" smooth="yes"/>
      <point x="631.0333333333334" y="208.46666666666667"/>
      <point x="711.1666666666666" y="266.96666666666664"/>
      <point x="711.1666666666666" y="369.3333333333333" type="curve" smooth="yes"/>
      <point x="711.1666666666666" y="458.03333333333336"/>
      <point x="656.7333333333333" y="511.43333333333334"/>
      <point x="590.9666666666667" y="548.8666666666667" type="curve"/>
      <point x="502.16666666666663" y="532.7" type="line"/>
      <point x="569.7333333333333" y="495.6333333333333"/>
      <point x="602.6" y="447.06666666666666"/>
      <point x="602.6" y="386.43333333333334" type="curve" smooth="yes"/>
      <point x="602.6" y="343.06666666666666"/>
      <point x="575.5333333333334" y="298.53333333333336"/>
      <point x="521.0333333333333" y="298.53333333333336" type="curve" smooth="yes"/>
      <point x="479.06666666666666" y="298.53333333333336"/>
      <point x="444.6333333333334" y="325.8"/>
      <point x="444.6333333333334" y="389.06666666666666" type="curve" smooth="yes"/>
      <point x="444.6333333333334" y="449.3333333333333"/>
      <point x="489.6" y="512.5333333333333"/>
      <point x="599.9666666666667" y="512.5333333333333" type="curve" smooth="yes"/>
      <point x="728.2" y="512.5333333333333"/>
      <point x="818.7" y="432.6666666666667"/>
      <point x="818.7" y="246.93333333333334" type="curve" smooth="yes"/>
      <point x="818.7" y="-15.166666666666668"/>
      <point x="635.7666666666667" y="-105.0"/>
      <point x="416.46666666666664" y="-105.0" type="curve" smooth="yes"/>
      <point x="256.5" y="-105.0"/>
      <point x="111.5" y="-27.46666666666667"/>
      <point x="111.5" y="49.86666666666667" type="curve" smooth="yes"/>
      <point x="111.5" y="68.86666666666666"/>
      <point x="122.5" y="77.23333333333333"/>
      <point x="146.56666666666666" y="77.23333333333333" type="curve" smooth="yes"/>
      <point x="1106.6" y="77.23333333333333" type="line"/>
    </contour>
  </outline>
</glyph>
<glyph name="aa-tamil" format="2">
  <advance width="1653.8333333333333"/>
  <unicode hex="0B86"/>
  <note>
uni0B86
</note>
  <anchor x="805.8" y="0.0" name="bottom"/>
  <anchor x="446.1" y="-178.16666666666666" name="nukta"/>
  <anchor x="809.1333333333333" y="581.0666666666667" name="top"/>
  <anchor x="808.8666666666667" y="581.0666666666667" name="vedic"/>
  <outline>
    <contour>
      <point x="1098.9666666666667" y="-460.83333333333337" type="curve" smooth="yes"/>
      <point x="1376.7" y="-460.83333333333337"/>
      <point x="1633.2333333333333" y="-341.1333333333333"/>
      <point x="1633.2333333333333" y="-74.36666666666666" type="curve" smooth="yes"/>
      <point x="1633.2333333333333" y="52.2"/>
      <point x="1561.7666666666667" y="117.46666666666667"/>
      <point x="1465.2666666666667" y="117.46666666666667" type="curve" smooth="yes"/>
      <point x="1346.3" y="117.46666666666667"/>
      <point x="1279.1666666666667" y="38.06666666666666"/>
      <point x="1265.2666666666667" y="-115.19999999999999" type="curve"/>
      <point x="1307.5666666666666" y="-122.19999999999999" type="line"/>
      <point x="1305.5666666666668" y="-57.06666666666666"/>
      <point x="1334.0" y="-20.033333333333335"/>
      <point x="1375.8666666666666" y="-20.033333333333335" type="curve" smooth="yes"/>
      <point x="1414.4666666666667" y="-20.033333333333335"/>
      <point x="1436.0" y="-49.46666666666667"/>
      <point x="1436.0" y="-97.0" type="curve" smooth="yes"/>
      <point x="1436.0" y="-283.03333333333336"/>
      <point x="1293.9333333333334" y="-386.23333333333335"/>
      <point x="1087.4333333333334" y="-386.23333333333335" type="curve" smooth="yes"/>
      <point x="985.0666666666666" y="-386.23333333333335"/>
      <point x="893.4000000000001" y="-356.26666666666665"/>
      <point x="893.4000000000001" y="-293.03333333333336" type="curve" smooth="yes"/>
      <point x="893.4000000000001" y="-248.49999999999997"/>
      <point x="921.0333333333333" y="-221.36666666666667"/>
      <point x="987.6999999999999" y="-207.46666666666667" type="curve"/>
      <point x="973.0666666666666" y="-139.4" type="line"/>
      <point x="859.5333333333333" y="-163.5666666666667"/>
      <point x="812.9" y="-212.7"/>
      <point x="812.9" y="-291.3" type="curve" smooth="yes"/>
      <point x="812.9" y="-397.7"/>
      <point x="925.5666666666666" y="-460.83333333333337"/>
    </contour>
    <component base="a-tamil"/>
  </outline>
</glyph>
<glyph name="i-tamil" format="2">
  <advance width="1065.3666666666668"/>
  <unicode hex="0B87"/>
  <note>
uni0B87
</note>
  <anchor x="503.5333333333333" y="0.0" name="bottom"/>
  <anchor x="502.26666666666665" y="-301.76666666666665" name="nukta"/>
  <anchor x="519.0666666666666" y="864.3666666666667" name="top"/>
  <anchor x="509.5333333333333" y="581.0666666666667" name="vedic"/>
  <outline>
    <contour>
      <point x="235.73333333333335" y="-334.53333333333336" type="curve" smooth="yes"/>
      <point x="589.4666666666666" y="-334.53333333333336"/>
      <point x="855.7" y="-49.43333333333334"/>
      <point x="855.7" y="222.0" type="curve" smooth="yes"/>
      <point x="855.7" y="424.96666666666664"/>
      <point x="736.6" y="586.0666666666667"/>
      <point x="509.9" y="586.0666666666667" type="curve" smooth="yes"/>
      <point x="327.1333333333333" y="586.0666666666667"/>
      <point x="252.86666666666667" y="484.06666666666666"/>
      <point x="252.86666666666667" y="378.43333333333334" type="curve" smooth="yes"/>
      <point x="252.86666666666667" y="277.9"/>
      <point x="328.6333333333333" y="208.46666666666667"/>
      <point x="426.8333333333333" y="208.46666666666667" type="curve" smooth="yes"/>
      <point x="523.3000000000001" y="208.46666666666667"/>
      <point x="603.7" y="266.23333333333335"/>
      <point x="603.7" y="368.6" type="curve" smooth="yes"/>
      <point x="603.7" y="457.3"/>
      <point x="548.6333333333334" y="511.43333333333334"/>
      <point x="482.8666666666667" y="548.8666666666667" type="curve"/>
      <point x="394.06666666666666" y="532.7" type="line"/>
      <point x="461.6333333333333" y="495.6333333333333"/>
      <point x="494.5" y="446.3333333333333"/>
      <point x="494.5" y="385.7" type="curve" smooth="yes"/>
      <point x="494.5" y="342.3333333333333"/>
      <point x="468.8" y="298.5333333333333"/>
      <point x="413.29999999999995" y="298.5333333333333" type="curve" smooth="yes"/>
      <point x="371.9666666666667" y="298.5333333333333"/>
      <point x="338.2666666666667" y="325.8"/>
      <point x="338.2666666666667" y="389.06666666666666" type="curve" smooth="yes"/>
      <point x="338.2666666666667" y="449.3333333333333"/>
      <point x="381.3333333333333" y="512.5333333333333"/>
      <point x="488.8" y="512.5333333333333" type="curve" smooth="yes"/>
      <point x="626.5333333333334" y="512.5333333333333"/>
      <point x="672.6333333333333" y="412.1333333333333"/>
      <point x="672.6333333333333" y="232.23333333333332" type="curve" smooth="yes"/>
      <point x="672.6333333333333" y="23.766666666666666"/>
      <point x="570.2" y="-253.93333333333334"/>
      <point x="236.36666666666667" y="-253.93333333333334" type="curve" smooth="yes"/>
      <point x="154.63333333333335" y="-253.93333333333334"/>
      <point x="115.56666666666668" y="-219.76666666666668"/>
      <point x="115.56666666666668" y="-155.06666666666666" type="curve" smooth="yes"/>
      <point x="115.56666666666668" y="-40.06666666666666"/>
      <point x="319.23333333333335" y="38.2"/>
      <point x="500.3333333333333" y="38.2" type="curve" smooth="yes"/>
      <point x="692.7333333333333" y="38.2"/>
      <point x="919.1" y="-26.633333333333333"/>
      <point x="919.1" y="-164.76666666666665" type="curve" smooth="yes"/>
      <point x="919.1" y="-221.4"/>
      <point x="876.7666666666668" y="-253.93333333333334"/>
      <point x="799.3000000000001" y="-253.93333333333334" type="curve" smooth="yes"/>
      <point x="492.9" y="-253.93333333333334"/>
      <point x="131.0" y="43.46666666666667"/>
      <point x="131.0" y="351.0" type="curve" smooth="yes"/>
      <point x="131.0" y="582.5666666666666"/>
      <point x="287.23333333333335" y="713.2333333333333"/>
      <point x="519.6999999999999" y="713.2333333333333" type="curve" smooth="yes"/>
      <point x="759.7666666666667" y="713.2333333333333"/>
      <point x="945.4333333333333" y="592.1"/>
      <point x="945.4333333333333" y="335.06666666666666" type="curve" smooth="yes"/>
      <point x="945.4333333333333" y="102.73333333333333" type="line"/>
      <point x="1025.9333333333334" y="102.73333333333333" type="line"/>
      <point x="1025.9333333333334" y="344.7" type="line" smooth="yes"/>
      <point x="1025.9333333333334" y="709.6666666666666"/>
      <point x="818.0" y="864.3666666666667"/>
      <point x="519.0666666666666" y="864.3666666666667" type="curve" smooth="yes"/>
      <point x="227.0" y="864.3666666666667"/>
      <point x="39.86666666666667" y="661.1999999999999"/>
      <point x="39.86666666666667" y="394.83333333333337" type="curve" smooth="yes"/>
      <point x="39.86666666666667" y="-0.7000000000000002"/>
      <point x="499.6333333333333" y="-334.53333333333336"/>
      <point x="803.6666666666666" y="-334.53333333333336" type="curve" smooth="yes"/>
      <point x="935.1333333333333" y="-334.53333333333336"/>
      <point x="1011.8666666666667" y="-273.26666666666665"/>
      <point x="1011.8666666666667" y="-180.93333333333334" type="curve" smooth="yes"/>
      <point x="1011.8666666666667" y="26.0"/>
      <point x="747.3333333333333" y="104.63333333333334"/>
      <point x="499.3333333333333" y="104.63333333333334" type="curve" smooth="yes"/>
      <point x="271.0" y="104.63333333333334"/>
      <point x="27.166666666666668" y="0.666666666666667"/>
      <point x="27.166666666666668" y="-161.23333333333332" type="curve" smooth="yes"/>
      <point x="27.166666666666668" y="-273.56666666666666"/>
      <point x="104.93333333333332" y="-334.53333333333336"/>
    </contour>
  </outline>
</glyph>
<glyph name="ii-tamil" format="2">
  <advance width="872.6"/>
  <unicode hex="0B88"/>
  <note>
uni0B88
</note>
  <anchor x="440.93333333333334" y="0.0" name="bottom"/>
  <anchor x="441.93333333333334" y="0.0" name="nukta"/>
  <anchor x="444.2" y="581.0666666666667" name="top"/>
  <anchor x="443.93333333333334" y="581.0666666666667" name="vedic"/>
  <outline>
    <contour>
      <point x="67.13333333333333" y="0.0" type="line"/>
      <point x="146.73333333333335" y="0.0" type="line"/>
      <point x="146.73333333333335" y="509.0" type="line"/>
      <point x="398.1" y="509.0" type="line"/>
      <point x="398.1" y="0.0" type="line"/>
      <point x="602.1666666666666" y="0.0" type="line"/>
      <point x="602.1666666666666" y="509.0" type="line"/>
      <point x="819.5333333333334" y="509.0" type="line"/>
      <point x="819.5333333333334" y="581.0666666666667" type="line"/>
      <point x="67.13333333333333" y="581.0666666666667" type="line"/>
    </contour>
    <contour>
      <point x="272.8666666666667" y="196.76666666666665" type="curve" smooth="yes"/>
      <point x="316.93333333333334" y="196.76666666666665"/>
      <point x="354.0" y="233.46666666666667"/>
      <point x="354.0" y="276.1666666666667" type="curve" smooth="yes"/>
      <point x="354.0" y="319.8666666666667"/>
      <point x="317.56666666666666" y="355.93333333333334"/>
      <point x="273.23333333333335" y="355.93333333333334" type="curve" smooth="yes"/>
      <point x="228.53333333333333" y="355.93333333333334"/>
      <point x="192.1" y="319.8666666666667"/>
      <point x="192.1" y="276.1666666666667" type="curve" smooth="yes"/>
      <point x="192.1" y="233.46666666666667"/>
      <point x="228.53333333333333" y="196.76666666666665"/>
    </contour>
    <contour>
      <point x="724.8666666666667" y="196.76666666666665" type="curve" smooth="yes"/>
      <point x="769.2" y="196.76666666666665"/>
      <point x="806.6333333333333" y="233.46666666666667"/>
      <point x="806.6333333333333" y="276.1666666666667" type="curve" smooth="yes"/>
      <point x="806.6333333333333" y="319.8666666666667"/>
      <point x="769.5666666666667" y="355.93333333333334"/>
      <point x="725.8666666666667" y="355.93333333333334" type="curve" smooth="yes"/>
      <point x="680.8000000000001" y="355.93333333333334"/>
      <point x="643.7333333333333" y="319.8666666666667"/>
      <point x="643.7333333333333" y="276.1666666666667" type="curve" smooth="yes"/>
      <point x="643.7333333333333" y="233.46666666666667"/>
      <point x="680.8000000000001" y="196.76666666666665"/>
    </contour>
  </outline>
</glyph>
<glyph name="u-tamil" format="2">
  <advance width="957.6"/>
  <unicode hex="0B89"/>
  <note>
uni0B89
</note>
  <anchor x="470.43333333333334" y="0.0" name="bottom"/>
  <anchor x="470.43333333333334" y="0.0" name="nukta"/>
  <anchor x="474.06666666666666" y="581.0666666666667" name="top"/>
  <anchor x="473.43333333333334" y="581.0666666666667" name="vedic"/>
  <outline>
    <contour>
      <point x="137.66666666666666" y="0.0" type="curve" smooth="yes"/>
      <point x="950.7666666666668" y="0.0" type="line"/>
      <point x="950.7666666666668" y="72.06666666666666" type="line"/>
      <point x="132.4" y="72.06666666666666" type="line" smooth="yes"/>
      <point x="115.66666666666667" y="72.06666666666666"/>
      <point x="102.4" y="81.9"/>
      <point x="102.4" y="101.26666666666667" type="curve" smooth="yes"/>
      <point x="102.4" y="120.26666666666667"/>
      <point x="115.66666666666667" y="130.36666666666667"/>
      <point x="132.4" y="130.36666666666667" type="curve" smooth="yes"/>
      <point x="395.4" y="130.36666666666667" type="line" smooth="yes"/>
      <point x="582.9666666666667" y="130.36666666666667"/>
      <point x="709.3666666666667" y="185.03333333333333"/>
      <point x="709.3666666666667" y="337.1" type="curve" smooth="yes"/>
      <point x="709.3666666666667" y="482.3"/>
      <point x="592.1333333333333" y="586.0666666666667"/>
      <point x="369.96666666666664" y="586.0666666666667" type="curve" smooth="yes"/>
      <point x="194.33333333333334" y="586.0666666666667"/>
      <point x="98.83333333333334" y="500.2333333333333"/>
      <point x="98.83333333333334" y="393.7" type="curve" smooth="yes"/>
      <point x="98.83333333333334" y="294.1666666666667"/>
      <point x="170.86666666666667" y="242.26666666666668"/>
      <point x="263.06666666666666" y="242.26666666666668" type="curve" smooth="yes"/>
      <point x="349.93333333333334" y="242.26666666666668"/>
      <point x="425.8666666666667" y="290.0"/>
      <point x="425.8666666666667" y="376.7" type="curve" smooth="yes"/>
      <point x="425.8666666666667" y="461.5"/>
      <point x="371.9666666666667" y="511.5333333333333"/>
      <point x="291.2666666666667" y="545.6" type="curve"/>
      <point x="212.66666666666669" y="539.6" type="line"/>
      <point x="288.23333333333335" y="499.43333333333334"/>
      <point x="318.56666666666666" y="462.76666666666665"/>
      <point x="318.56666666666666" y="404.0333333333333" type="curve" smooth="yes"/>
      <point x="318.56666666666666" y="356.5"/>
      <point x="289.6" y="329.6666666666667"/>
      <point x="246.9" y="329.6666666666667" type="curve" smooth="yes"/>
      <point x="211.1" y="329.6666666666667"/>
      <point x="181.96666666666667" y="355.8666666666666"/>
      <point x="181.96666666666667" y="402.1333333333333" type="curve" smooth="yes"/>
      <point x="181.96666666666667" y="468.1333333333333"/>
      <point x="241.6" y="514.6333333333333"/>
      <point x="328.76666666666665" y="514.6333333333333" type="curve" smooth="yes"/>
      <point x="447.1333333333333" y="514.6333333333333"/>
      <point x="522.0333333333333" y="458.9"/>
      <point x="522.0333333333333" y="348.6333333333333" type="curve" smooth="yes"/>
      <point x="522.0333333333333" y="249.9"/>
      <point x="466.23333333333335" y="197.8"/>
      <point x="367.59999999999997" y="197.8" type="curve" smooth="yes"/>
      <point x="137.66666666666666" y="197.8" type="line" smooth="yes"/>
      <point x="68.8" y="197.8"/>
      <point x="28.26666666666667" y="161.26666666666668"/>
      <point x="28.26666666666667" y="100.26666666666667" type="curve" smooth="yes"/>
      <point x="28.26666666666667" y="38.266666666666666"/>
      <point x="69.16666666666667" y="0.0"/>
    </contour>
  </outline>
</glyph>
<glyph name="uu-tamil" format="2">
  <advance width="1867.1666666666667"/>
  <unicode hex="0B8A"/>
  <note>
uni0B8A
</note>
  <anchor x="927.0" y="0.0" name="bottom"/>
  <anchor x="927.0" y="0.0" name="nukta"/>
  <anchor x="929.3666666666667" y="581.0666666666667" name="top"/>
  <anchor x="930.0" y="581.0666666666667" name="vedic"/>
  <outline>
    <contour>
      <point x="137.66666666666669" y="0.0" type="curve" smooth="yes"/>
      <point x="1802.4666666666667" y="0.0" type="line"/>
      <point x="1802.4666666666667" y="72.06666666666666" type="line"/>
      <point x="132.4" y="72.06666666666666" type="line" smooth="yes"/>
      <point x="115.66666666666667" y="72.06666666666666"/>
      <point x="102.4" y="81.9"/>
      <point x="102.4" y="101.26666666666667" type="curve" smooth="yes"/>
      <point x="102.4" y="120.26666666666667"/>
      <point x="115.66666666666667" y="130.36666666666667"/>
      <point x="132.4" y="130.36666666666667" type="curve" smooth="yes"/>
      <point x="395.4" y="130.36666666666667" type="line" smooth="yes"/>
      <point x="582.9666666666667" y="130.36666666666667"/>
      <point x="709.3666666666667" y="185.03333333333333"/>
      <point x="709.3666666666667" y="337.1" type="curve" smooth="yes"/>
      <point x="709.3666666666667" y="482.3"/>
      <point x="592.1333333333333" y="586.0666666666667"/>
      <point x="369.96666666666664" y="586.0666666666667" type="curve" smooth="yes"/>
      <point x="194.33333333333334" y="586.0666666666667"/>
      <point x="98.83333333333334" y="500.2333333333333"/>
      <point x="98.83333333333334" y="393.7" type="curve" smooth="yes"/>
      <point x="98.83333333333334" y="294.1666666666667"/>
      <point x="170.86666666666667" y="242.26666666666668"/>
      <point x="263.06666666666666" y="242.26666666666668" type="curve" smooth="yes"/>
      <point x="349.93333333333334" y="242.26666666666668"/>
      <point x="425.8666666666667" y="290.0"/>
      <point x="425.8666666666667" y="376.7" type="curve" smooth="yes"/>
      <point x="425.8666666666667" y="461.5"/>
      <point x="371.9666666666667" y="511.5333333333333"/>
      <point x="291.2666666666667" y="545.6" type="curve"/>
      <point x="212.66666666666669" y="539.6" type="line"/>
      <point x="288.23333333333335" y="499.43333333333334"/>
      <point x="318.56666666666666" y="462.76666666666665"/>
      <point x="318.56666666666666" y="404.0333333333333" type="curve" smooth="yes"/>
      <point x="318.56666666666666" y="356.5"/>
      <point x="289.6" y="329.6666666666667"/>
      <point x="246.9" y="329.6666666666667" type="curve" smooth="yes"/>
      <point x="211.1" y="329.6666666666667"/>
      <point x="181.96666666666667" y="355.8666666666666"/>
      <point x="181.96666666666667" y="402.1333333333333" type="curve" smooth="yes"/>
      <point x="181.96666666666667" y="468.1333333333333"/>
      <point x="241.6" y="514.6333333333333"/>
      <point x="328.76666666666665" y="514.6333333333333" type="curve" smooth="yes"/>
      <point x="447.1333333333333" y="514.6333333333333"/>
      <point x="522.0333333333333" y="458.9"/>
      <point x="522.0333333333333" y="348.6333333333333" type="curve" smooth="yes"/>
      <point x="522.0333333333333" y="249.9"/>
      <point x="466.23333333333335" y="197.8"/>
      <point x="367.59999999999997" y="197.8" type="curve" smooth="yes"/>
      <point x="137.66666666666669" y="197.8" type="line" smooth="yes"/>
      <point x="68.8" y="197.8"/>
      <point x="28.26666666666667" y="161.26666666666668"/>
      <point x="28.26666666666667" y="100.26666666666667" type="curve" smooth="yes"/>
      <point x="28.26666666666667" y="38.266666666666666"/>
      <point x="69.16666666666667" y="0.0"/>
    </contour>
    <contour>
      <point x="986.5" y="123.36666666666666" type="curve" smooth="yes"/>
      <point x="1083.3333333333333" y="123.36666666666666"/>
      <point x="1165.6333333333332" y="170.26666666666665"/>
      <point x="1165.6333333333332" y="271.1666666666667" type="curve" smooth="yes"/>
      <point x="1165.6333333333332" y="365.96666666666664"/>
      <point x="1097.5" y="413.3333333333333"/>
      <point x="1019.9000000000001" y="413.3333333333333" type="curve" smooth="yes"/>
      <point x="909.4333333333333" y="413.3333333333333"/>
      <point x="848.2666666666668" y="322.6"/>
      <point x="849.6333333333333" y="228.16666666666666" type="curve"/>
      <point x="894.7666666666667" y="205.9" type="line"/>
      <point x="895.0333333333334" y="277.53333333333336"/>
      <point x="932.3333333333334" y="335.9"/>
      <point x="980.0333333333333" y="335.9" type="curve" smooth="yes"/>
      <point x="1019.3666666666667" y="335.9"/>
      <point x="1042.2666666666667" y="309.90000000000003"/>
      <point x="1042.2666666666667" y="268.6333333333333" type="curve" smooth="yes"/>
      <point x="1042.2666666666667" y="225.16666666666669"/>
      <point x="1012.3000000000001" y="197.06666666666666"/>
      <point x="968.3333333333333" y="197.06666666666666" type="curve" smooth="yes"/>
      <point x="915.0" y="197.06666666666666"/>
      <point x="846.3333333333334" y="237.73333333333332"/>
      <point x="846.3333333333334" y="343.9" type="curve" smooth="yes"/>
      <point x="846.3333333333334" y="445.2"/>
      <point x="915.4666666666667" y="515.0"/>
      <point x="1028.7666666666667" y="515.0" type="curve" smooth="yes"/>
      <point x="1161.4666666666667" y="515.0"/>
      <point x="1231.3333333333335" y="423.0"/>
      <point x="1231.3333333333333" y="327.23333333333335" type="curve"/>
      <point x="1307.0" y="327.23333333333335" type="line"/>
      <point x="1294.0333333333333" y="512.1333333333333"/>
      <point x="1163.1333333333334" y="586.0666666666667"/>
      <point x="1030.7666666666667" y="586.0666666666667" type="curve" smooth="yes"/>
      <point x="878.4" y="586.0666666666667"/>
      <point x="768.6666666666666" y="483.0"/>
      <point x="768.6666666666666" y="342.26666666666665" type="curve" smooth="yes"/>
      <point x="768.6666666666666" y="202.83333333333334"/>
      <point x="871.4" y="123.36666666666666"/>
    </contour>
    <contour>
      <point x="1231.3333333333333" y="125.0" type="line"/>
      <point x="1402.9333333333334" y="125.0" type="line"/>
      <point x="1402.9333333333334" y="516.9" type="line"/>
      <point x="1532.0333333333333" y="516.9" type="line"/>
      <point x="1532.0333333333333" y="125.0" type="line"/>
      <point x="1704.0" y="125.0" type="line"/>
      <point x="1704.0" y="516.9" type="line"/>
      <point x="1801.1999999999998" y="516.9" type="line"/>
      <point x="1801.1999999999998" y="581.0666666666667" type="line"/>
      <point x="1273.2" y="581.0666666666667" type="line"/>
      <point x="1275.4" y="383.9" type="line"/>
      <point x="1231.3333333333333" y="383.9" type="line"/>
    </contour>
  </outline>
</glyph>
<glyph name="e-tamil" format="2">
  <advance width="978.6"/>
  <unicode hex="0B8E"/>
  <note>
uni0B8E
</note>
  <anchor x="508.43333333333334" y="0.0" name="bottom"/>
  <anchor x="508.43333333333334" y="0.0" name="nukta"/>
  <anchor x="512.9666666666667" y="581.0666666666667" name="top"/>
  <anchor x="511.43333333333334" y="581.0666666666667" name="vedic"/>
  <outline>
    <contour>
      <point x="286.43333333333334" y="-5.0" type="curve" smooth="yes"/>
      <point x="420.3" y="-5.0"/>
      <point x="501.26666666666665" y="62.63333333333333"/>
      <point x="501.26666666666665" y="180.7" type="curve" smooth="yes"/>
      <point x="501.26666666666665" y="274.6"/>
      <point x="439.76666666666665" y="349.6"/>
      <point x="332.46666666666664" y="349.6" type="curve" smooth="yes"/>
      <point x="197.33333333333334" y="349.6"/>
      <point x="129.66666666666666" y="236.56666666666666"/>
      <point x="130.1" y="120.80000000000001" type="curve"/>
      <point x="179.70000000000002" y="91.26666666666667" type="line"/>
      <point x="184.33333333333331" y="172.66666666666669"/>
      <point x="213.83333333333334" y="231.83333333333334"/>
      <point x="266.8666666666667" y="231.83333333333334" type="curve" smooth="yes"/>
      <point x="296.7666666666667" y="231.83333333333334"/>
      <point x="325.26666666666665" y="208.16666666666666"/>
      <point x="325.26666666666665" y="163.8" type="curve" smooth="yes"/>
      <point x="325.26666666666665" y="113.6"/>
      <point x="297.7666666666667" y="83.96666666666667"/>
      <point x="248.36666666666665" y="83.96666666666667" type="curve" smooth="yes"/>
      <point x="190.76666666666668" y="83.96666666666667"/>
      <point x="124.76666666666667" y="148.1"/>
      <point x="124.76666666666667" y="259.1" type="curve" smooth="yes"/>
      <point x="124.76666666666667" y="431.6666666666667"/>
      <point x="231.3" y="509.0"/>
      <point x="452.93333333333334" y="509.0" type="curve" smooth="yes"/>
      <point x="633.9666666666667" y="509.0" type="line"/>
      <point x="633.9666666666667" y="0.0" type="line"/>
      <point x="843.2666666666667" y="0.0" type="line"/>
      <point x="843.2666666666667" y="509.0" type="line"/>
      <point x="965.5" y="509.0" type="line"/>
      <point x="965.5" y="581.0666666666667" type="line"/>
      <point x="436.93333333333334" y="581.0666666666667" type="line" smooth="yes"/>
      <point x="186.29999999999998" y="581.0666666666667"/>
      <point x="46.43333333333333" y="470.2"/>
      <point x="46.43333333333333" y="260.1" type="curve" smooth="yes"/>
      <point x="46.43333333333333" y="113.43333333333334"/>
      <point x="141.8" y="-5.0"/>
    </contour>
  </outline>
</glyph>
<glyph name="ee-tamil" format="2">
  <advance width="978.6"/>
  <unicode hex="0B8F"/>
  <note>
uni0B8F
</note>
  <anchor x="508.43333333333334" y="0.0" name="bottom"/>
  <anchor x="508.43333333333334" y="-224.2" name="nukta"/>
  <anchor x="511.1666666666667" y="581.0666666666667" name="top"/>
  <anchor x="511.43333333333334" y="581.0666666666667" name="vedic"/>
  <outline>
    <contour>
      <point x="467.26666666666665" y="-273.6333333333333" type="line"/>
      <point x="843.2666666666667" y="29.96666666666666" type="line"/>
      <point x="843.2666666666667" y="509.0" type="line"/>
      <point x="965.5" y="509.0" type="line"/>
      <point x="965.5" y="581.0666666666667" type="line"/>
      <point x="436.93333333333334" y="581.0666666666667" type="line" smooth="yes"/>
      <point x="186.3" y="581.0666666666667"/>
      <point x="46.43333333333333" y="470.2"/>
      <point x="46.43333333333333" y="260.1" type="curve" smooth="yes"/>
      <point x="46.43333333333333" y="113.43333333333334"/>
      <point x="141.8" y="-5.0"/>
      <point x="286.43333333333334" y="-5.0" type="curve" smooth="yes"/>
      <point x="420.3" y="-5.0"/>
      <point x="501.26666666666665" y="62.63333333333333"/>
      <point x="501.26666666666665" y="180.7" type="curve" smooth="yes"/>
      <point x="501.26666666666665" y="274.6"/>
      <point x="439.76666666666665" y="349.59999999999997"/>
      <point x="332.46666666666664" y="349.59999999999997" type="curve" smooth="yes"/>
      <point x="197.33333333333334" y="349.59999999999997"/>
      <point x="129.66666666666666" y="236.56666666666666"/>
      <point x="130.1" y="120.8" type="curve"/>
      <point x="179.70000000000002" y="91.26666666666667" type="line"/>
      <point x="184.33333333333331" y="172.66666666666666"/>
      <point x="214.5666666666667" y="231.83333333333334"/>
      <point x="267.6" y="231.83333333333334" type="curve" smooth="yes"/>
      <point x="297.5" y="231.83333333333334"/>
      <point x="325.26666666666665" y="208.16666666666666"/>
      <point x="325.26666666666665" y="163.8" type="curve" smooth="yes"/>
      <point x="325.26666666666665" y="113.60000000000001"/>
      <point x="298.1333333333334" y="83.96666666666667"/>
      <point x="248.73333333333332" y="83.96666666666667" type="curve" smooth="yes"/>
      <point x="192.23333333333335" y="83.96666666666667"/>
      <point x="125.13333333333334" y="148.1"/>
      <point x="125.13333333333334" y="259.1" type="curve" smooth="yes"/>
      <point x="125.13333333333334" y="431.6666666666667"/>
      <point x="231.3" y="509.0"/>
      <point x="452.93333333333334" y="509.0" type="curve" smooth="yes"/>
      <point x="633.9666666666667" y="509.0" type="line"/>
      <point x="633.9666666666667" y="-35.96666666666667" type="line"/>
      <point x="416.1666666666667" y="-212.06666666666666" type="line"/>
    </contour>
  </outline>
</glyph>
<glyph name="ai-tamil" format="2">
  <advance width="1028.0666666666666"/>
  <unicode hex="0B90"/>
  <note>
uni0B90
</note>
  <anchor x="522.0666666666666" y="0.0" name="bottom"/>
  <anchor x="513.2" y="-333.53333333333336" name="nukta"/>
  <anchor x="523.6666666666666" y="581.0666666666667" name="top"/>
  <anchor x="521.3" y="581.0666666666667" name="vedic"/>
  <outline>
    <contour>
      <point x="296.3" y="-333.53333333333336" type="curve" smooth="yes"/>
      <point x="419.4" y="-333.53333333333336"/>
      <point x="496.9666666666667" y="-289.1333333333333"/>
      <point x="528.9333333333333" y="-194.4" type="curve"/>
      <point x="556.6333333333333" y="-297.8"/>
      <point x="653.6333333333333" y="-333.53333333333336"/>
      <point x="746.5333333333333" y="-333.53333333333336" type="curve" smooth="yes"/>
      <point x="871.9333333333334" y="-333.53333333333336"/>
      <point x="981.6333333333333" y="-272.96666666666664"/>
      <point x="981.6333333333333" y="-118.2" type="curve" smooth="yes"/>
      <point x="981.6333333333333" y="-44.03333333333333"/>
      <point x="953.4666666666667" y="15.333333333333334"/>
      <point x="911.6" y="71.33333333333334" type="curve"/>
      <point x="844.5333333333333" y="28.733333333333334" type="line"/>
      <point x="881.1333333333333" y="-22.266666666666666"/>
      <point x="898.2333333333332" y="-61.93333333333333"/>
      <point x="898.2333333333332" y="-111.3" type="curve" smooth="yes"/>
      <point x="898.2333333333332" y="-215.36666666666667"/>
      <point x="831.4000000000001" y="-256.1"/>
      <point x="753.7" y="-256.1" type="curve" smooth="yes"/>
      <point x="667.0666666666667" y="-256.1"/>
      <point x="604.5" y="-209.9"/>
      <point x="604.5" y="-94.36666666666666" type="curve" smooth="yes"/>
      <point x="604.5" y="-19.833333333333332" type="line"/>
      <point x="449.26666666666665" y="-19.833333333333332" type="line"/>
      <point x="449.26666666666665" y="-108.9" type="line" smooth="yes"/>
      <point x="449.26666666666665" y="-190.73333333333332"/>
      <point x="415.4666666666667" y="-254.46666666666667"/>
      <point x="336.20000000000005" y="-254.46666666666667" type="curve" smooth="yes"/>
      <point x="256.56666666666666" y="-254.46666666666667"/>
      <point x="230.4" y="-199.76666666666668"/>
      <point x="230.4" y="-125.63333333333334" type="curve" smooth="yes"/>
      <point x="230.4" y="-8.666666666666668"/>
      <point x="273.43333333333334" y="45.1"/>
      <point x="547.0" y="72.2" type="curve" smooth="yes"/>
      <point x="826.2333333333333" y="100.03333333333333"/>
      <point x="981.6333333333333" y="162.9"/>
      <point x="981.6333333333333" y="358.53333333333336" type="curve" smooth="yes"/>
      <point x="981.6333333333333" y="500.26666666666665"/>
      <point x="893.4000000000001" y="586.4333333333333"/>
      <point x="739.7333333333333" y="586.4333333333333" type="curve" smooth="yes"/>
      <point x="645.5666666666667" y="586.4333333333333"/>
      <point x="557.2666666666667" y="551.2666666666667"/>
      <point x="528.8333333333333" y="462.76666666666665" type="curve"/>
      <point x="494.76666666666665" y="547.2666666666667"/>
      <point x="417.4" y="586.4333333333333"/>
      <point x="305.8666666666667" y="586.4333333333333" type="curve" smooth="yes"/>
      <point x="152.89999999999998" y="586.4333333333333"/>
      <point x="51.8" y="485.1"/>
      <point x="51.8" y="344.1" type="curve" smooth="yes"/>
      <point x="51.8" y="229.46666666666667"/>
      <point x="129.0" y="150.46666666666667"/>
      <point x="235.73333333333335" y="150.46666666666667" type="curve" smooth="yes"/>
      <point x="322.83333333333337" y="150.46666666666667"/>
      <point x="392.40000000000003" y="195.46666666666667"/>
      <point x="392.40000000000003" y="285.3666666666667" type="curve" smooth="yes"/>
      <point x="392.40000000000003" y="363.0"/>
      <point x="340.5333333333333" y="409.3666666666667"/>
      <point x="268.76666666666665" y="409.3666666666667" type="curve" smooth="yes"/>
      <point x="187.46666666666667" y="409.3666666666667"/>
      <point x="124.26666666666668" y="355.8333333333333"/>
      <point x="117.63333333333333" y="227.1" type="curve"/>
      <point x="160.76666666666668" y="211.83333333333334" type="line"/>
      <point x="168.56666666666666" y="310.0"/>
      <point x="198.26666666666668" y="331.3"/>
      <point x="227.96666666666667" y="331.3" type="curve" smooth="yes"/>
      <point x="251.33333333333334" y="331.3"/>
      <point x="269.03333333333336" y="313.09999999999997"/>
      <point x="269.03333333333336" y="281.73333333333335" type="curve" smooth="yes"/>
      <point x="269.03333333333336" y="246.1"/>
      <point x="245.9" y="227.9"/>
      <point x="214.46666666666667" y="227.9" type="curve" smooth="yes"/>
      <point x="169.23333333333332" y="227.9"/>
      <point x="130.3" y="271.6333333333333"/>
      <point x="130.3" y="344.1" type="curve" smooth="yes"/>
      <point x="130.3" y="444.56666666666666"/>
      <point x="206.76666666666668" y="509.6333333333333"/>
      <point x="302.8666666666667" y="509.6333333333333" type="curve" smooth="yes"/>
      <point x="396.23333333333335" y="509.6333333333333"/>
      <point x="449.26666666666665" y="465.4"/>
      <point x="449.26666666666665" y="372.6333333333333" type="curve" smooth="yes"/>
      <point x="449.26666666666665" y="204.83333333333334" type="line"/>
      <point x="604.5" y="204.83333333333334" type="line"/>
      <point x="604.5" y="384.6333333333333" type="line" smooth="yes"/>
      <point x="604.5" y="463.5"/>
      <point x="640.1" y="507.0"/>
      <point x="701.4000000000001" y="507.0" type="curve" smooth="yes"/>
      <point x="762.0666666666667" y="507.0"/>
      <point x="797.0333333333333" y="462.9"/>
      <point x="797.0333333333333" y="368.3666666666667" type="curve" smooth="yes"/>
      <point x="797.0333333333333" y="213.8"/>
      <point x="745.8333333333334" y="150.93333333333334"/>
      <point x="437.09999999999997" y="120.36666666666666" type="curve" smooth="yes"/>
      <point x="242.96666666666667" y="101.63333333333334"/>
      <point x="46.43333333333333" y="51.3"/>
      <point x="46.43333333333333" y="-127.43333333333334" type="curve" smooth="yes"/>
      <point x="46.43333333333333" y="-260.9"/>
      <point x="141.33333333333334" y="-333.53333333333336"/>
    </contour>
  </outline>
</glyph>
<glyph name="o-tamil" format="2">
  <advance width="1098.0"/>
  <unicode hex="0B92"/>
  <note>
uni0B92
</note>
  <anchor x="537.8333333333334" y="0.0" name="bottom"/>
  <anchor x="535.8333333333334" y="-335.0" name="nukta"/>
  <anchor x="530.8333333333334" y="581.0666666666667" name="top"/>
  <anchor x="530.8333333333334" y="581.0666666666667" name="vedic"/>
  <outline>
    <contour>
      <point x="398.03333333333336" y="-367.43333333333334" type="curve" smooth="yes"/>
      <point x="638.7333333333332" y="-367.43333333333334"/>
      <point x="672.0666666666666" y="-149.9"/>
      <point x="843.3333333333334" y="-149.9" type="curve" smooth="yes"/>
      <point x="913.5333333333334" y="-149.9" type="line"/>
      <point x="913.5333333333334" y="-76.3" type="line"/>
      <point x="816.2666666666667" y="-76.3" type="line" smooth="yes"/>
      <point x="634.1" y="-76.3"/>
      <point x="555.8666666666667" y="72.3"/>
      <point x="656.3000000000001" y="236.20000000000002" type="curve"/>
      <point x="662.3000000000001" y="232.56666666666666" type="line"/>
      <point x="631.5333333333333" y="112.46666666666667"/>
      <point x="671.4333333333334" y="-2.3666666666666667"/>
      <point x="833.9333333333334" y="-2.3666666666666667" type="curve" smooth="yes"/>
      <point x="960.8" y="-2.3666666666666667"/>
      <point x="1051.5666666666668" y="70.96666666666667"/>
      <point x="1051.5666666666668" y="210.76666666666665" type="curve" smooth="yes"/>
      <point x="1051.5666666666668" y="460.40000000000003"/>
      <point x="809.0333333333333" y="587.7"/>
      <point x="508.73333333333335" y="587.7" type="curve" smooth="yes"/>
      <point x="228.9" y="587.7"/>
      <point x="46.43333333333333" y="438.6333333333333"/>
      <point x="46.43333333333333" y="249.63333333333333" type="curve" smooth="yes"/>
      <point x="46.43333333333333" y="104.63333333333334"/>
      <point x="138.63333333333335" y="-3.0999999999999996"/>
      <point x="288.3333333333333" y="-3.0999999999999996" type="curve" smooth="yes"/>
      <point x="425.3666666666667" y="-3.0999999999999996"/>
      <point x="500.0" y="74.66666666666667"/>
      <point x="500.0" y="183.23333333333332" type="curve" smooth="yes"/>
      <point x="500.0" y="281.56666666666666"/>
      <point x="436.59999999999997" y="351.5"/>
      <point x="331.8333333333333" y="351.5" type="curve" smooth="yes"/>
      <point x="199.86666666666667" y="351.5"/>
      <point x="132.83333333333334" y="236.56666666666666"/>
      <point x="127.56666666666666" y="122.7" type="curve"/>
      <point x="177.16666666666669" y="93.80000000000001" type="line"/>
      <point x="181.8" y="173.3"/>
      <point x="214.46666666666667" y="233.1"/>
      <point x="267.5" y="233.1" type="curve" smooth="yes"/>
      <point x="299.3" y="233.1"/>
      <point x="326.5333333333333" y="207.53333333333333"/>
      <point x="326.5333333333333" y="163.8" type="curve" smooth="yes"/>
      <point x="326.5333333333333" y="113.60000000000001"/>
      <point x="300.93333333333334" y="85.23333333333333"/>
      <point x="252.16666666666666" y="85.23333333333333" type="curve" smooth="yes"/>
      <point x="192.66666666666666" y="85.23333333333333"/>
      <point x="124.13333333333334" y="146.63333333333335"/>
      <point x="124.13333333333334" y="247.36666666666667" type="curve" smooth="yes"/>
      <point x="124.13333333333334" y="413.0"/>
      <point x="297.9666666666667" y="513.5333333333333"/>
      <point x="501.03333333333336" y="513.5333333333333" type="curve" smooth="yes"/>
      <point x="693.1666666666666" y="513.5333333333333"/>
      <point x="859.4333333333334" y="419.23333333333335"/>
      <point x="859.4333333333334" y="230.4" type="curve" smooth="yes"/>
      <point x="859.4333333333334" y="128.96666666666667"/>
      <point x="821.8333333333334" y="93.6"/>
      <point x="775.2333333333333" y="93.6" type="curve" smooth="yes"/>
      <point x="716.8333333333334" y="93.6"/>
      <point x="692.3000000000001" y="182.5"/>
      <point x="741.6" y="287.3666666666667" type="curve"/>
      <point x="655.3333333333334" y="338.76666666666665" type="line"/>
      <point x="482.93333333333334" y="146.46666666666667"/>
      <point x="522.3666666666667" y="-34.0"/>
      <point x="676.5" y="-100.39999999999999" type="curve"/>
      <point x="676.5" y="-105.39999999999999" type="line"/>
      <point x="517.2" y="-132.23333333333332"/>
      <point x="477.0" y="-285.1"/>
      <point x="350.6666666666667" y="-285.1" type="curve" smooth="yes"/>
      <point x="293.26666666666665" y="-285.1"/>
      <point x="255.56666666666666" y="-253.40000000000003"/>
      <point x="255.56666666666666" y="-200.43333333333334" type="curve" smooth="yes"/>
      <point x="255.56666666666666" y="-164.26666666666668"/>
      <point x="274.4666666666667" y="-137.1"/>
      <point x="314.7666666666667" y="-108.2" type="curve"/>
      <point x="273.6666666666667" y="-56.6" type="line"/>
      <point x="216.66666666666669" y="-98.76666666666667"/>
      <point x="184.23333333333335" y="-143.10000000000002"/>
      <point x="184.23333333333335" y="-198.8" type="curve" smooth="yes"/>
      <point x="184.23333333333335" y="-296.56666666666666"/>
      <point x="258.90000000000003" y="-367.43333333333334"/>
    </contour>
  </outline>
</glyph>
<glyph name="oo-tamil" format="2">
  <advance width="1098.0"/>
  <unicode hex="0B93"/>
  <note>
uni0B93
</note>
  <anchor x="547.3333333333334" y="0.0" name="bottom"/>
  <anchor x="545.3333333333334" y="-359.1" name="nukta"/>
  <anchor x="540.3333333333334" y="581.0666666666667" name="top"/>
  <anchor x="540.3333333333334" y="581.0666666666667" name="vedic"/>
  <outline>
    <contour>
      <point x="367.0" y="-399.33333333333337" type="curve" smooth="yes"/>
      <point x="656.2" y="-399.33333333333337"/>
      <point x="681.5666666666667" y="-154.33333333333334"/>
      <point x="852.8333333333334" y="-152.43333333333334" type="curve" smooth="yes"/>
      <point x="913.5333333333333" y="-151.8" type="line"/>
      <point x="913.5333333333333" y="-78.19999999999999" type="line"/>
      <point x="816.2666666666668" y="-78.19999999999999" type="line" smooth="yes"/>
      <point x="634.1" y="-78.19999999999999"/>
      <point x="555.8666666666667" y="70.39999999999999"/>
      <point x="656.3000000000001" y="234.3" type="curve"/>
      <point x="662.3000000000001" y="230.66666666666666" type="line"/>
      <point x="631.5333333333333" y="110.56666666666666"/>
      <point x="671.4333333333334" y="-4.266666666666667"/>
      <point x="833.9333333333334" y="-4.266666666666667" type="curve" smooth="yes"/>
      <point x="960.8" y="-4.266666666666667"/>
      <point x="1051.5666666666668" y="69.06666666666666"/>
      <point x="1051.5666666666668" y="208.86666666666667" type="curve" smooth="yes"/>
      <point x="1051.5666666666668" y="458.5"/>
      <point x="809.0333333333333" y="586.4333333333333"/>
      <point x="508.73333333333335" y="586.4333333333333" type="curve" smooth="yes"/>
      <point x="228.9" y="586.4333333333333"/>
      <point x="46.43333333333333" y="436.73333333333335"/>
      <point x="46.43333333333333" y="248.36666666666665" type="curve" smooth="yes"/>
      <point x="46.43333333333333" y="103.36666666666667"/>
      <point x="138.63333333333335" y="-5.0"/>
      <point x="288.3333333333333" y="-5.0" type="curve" smooth="yes"/>
      <point x="425.3666666666667" y="-5.0"/>
      <point x="500.0" y="73.4"/>
      <point x="500.0" y="181.33333333333331" type="curve" smooth="yes"/>
      <point x="500.0" y="279.6666666666667"/>
      <point x="436.59999999999997" y="349.59999999999997"/>
      <point x="331.8333333333333" y="349.59999999999997" type="curve" smooth="yes"/>
      <point x="199.86666666666667" y="349.59999999999997"/>
      <point x="132.83333333333334" y="235.29999999999998"/>
      <point x="127.56666666666666" y="121.43333333333334" type="curve"/>
      <point x="177.16666666666669" y="91.9" type="line"/>
      <point x="181.8" y="171.4"/>
      <point x="214.46666666666667" y="231.83333333333334"/>
      <point x="267.5" y="231.83333333333334" type="curve" smooth="yes"/>
      <point x="299.3" y="231.83333333333334"/>
      <point x="326.5333333333333" y="206.26666666666665"/>
      <point x="326.5333333333333" y="161.9" type="curve" smooth="yes"/>
      <point x="326.5333333333333" y="112.33333333333334"/>
      <point x="300.93333333333334" y="83.96666666666667"/>
      <point x="252.16666666666666" y="83.96666666666667" type="curve" smooth="yes"/>
      <point x="192.66666666666666" y="83.96666666666667"/>
      <point x="124.13333333333334" y="145.36666666666667"/>
      <point x="124.13333333333334" y="245.46666666666667" type="curve" smooth="yes"/>
      <point x="124.13333333333334" y="411.1"/>
      <point x="297.9666666666667" y="512.2666666666667"/>
      <point x="501.03333333333336" y="512.2666666666667" type="curve" smooth="yes"/>
      <point x="693.1666666666666" y="512.2666666666667"/>
      <point x="859.4333333333334" y="417.96666666666664"/>
      <point x="859.4333333333334" y="228.5" type="curve" smooth="yes"/>
      <point x="859.4333333333334" y="127.69999999999999"/>
      <point x="821.8333333333334" y="92.33333333333333"/>
      <point x="775.2333333333333" y="92.33333333333333" type="curve" smooth="yes"/>
      <point x="716.8333333333334" y="92.33333333333333"/>
      <point x="692.3000000000001" y="181.23333333333332"/>
      <point x="741.6" y="285.46666666666664" type="curve"/>
      <point x="655.3333333333334" y="337.5" type="line"/>
      <point x="482.93333333333334" y="145.20000000000002"/>
      <point x="521.7333333333333" y="-36.53333333333333"/>
      <point x="679.0333333333333" y="-102.93333333333332" type="curve"/>
      <point x="679.0333333333333" y="-107.93333333333332" type="line"/>
      <point x="545.0666666666667" y="-129.7"/>
      <point x="478.06666666666666" y="-317.73333333333335"/>
      <point x="325.4" y="-317.73333333333335" type="curve" smooth="yes"/>
      <point x="249.23333333333335" y="-317.73333333333335"/>
      <point x="207.26666666666668" y="-279.59999999999997"/>
      <point x="207.26666666666668" y="-224.46666666666667" type="curve" smooth="yes"/>
      <point x="207.26666666666668" y="-178.33333333333331"/>
      <point x="238.96666666666667" y="-147.8"/>
      <point x="277.93333333333334" y="-147.8" type="curve" smooth="yes"/>
      <point x="323.06666666666666" y="-147.8"/>
      <point x="356.8333333333333" y="-178.2"/>
      <point x="367.56666666666666" y="-233.06666666666666" type="curve"/>
      <point x="404.0" y="-218.16666666666666"/>
      <point x="439.3" y="-190.46666666666667"/>
      <point x="439.3" y="-141.26666666666668" type="curve" smooth="yes"/>
      <point x="439.3" y="-84.23333333333333"/>
      <point x="379.3666666666667" y="-50.8"/>
      <point x="313.76666666666665" y="-50.8" type="curve" smooth="yes"/>
      <point x="202.70000000000002" y="-50.8"/>
      <point x="137.66666666666666" y="-130.46666666666667"/>
      <point x="137.66666666666666" y="-215.5" type="curve" smooth="yes"/>
      <point x="137.66666666666666" y="-335.3666666666667"/>
      <point x="233.03333333333333" y="-399.33333333333337"/>
    </contour>
  </outline>
</glyph>
<glyph name="au-tamil" format="2">
  <advance width="2416.9"/>
  <unicode hex="0B94"/>
  <note>
uni0B94
</note>
  <anchor x="1233.8333333333333" y="0.0" name="bottom"/>
  <anchor x="1338.2" y="0.0" name="nukta"/>
  <anchor x="1227.2" y="581.0666666666667" name="top"/>
  <anchor x="1227.2" y="581.0666666666667" name="vedic"/>
  <outline>
    <contour>
      <point x="1357.2666666666667" y="-5.0" type="curve" smooth="yes"/>
      <point x="1490.7666666666669" y="-5.0"/>
      <point x="1572.7333333333333" y="62.63333333333333"/>
      <point x="1572.7333333333333" y="180.7" type="curve" smooth="yes"/>
      <point x="1572.7333333333333" y="274.6"/>
      <point x="1510.6" y="349.59999999999997"/>
      <point x="1403.3" y="349.59999999999997" type="curve" smooth="yes"/>
      <point x="1268.8" y="349.59999999999997"/>
      <point x="1201.1333333333332" y="236.56666666666666"/>
      <point x="1201.5666666666666" y="120.8" type="curve"/>
      <point x="1251.1666666666667" y="91.26666666666667" type="line"/>
      <point x="1255.8" y="172.66666666666666"/>
      <point x="1284.6666666666665" y="231.83333333333334"/>
      <point x="1337.7" y="231.83333333333334" type="curve" smooth="yes"/>
      <point x="1367.8666666666668" y="231.83333333333334"/>
      <point x="1396.1000000000001" y="208.16666666666666"/>
      <point x="1396.1000000000001" y="163.8" type="curve" smooth="yes"/>
      <point x="1396.1000000000001" y="113.60000000000001"/>
      <point x="1368.8666666666666" y="83.96666666666667"/>
      <point x="1319.2" y="83.96666666666667" type="curve" smooth="yes"/>
      <point x="1261.8666666666666" y="83.96666666666667"/>
      <point x="1195.6000000000001" y="148.1"/>
      <point x="1195.6000000000001" y="259.1" type="curve" smooth="yes"/>
      <point x="1195.6000000000001" y="413.73333333333335"/>
      <point x="1304.4333333333334" y="503.53333333333336"/>
      <point x="1445.1333333333332" y="503.53333333333336" type="curve" smooth="yes"/>
      <point x="1604.2666666666669" y="503.53333333333336"/>
      <point x="1700.0" y="412.2"/>
      <point x="1700.0" y="280.03333333333336" type="curve"/>
      <point x="1780.9333333333334" y="297.3" type="line"/>
      <point x="1766.7666666666667" y="503.16666666666663"/>
      <point x="1606.8000000000002" y="585.4333333333333"/>
      <point x="1450.7333333333333" y="585.4333333333333" type="curve" smooth="yes"/>
      <point x="1241.8333333333333" y="585.4333333333333"/>
      <point x="1117.2666666666667" y="452.06666666666666"/>
      <point x="1117.2666666666667" y="260.1" type="curve" smooth="yes"/>
      <point x="1117.2666666666667" y="113.43333333333334"/>
      <point x="1213.2666666666667" y="-5.0"/>
    </contour>
    <contour>
      <point x="1700.0" y="0.0" type="line"/>
      <point x="1907.3999999999999" y="0.0" type="line"/>
      <point x="1907.3999999999999" y="509.0" type="line"/>
      <point x="2071.366666666667" y="509.0" type="line"/>
      <point x="2071.366666666667" y="0.0" type="line"/>
      <point x="2278.766666666667" y="0.0" type="line"/>
      <point x="2278.766666666667" y="509.0" type="line"/>
      <point x="2403.8" y="509.0" type="line"/>
      <point x="2403.8" y="581.0666666666667" type="line"/>
      <point x="1752.2333333333333" y="581.0666666666667" type="line"/>
      <point x="1752.2333333333333" y="324.76666666666665" type="line"/>
      <point x="1700.0" y="346.6666666666667" type="line"/>
    </contour>
    <component base="o-tamil"/>
  </outline>
</glyph>
<glyph name="ka-tamil" format="2">
  <advance width="907.8333333333334"/>
  <unicode hex="0B95"/>
  <note>
uni0B95
</note>
  <anchor x="441.23333333333335" y="0.0" name="bottom"/>
  <anchor x="632.2" y="581.0666666666667" name="imatra"/>
  <anchor x="441.23333333333335" y="0.0" name="nukta"/>
  <anchor x="473.56666666666666" y="581.0666666666667" name="top"/>
  <anchor x="460.03333333333336" y="581.0666666666667" name="vedic"/>
  <outline>
    <contour>
      <point x="282.6333333333333" y="-4.0" type="curve" smooth="yes"/>
      <point x="460.2666666666667" y="-4.0"/>
      <point x="561.2333333333333" y="89.06666666666666"/>
      <point x="561.2333333333333" y="226.43333333333334" type="curve" smooth="yes"/>
      <point x="561.2333333333333" y="272.3666666666667" type="line"/>
      <point x="585.1" y="272.3666666666667" type="line" smooth="yes"/>
      <point x="641.2" y="272.3666666666667"/>
      <point x="670.0666666666667" y="238.06666666666666"/>
      <point x="670.0666666666667" y="167.16666666666666" type="curve" smooth="yes"/>
      <point x="670.0666666666667" y="97.0"/>
      <point x="629.8333333333334" y="68.7"/>
      <point x="587.5" y="68.7" type="curve" smooth="yes"/>
      <point x="572.7" y="68.7" type="line"/>
      <point x="572.7" y="-4.0" type="line"/>
      <point x="643.9333333333333" y="-4.0" type="line" smooth="yes"/>
      <point x="764.9333333333333" y="-4.0"/>
      <point x="862.5" y="44.53333333333333"/>
      <point x="862.5" y="170.8" type="curve" smooth="yes"/>
      <point x="862.5" y="300.23333333333335"/>
      <point x="751.4333333333333" y="345.06666666666666"/>
      <point x="598.4666666666667" y="345.06666666666666" type="curve" smooth="yes"/>
      <point x="561.2333333333333" y="345.06666666666666" type="line"/>
      <point x="561.2333333333333" y="508.3666666666667" type="line"/>
      <point x="704.6666666666667" y="508.3666666666667" type="line"/>
      <point x="704.6666666666667" y="581.0666666666667" type="line"/>
      <point x="153.33333333333334" y="581.0666666666667" type="line"/>
      <point x="153.33333333333334" y="307.43333333333334" type="line"/>
      <point x="232.83333333333331" y="307.43333333333334" type="line"/>
      <point x="232.83333333333331" y="508.3666666666667" type="line"/>
      <point x="356.16666666666663" y="508.3666666666667" type="line"/>
      <point x="356.16666666666663" y="345.06666666666666" type="line"/>
      <point x="232.53333333333333" y="345.06666666666666" type="line" smooth="yes"/>
      <point x="136.0" y="345.06666666666666"/>
      <point x="49.233333333333334" y="279.7"/>
      <point x="49.233333333333334" y="181.8" type="curve" smooth="yes"/>
      <point x="49.233333333333334" y="75.8"/>
      <point x="120.56666666666668" y="-4.0"/>
    </contour>
    <contour>
      <point x="230.93333333333334" y="81.16666666666667" type="curve" smooth="yes"/>
      <point x="171.0" y="81.16666666666667"/>
      <point x="124.93333333333332" y="115.53333333333333"/>
      <point x="124.93333333333332" y="178.53333333333333" type="curve" smooth="yes"/>
      <point x="124.93333333333332" y="233.53333333333333"/>
      <point x="159.8" y="272.3666666666667"/>
      <point x="232.63333333333333" y="272.3666666666667" type="curve" smooth="yes"/>
      <point x="356.16666666666663" y="272.3666666666667" type="line"/>
      <point x="356.16666666666663" y="215.06666666666666" type="line" smooth="yes"/>
      <point x="356.16666666666663" y="122.39999999999999"/>
      <point x="308.66666666666663" y="81.16666666666667"/>
    </contour>
  </outline>
</glyph>
<glyph name="nga-tamil" format="2">
  <advance width="1054.3666666666666"/>
  <unicode hex="0B99"/>
  <note>
uni0B99
</note>
  <anchor x="516.6" y="0.0" name="bottom"/>
  <anchor x="576.1" y="581.0666666666667" name="imatra"/>
  <anchor x="519.9666666666667" y="0.0" name="nukta"/>
  <anchor x="552.8666666666667" y="581.0666666666667" name="top"/>
  <anchor x="525.7666666666668" y="581.0666666666667" name="vedic"/>
  <outline>
    <contour>
      <point x="67.13333333333333" y="0.0" type="line"/>
      <point x="149.9" y="0.0" type="line"/>
      <point x="149.9" y="509.0" type="line"/>
      <point x="265.66666666666663" y="509.0" type="line"/>
      <point x="265.66666666666663" y="175.0" type="line"/>
      <point x="453.2666666666667" y="175.0" type="line"/>
      <point x="453.2666666666667" y="238.86666666666665" type="line" smooth="yes"/>
      <point x="453.2666666666667" y="264.03333333333336"/>
      <point x="465.7" y="283.56666666666666"/>
      <point x="490.40000000000003" y="283.56666666666666" type="curve" smooth="yes"/>
      <point x="519.3666666666667" y="283.56666666666666"/>
      <point x="532.2666666666667" y="259.1333333333333"/>
      <point x="532.2666666666667" y="208.96666666666667" type="curve" smooth="yes"/>
      <point x="532.2666666666667" y="128.4"/>
      <point x="484.3666666666667" y="72.06666666666666"/>
      <point x="392.6333333333333" y="72.06666666666666" type="curve" smooth="yes"/>
      <point x="265.66666666666663" y="72.06666666666666" type="line"/>
      <point x="265.66666666666663" y="0.0" type="line"/>
      <point x="987.2333333333332" y="0.0" type="line"/>
      <point x="987.2333333333332" y="581.0666666666667" type="line"/>
      <point x="783.2666666666667" y="581.0666666666667" type="line"/>
      <point x="783.2666666666667" y="72.06666666666666" type="line"/>
      <point x="573.6333333333333" y="72.06666666666666" type="line"/>
      <point x="659.6333333333333" y="97.8"/>
      <point x="721.5" y="160.36666666666667"/>
      <point x="721.5" y="252.0" type="curve" smooth="yes"/>
      <point x="721.5" y="341.56666666666666"/>
      <point x="669.3666666666667" y="399.9"/>
      <point x="577.6333333333333" y="399.9" type="curve" smooth="yes"/>
      <point x="517.7666666666667" y="399.9"/>
      <point x="482.43333333333334" y="370.90000000000003"/>
      <point x="458.6333333333333" y="339.8" type="curve"/>
      <point x="458.6333333333333" y="509.0" type="line"/>
      <point x="610.3333333333334" y="509.0" type="line"/>
      <point x="610.3333333333334" y="581.0666666666667" type="line"/>
      <point x="67.13333333333333" y="581.0666666666667" type="line"/>
    </contour>
  </outline>
</glyph>
<glyph name="ca-tamil" format="2">
  <advance width="751.3666666666667"/>
  <unicode hex="0B9A"/>
  <note>
uni0B9A
</note>
  <anchor x="379.3333333333333" y="0.0" name="bottom"/>
  <anchor x="569.0333333333334" y="581.0666666666667" name="imatra"/>
  <anchor x="380.03333333333336" y="0.0" name="nukta"/>
  <anchor x="442.8333333333333" y="581.0666666666667" name="top"/>
  <anchor x="426.83333333333337" y="581.0666666666667" name="vedic"/>
  <outline>
    <contour>
      <point x="282.0" y="-4.0" type="curve" smooth="yes"/>
      <point x="465.33333333333337" y="-4.0"/>
      <point x="560.8666666666667" y="94.13333333333334"/>
      <point x="560.8666666666667" y="231.5" type="curve" smooth="yes"/>
      <point x="560.8666666666667" y="272.3666666666667" type="line"/>
      <point x="702.7666666666667" y="272.3666666666667" type="line"/>
      <point x="702.7666666666667" y="345.06666666666666" type="line"/>
      <point x="560.8666666666667" y="345.06666666666666" type="line"/>
      <point x="560.8666666666667" y="508.3666666666667" type="line"/>
      <point x="702.7666666666667" y="508.3666666666667" type="line"/>
      <point x="702.7666666666667" y="581.0666666666667" type="line"/>
      <point x="153.33333333333334" y="581.0666666666667" type="line"/>
      <point x="153.33333333333334" y="299.8333333333333" type="line"/>
      <point x="232.83333333333331" y="299.8333333333333" type="line"/>
      <point x="232.83333333333331" y="508.3666666666667" type="line"/>
      <point x="356.9" y="508.3666666666667" type="line"/>
      <point x="356.9" y="345.06666666666666" type="line"/>
      <point x="234.43333333333334" y="345.06666666666666" type="line" smooth="yes"/>
      <point x="135.36666666666667" y="345.06666666666666"/>
      <point x="49.233333333333334" y="282.23333333333335"/>
      <point x="49.233333333333334" y="181.8" type="curve" smooth="yes"/>
      <point x="49.233333333333334" y="75.8"/>
      <point x="119.30000000000001" y="-4.0"/>
    </contour>
    <contour>
      <point x="230.93333333333334" y="81.16666666666667" type="curve" smooth="yes"/>
      <point x="171.0" y="81.16666666666667"/>
      <point x="124.93333333333334" y="115.53333333333333"/>
      <point x="124.93333333333334" y="178.53333333333333" type="curve" smooth="yes"/>
      <point x="124.93333333333334" y="233.53333333333333"/>
      <point x="161.70000000000002" y="272.3666666666667"/>
      <point x="234.53333333333333" y="272.3666666666667" type="curve" smooth="yes"/>
      <point x="356.9" y="272.3666666666667" type="line"/>
      <point x="356.9" y="215.06666666666666" type="line" smooth="yes"/>
      <point x="356.9" y="122.4"/>
      <point x="308.66666666666663" y="81.16666666666667"/>
    </contour>
  </outline>
</glyph>
<glyph name="tta-tamil" format="2">
  <advance width="933.4666666666667"/>
  <unicode hex="0B9F"/>
  <note>
uni0B9F
</note>
  <anchor x="472.73333333333335" y="0.0" name="bottom"/>
  <anchor x="472.73333333333335" y="0.0" name="nukta"/>
  <anchor x="501.46666666666664" y="581.0666666666667" name="top"/>
  <anchor x="496.7" y="581.0666666666667" name="vedic"/>
  <outline>
    <contour>
      <point x="67.13333333333333" y="0.0" type="line"/>
      <point x="926.2666666666667" y="0.0" type="line"/>
      <point x="926.2666666666667" y="72.06666666666666" type="line"/>
      <point x="270.1" y="72.06666666666666" type="line"/>
      <point x="270.1" y="581.0666666666667" type="line"/>
      <point x="67.13333333333333" y="581.0666666666667" type="line"/>
    </contour>
  </outline>
</glyph>
<glyph name="ta-tamil" format="2">
  <advance width="911.5333333333333"/>
  <unicode hex="0BA4"/>
  <note>
uni0BA4
</note>
  <anchor x="436.96666666666664" y="0.0" name="bottom"/>
  <anchor x="582.4666666666667" y="581.0666666666667" name="imatra"/>
  <anchor x="530.0333333333333" y="-134.63333333333333" name="nukta"/>
  <anchor x="460.0333333333333" y="581.0666666666667" name="top"/>
  <anchor x="469.3333333333333" y="581.0666666666667" name="vedic"/>
  <outline>
    <contour>
      <point x="203.73333333333335" y="-303.23333333333335" type="curve"/>
      <point x="203.73333333333335" y="-193.9"/>
      <point x="232.7" y="-130.26666666666668"/>
      <point x="359.6" y="-130.26666666666668" type="curve" smooth="yes"/>
      <point x="532.4666666666667" y="-130.26666666666668" type="line" smooth="yes"/>
      <point x="703.3333333333334" y="-130.26666666666668"/>
      <point x="865.4666666666667" y="-74.03333333333333"/>
      <point x="865.4666666666667" y="107.39999999999999" type="curve" smooth="yes"/>
      <point x="865.4666666666667" y="284.6666666666667"/>
      <point x="734.6666666666666" y="345.06666666666666"/>
      <point x="584.6" y="345.06666666666666" type="curve" smooth="yes"/>
      <point x="561.2333333333333" y="345.06666666666666" type="line"/>
      <point x="561.2333333333333" y="508.3666666666667" type="line"/>
      <point x="705.3000000000001" y="508.3666666666667" type="line"/>
      <point x="705.3000000000001" y="581.0666666666667" type="line"/>
      <point x="153.96666666666667" y="581.0666666666667" type="line"/>
      <point x="153.96666666666667" y="301.73333333333335" type="line"/>
      <point x="233.46666666666667" y="301.73333333333335" type="line"/>
      <point x="233.46666666666667" y="508.3666666666667" type="line"/>
      <point x="356.16666666666663" y="508.3666666666667" type="line"/>
      <point x="356.16666666666663" y="345.06666666666666" type="line"/>
      <point x="236.96666666666667" y="345.06666666666666" type="line" smooth="yes"/>
      <point x="137.26666666666665" y="345.06666666666666"/>
      <point x="49.233333333333334" y="285.4"/>
      <point x="49.233333333333334" y="184.33333333333334" type="curve" smooth="yes"/>
      <point x="49.233333333333334" y="78.96666666666667"/>
      <point x="121.2" y="-4.0"/>
      <point x="283.90000000000003" y="-4.0" type="curve" smooth="yes"/>
      <point x="460.90000000000003" y="-4.0"/>
      <point x="561.2333333333333" y="90.96666666666667"/>
      <point x="561.2333333333333" y="228.33333333333334" type="curve" smooth="yes"/>
      <point x="561.2333333333333" y="274.26666666666665" type="line"/>
      <point x="570.6" y="274.26666666666665" type="line" smooth="yes"/>
      <point x="617.9333333333334" y="274.26666666666665"/>
      <point x="675.7" y="231.36666666666665"/>
      <point x="675.7" y="117.86666666666666" type="curve" smooth="yes"/>
      <point x="675.7" y="-16.7"/>
      <point x="592.4666666666667" y="-67.2"/>
      <point x="442.9" y="-67.2" type="curve" smooth="yes"/>
      <point x="291.83333333333337" y="-67.2" type="line" smooth="yes"/>
      <point x="164.20000000000002" y="-67.2"/>
      <point x="49.3" y="-88.83333333333333"/>
      <point x="49.3" y="-193.53333333333333" type="curve" smooth="yes"/>
      <point x="49.3" y="-268.3333333333333"/>
      <point x="112.43333333333334" y="-303.23333333333335"/>
    </contour>
    <contour>
      <point x="230.93333333333334" y="81.16666666666667" type="curve" smooth="yes"/>
      <point x="164.66666666666666" y="81.16666666666667"/>
      <point x="124.93333333333334" y="118.7"/>
      <point x="124.93333333333334" y="181.7" type="curve" smooth="yes"/>
      <point x="124.93333333333334" y="241.76666666666668"/>
      <point x="164.23333333333335" y="272.3666666666667"/>
      <point x="236.43333333333334" y="272.3666666666667" type="curve" smooth="yes"/>
      <point x="356.16666666666663" y="272.3666666666667" type="line"/>
      <point x="356.16666666666663" y="215.06666666666666" type="line" smooth="yes"/>
      <point x="355.5333333333333" y="122.4"/>
      <point x="309.29999999999995" y="81.16666666666667"/>
    </contour>
  </outline>
</glyph>
<glyph name="pa-tamil" format="2">
  <advance width="928.3666666666667"/>
  <unicode hex="0BAA"/>
  <note>
uni0BAA
</note>
  <anchor x="469.6333333333333" y="0.0" name="bottom"/>
  <anchor x="851.9666666666667" y="581.0666666666667" name="imatra"/>
  <anchor x="469.6333333333333" y="0.0" name="nukta"/>
  <anchor x="472.0" y="581.0666666666667" name="top"/>
  <anchor x="466.1666666666667" y="581.0666666666667" name="vedic"/>
  <outline>
    <contour>
      <point x="67.13333333333333" y="0.0" type="line"/>
      <point x="861.2333333333333" y="0.0" type="line"/>
      <point x="861.2333333333333" y="581.0666666666667" type="line"/>
      <point x="659.0" y="581.0666666666667" type="line"/>
      <point x="659.0" y="72.06666666666666" type="line"/>
      <point x="271.3666666666667" y="72.06666666666666" type="line"/>
      <point x="271.3666666666667" y="581.0666666666667" type="line"/>
      <point x="67.13333333333333" y="581.0666666666667" type="line"/>
    </contour>
  </outline>
</glyph>
<glyph name="ma-tamil" format="2">
  <advance width="921.7666666666667"/>
  <unicode hex="0BAE"/>
  <note>
uni0BAE
</note>
  <anchor x="448.1333333333334" y="0.0" name="bottom"/>
  <anchor x="862.4333333333333" y="581.0666666666667" name="imatra"/>
  <anchor x="449.1333333333334" y="0.0" name="nukta"/>
  <anchor x="450.53333333333336" y="581.0666666666667" name="top"/>
  <anchor x="471.66666666666663" y="581.0666666666667" name="vedic"/>
  <outline>
    <contour>
      <point x="67.13333333333333" y="0.0" type="line"/>
      <point x="702.7333333333333" y="0.0" type="line" smooth="yes"/>
      <point x="808.3666666666667" y="0.0"/>
      <point x="871.7" y="76.5"/>
      <point x="871.7" y="233.0" type="curve" smooth="yes"/>
      <point x="871.7" y="454.3333333333333"/>
      <point x="777.3333333333334" y="586.4333333333333"/>
      <point x="617.6666666666666" y="586.4333333333333" type="curve" smooth="yes"/>
      <point x="474.7" y="586.4333333333333"/>
      <point x="421.5" y="508.53333333333336"/>
      <point x="421.5" y="383.1666666666667" type="curve" smooth="yes"/>
      <point x="421.5" y="72.06666666666666" type="line"/>
      <point x="270.73333333333335" y="72.06666666666666" type="line"/>
      <point x="270.73333333333335" y="581.0666666666667" type="line"/>
      <point x="67.13333333333333" y="581.0666666666667" type="line"/>
    </contour>
    <contour>
      <point x="626.1" y="72.06666666666666" type="line"/>
      <point x="626.1" y="392.33333333333337" type="line" smooth="yes"/>
      <point x="626.1" y="464.6333333333333"/>
      <point x="633.8333333333333" y="493.5"/>
      <point x="673.1333333333333" y="493.5" type="curve" smooth="yes"/>
      <point x="728.4333333333334" y="493.5"/>
      <point x="795.2666666666667" y="412.2333333333333"/>
      <point x="795.2666666666667" y="236.0" type="curve" smooth="yes"/>
      <point x="795.2666666666667" y="119.5"/>
      <point x="762.9333333333334" y="72.06666666666666"/>
      <point x="698.4666666666667" y="72.06666666666666" type="curve" smooth="yes"/>
    </contour>
  </outline>
</glyph>
<glyph name="ya-tamil" format="2">
  <advance width="1052.7333333333333"/>
  <unicode hex="0BAF"/>
  <note>
uni0BAF
</note>
  <anchor x="526.9666666666667" y="0.0" name="bottom"/>
  <anchor x="977.8000000000001" y="581.0666666666667" name="imatra"/>
  <anchor x="522.6" y="0.0" name="nukta"/>
  <anchor x="501.9" y="581.0666666666667" name="top"/>
  <anchor x="524.9666666666666" y="581.0666666666667" name="vedic"/>
  <outline>
    <contour>
      <point x="240.8" y="-12.633333333333333" type="curve" smooth="yes"/>
      <point x="314.9" y="-12.633333333333333"/>
      <point x="358.7" y="12.9"/>
      <point x="397.7666666666667" y="61.63333333333333" type="curve"/>
      <point x="397.7666666666667" y="0.0" type="line"/>
      <point x="985.6" y="0.0" type="line"/>
      <point x="985.6" y="581.0666666666667" type="line"/>
      <point x="781.6333333333333" y="581.0666666666667" type="line"/>
      <point x="781.6333333333333" y="72.06666666666666" type="line"/>
      <point x="571.5666666666667" y="72.06666666666666" type="line"/>
      <point x="571.5666666666667" y="581.0666666666667" type="line"/>
      <point x="375.6" y="581.0666666666667" type="line"/>
      <point x="375.6" y="142.7" type="line" smooth="yes"/>
      <point x="375.6" y="104.33333333333333"/>
      <point x="348.2666666666667" y="83.7"/>
      <point x="318.93333333333334" y="83.7" type="curve" smooth="yes"/>
      <point x="284.33333333333337" y="83.7"/>
      <point x="265.3666666666667" y="97.6"/>
      <point x="265.3666666666667" y="147.33333333333331" type="curve" smooth="yes"/>
      <point x="265.3666666666667" y="581.0666666666667" type="line"/>
      <point x="62.13333333333333" y="581.0666666666667" type="line"/>
      <point x="62.13333333333333" y="170.39999999999998" type="line" smooth="yes"/>
      <point x="62.13333333333333" y="51.86666666666667"/>
      <point x="137.16666666666669" y="-12.633333333333333"/>
    </contour>
  </outline>
</glyph>
<glyph name="ra-tamil" format="2">
  <advance width="652.6666666666666"/>
  <unicode hex="0BB0"/>
  <note>
uni0BB0
</note>
  <anchor x="317.73333333333335" y="0.0" name="bottom"/>
  <anchor x="565.5666666666667" y="581.0666666666667" name="imatra"/>
  <anchor x="317.73333333333335" y="-260.5" name="nukta"/>
  <anchor x="338.0" y="581.0666666666667" name="top"/>
  <anchor x="352.43333333333334" y="581.0666666666667" name="vedic"/>
  <outline>
    <contour>
      <point x="141.06666666666666" y="-273.0" type="line"/>
      <point x="516.7" y="29.866666666666664" type="line"/>
      <point x="516.7" y="509.0" type="line"/>
      <point x="639.5666666666667" y="509.0" type="line"/>
      <point x="639.5666666666667" y="581.0666666666667" type="line"/>
      <point x="70.3" y="581.0666666666667" type="line"/>
      <point x="70.3" y="0.0" type="line"/>
      <point x="149.9" y="0.0" type="line"/>
      <point x="149.9" y="509.0" type="line"/>
      <point x="314.3666666666667" y="509.0" type="line"/>
      <point x="314.3666666666667" y="-32.63333333333333" type="line"/>
      <point x="90.6" y="-211.43333333333334" type="line"/>
    </contour>
  </outline>
</glyph>
<glyph name="rra-tamil" format="2">
  <advance width="951.8333333333333"/>
  <unicode hex="0BB1"/>
  <note>
uni0BB1
</note>
  <anchor x="534.1" y="0.0" name="bottom"/>
  <anchor x="562.6333333333333" y="-113.33333333333333" name="nukta"/>
  <anchor x="514.2666666666668" y="585.5" name="top"/>
  <anchor x="491.9" y="581.0666666666667" name="vedic"/>
  <outline>
    <contour>
      <point x="219.56666666666666" y="-306.8666666666667" type="curve"/>
      <point x="219.56666666666666" y="-209.43333333333334"/>
      <point x="245.7" y="-134.9"/>
      <point x="374.8" y="-134.9" type="curve" smooth="yes"/>
      <point x="509.50000000000006" y="-134.9" type="line" smooth="yes"/>
      <point x="699.8" y="-134.9"/>
      <point x="919.6666666666666" y="-44.96666666666667"/>
      <point x="919.6666666666666" y="250.23333333333332" type="curve" smooth="yes"/>
      <point x="919.6666666666666" y="464.4"/>
      <point x="805.5333333333333" y="587.7"/>
      <point x="625.5" y="587.7" type="curve" smooth="yes"/>
      <point x="520.8666666666667" y="587.7"/>
      <point x="438.3" y="542.3"/>
      <point x="412.76666666666665" y="453.1" type="curve"/>
      <point x="391.1333333333333" y="542.3000000000001"/>
      <point x="331.26666666666665" y="586.7"/>
      <point x="241.26666666666665" y="586.7" type="curve" smooth="yes"/>
      <point x="139.16666666666666" y="586.7"/>
      <point x="74.3" y="515.7666666666668"/>
      <point x="74.3" y="407.73333333333335" type="curve" smooth="yes"/>
      <point x="74.3" y="0.0" type="line"/>
      <point x="155.8" y="0.0" type="line"/>
      <point x="155.8" y="398.73333333333335" type="line" smooth="yes"/>
      <point x="155.8" y="470.76666666666665"/>
      <point x="179.86666666666667" y="506.9"/>
      <point x="229.26666666666665" y="506.9" type="curve" smooth="yes"/>
      <point x="284.66666666666663" y="506.9"/>
      <point x="306.09999999999997" y="465.76666666666665"/>
      <point x="306.09999999999997" y="397.73333333333335" type="curve" smooth="yes"/>
      <point x="306.09999999999997" y="0.0" type="line"/>
      <point x="514.8" y="0.0" type="line"/>
      <point x="514.8" y="385.73333333333335" type="line" smooth="yes"/>
      <point x="514.8" y="467.5"/>
      <point x="543.4000000000001" y="507.26666666666665"/>
      <point x="600.1666666666666" y="507.26666666666665" type="curve" smooth="yes"/>
      <point x="672.9333333333334" y="507.26666666666665"/>
      <point x="708.4333333333333" y="431.0333333333333"/>
      <point x="708.4333333333333" y="268.5" type="curve" smooth="yes"/>
      <point x="708.4333333333333" y="15.166666666666666"/>
      <point x="657.8000000000001" y="-72.46666666666667"/>
      <point x="459.03333333333336" y="-72.46666666666667" type="curve" smooth="yes"/>
      <point x="307.0333333333333" y="-72.46666666666667" type="line" smooth="yes"/>
      <point x="179.66666666666669" y="-72.46666666666667"/>
      <point x="64.76666666666667" y="-95.73333333333333"/>
      <point x="64.76666666666667" y="-201.43333333333334" type="curve" smooth="yes"/>
      <point x="64.76666666666667" y="-277.03333333333336"/>
      <point x="126.89999999999999" y="-306.8666666666667"/>
    </contour>
  </outline>
</glyph>
<glyph name="la-tamil" format="2">
  <advance width="1113.5"/>
  <unicode hex="0BB2"/>
  <note>
uni0BB2
</note>
  <anchor x="550.4666666666666" y="0.0" name="bottom"/>
  <anchor x="547.4666666666666" y="0.0" name="nukta"/>
  <anchor x="538.3666666666667" y="581.0666666666667" name="top"/>
  <anchor x="552.8333333333333" y="581.0666666666667" name="vedic"/>
  <outline>
    <contour>
      <point x="286.43333333333334" y="-5.0" type="curve" smooth="yes"/>
      <point x="420.3" y="-5.0"/>
      <point x="501.26666666666665" y="65.80000000000001"/>
      <point x="501.26666666666665" y="183.86666666666665" type="curve" smooth="yes"/>
      <point x="501.26666666666665" y="277.7666666666667"/>
      <point x="439.76666666666665" y="349.59999999999997"/>
      <point x="332.46666666666664" y="349.59999999999997" type="curve" smooth="yes"/>
      <point x="197.33333333333331" y="349.59999999999997"/>
      <point x="129.66666666666669" y="236.56666666666666"/>
      <point x="130.10000000000002" y="120.8" type="curve"/>
      <point x="179.7" y="91.26666666666667" type="line"/>
      <point x="184.33333333333334" y="172.66666666666666"/>
      <point x="213.83333333333334" y="231.83333333333334"/>
      <point x="266.8666666666667" y="231.83333333333334" type="curve" smooth="yes"/>
      <point x="296.76666666666665" y="231.83333333333334"/>
      <point x="325.26666666666665" y="208.16666666666666"/>
      <point x="325.26666666666665" y="163.8" type="curve" smooth="yes"/>
      <point x="325.26666666666665" y="113.60000000000001"/>
      <point x="297.7666666666667" y="83.96666666666667"/>
      <point x="248.36666666666667" y="83.96666666666667" type="curve" smooth="yes"/>
      <point x="190.76666666666665" y="83.96666666666667"/>
      <point x="124.76666666666667" y="148.1"/>
      <point x="124.76666666666667" y="259.09999999999997" type="curve" smooth="yes"/>
      <point x="124.76666666666667" y="413.73333333333335"/>
      <point x="219.70000000000002" y="502.73333333333335"/>
      <point x="362.4666666666667" y="502.73333333333335" type="curve" smooth="yes"/>
      <point x="527.2333333333333" y="502.73333333333335"/>
      <point x="586.2666666666667" y="396.33333333333337"/>
      <point x="586.2666666666667" y="270.6" type="curve" smooth="yes"/>
      <point x="586.2666666666667" y="199.86666666666667" type="line" smooth="yes"/>
      <point x="586.2666666666667" y="74.39999999999999"/>
      <point x="654.0666666666667" y="-5.0"/>
      <point x="801.5" y="-5.0" type="curve" smooth="yes"/>
      <point x="962.2666666666668" y="-5.0"/>
      <point x="1062.0666666666666" y="114.46666666666667"/>
      <point x="1062.0666666666666" y="310.3333333333333" type="curve" smooth="yes"/>
      <point x="1062.0666666666666" y="406.3666666666667"/>
      <point x="1027.9" y="492.43333333333334"/>
      <point x="960.5" y="584.8" type="curve"/>
      <point x="894.7" y="541.8333333333333" type="line"/>
      <point x="954.4666666666667" y="458.83333333333337"/>
      <point x="984.7333333333333" y="393.4333333333333"/>
      <point x="984.7333333333333" y="299.43333333333334" type="curve" smooth="yes"/>
      <point x="984.7333333333333" y="162.76666666666665"/>
      <point x="921.6666666666666" y="86.16666666666667"/>
      <point x="852.5" y="86.16666666666667" type="curve" smooth="yes"/>
      <point x="806.4000000000001" y="86.16666666666667"/>
      <point x="793.7666666666667" y="119.83333333333334"/>
      <point x="793.7666666666667" y="188.86666666666667" type="curve" smooth="yes"/>
      <point x="793.7666666666667" y="283.6" type="line" smooth="yes"/>
      <point x="793.7666666666667" y="472.93333333333334"/>
      <point x="656.4666666666666" y="586.0666666666667"/>
      <point x="420.43333333333334" y="586.0666666666667" type="curve" smooth="yes"/>
      <point x="186.16666666666669" y="586.0666666666667"/>
      <point x="46.43333333333333" y="458.40000000000003"/>
      <point x="46.43333333333333" y="260.1" type="curve" smooth="yes"/>
      <point x="46.43333333333333" y="113.43333333333334"/>
      <point x="141.79999999999998" y="-5.0"/>
    </contour>
  </outline>
</glyph>
<glyph name="lla-tamil" format="2">
  <advance width="1346.0666666666666"/>
  <unicode hex="0BB3"/>
  <note>
uni0BB3
</note>
  <anchor x="631.5" y="0.0" name="bottom"/>
  <anchor x="1186.4666666666665" y="581.0666666666667" name="imatra"/>
  <anchor x="622.1" y="0.0" name="nukta"/>
  <anchor x="645.5" y="581.0666666666667" name="top"/>
  <anchor x="690.3" y="581.0666666666667" name="vedic"/>
  <outline>
    <contour>
      <point x="286.43333333333334" y="-5.0" type="curve" smooth="yes"/>
      <point x="420.3" y="-5.0"/>
      <point x="501.26666666666665" y="62.63333333333333"/>
      <point x="501.26666666666665" y="180.7" type="curve" smooth="yes"/>
      <point x="501.26666666666665" y="274.6"/>
      <point x="439.76666666666665" y="349.59999999999997"/>
      <point x="332.46666666666664" y="349.59999999999997" type="curve" smooth="yes"/>
      <point x="197.33333333333334" y="349.59999999999997"/>
      <point x="129.66666666666666" y="236.56666666666666"/>
      <point x="130.1" y="120.8" type="curve"/>
      <point x="179.70000000000002" y="91.26666666666667" type="line"/>
      <point x="184.33333333333331" y="172.66666666666666"/>
      <point x="213.83333333333334" y="231.83333333333334"/>
      <point x="266.8666666666667" y="231.83333333333334" type="curve" smooth="yes"/>
      <point x="296.7666666666667" y="231.83333333333334"/>
      <point x="325.26666666666665" y="208.16666666666666"/>
      <point x="325.26666666666665" y="163.8" type="curve" smooth="yes"/>
      <point x="325.26666666666665" y="113.60000000000001"/>
      <point x="297.7666666666667" y="83.96666666666667"/>
      <point x="248.36666666666665" y="83.96666666666667" type="curve" smooth="yes"/>
      <point x="190.76666666666668" y="83.96666666666667"/>
      <point x="124.76666666666667" y="148.1"/>
      <point x="124.76666666666667" y="259.1" type="curve" smooth="yes"/>
      <point x="124.76666666666667" y="413.73333333333335"/>
      <point x="233.60000000000002" y="503.53333333333336"/>
      <point x="373.6666666666667" y="503.53333333333336" type="curve" smooth="yes"/>
      <point x="533.8000000000001" y="503.53333333333336"/>
      <point x="628.5333333333333" y="412.2"/>
      <point x="628.5333333333333" y="280.03333333333336" type="curve"/>
      <point x="709.8333333333334" y="297.3" type="line"/>
      <point x="695.3000000000001" y="503.16666666666663"/>
      <point x="535.9666666666667" y="585.4333333333333"/>
      <point x="379.26666666666665" y="585.4333333333333" type="curve" smooth="yes"/>
      <point x="171.0" y="585.4333333333333"/>
      <point x="46.43333333333333" y="452.06666666666666"/>
      <point x="46.43333333333333" y="260.1" type="curve" smooth="yes"/>
      <point x="46.43333333333333" y="113.43333333333334"/>
      <point x="141.8" y="-5.0"/>
    </contour>
    <contour>
      <point x="628.5333333333333" y="0.0" type="line"/>
      <point x="835.9333333333333" y="0.0" type="line"/>
      <point x="835.9333333333333" y="509.0" type="line"/>
      <point x="1000.5333333333334" y="509.0" type="line"/>
      <point x="1000.5333333333334" y="0.0" type="line"/>
      <point x="1207.9333333333334" y="0.0" type="line"/>
      <point x="1207.9333333333334" y="509.0" type="line"/>
      <point x="1332.9666666666667" y="509.0" type="line"/>
      <point x="1332.9666666666667" y="581.0666666666667" type="line"/>
      <point x="680.7666666666667" y="581.0666666666667" type="line"/>
      <point x="680.7666666666667" y="324.76666666666665" type="line"/>
      <point x="628.5333333333333" y="346.6666666666667" type="line"/>
    </contour>
  </outline>
</glyph>
<glyph name="va-tamil" format="2">
  <advance width="1175.4666666666667"/>
  <unicode hex="0BB5"/>
  <note>
uni0BB5
</note>
  <anchor x="618.4333333333334" y="0.0" name="bottom"/>
  <anchor x="918.0333333333334" y="581.0666666666667" name="imatra"/>
  <anchor x="608.7" y="0.0" name="nukta"/>
  <anchor x="595.2333333333333" y="581.0666666666667" name="top"/>
  <anchor x="594.0999999999999" y="581.0666666666667" name="vedic"/>
  <outline>
    <contour>
      <point x="286.43333333333334" y="-5.0" type="curve" smooth="yes"/>
      <point x="420.3" y="-5.0"/>
      <point x="501.26666666666665" y="65.80000000000001"/>
      <point x="501.26666666666665" y="183.86666666666665" type="curve" smooth="yes"/>
      <point x="501.26666666666665" y="277.7666666666667"/>
      <point x="439.76666666666665" y="349.59999999999997"/>
      <point x="332.46666666666664" y="349.59999999999997" type="curve" smooth="yes"/>
      <point x="197.33333333333331" y="349.59999999999997"/>
      <point x="129.66666666666669" y="236.56666666666666"/>
      <point x="130.10000000000002" y="120.8" type="curve"/>
      <point x="179.7" y="91.26666666666667" type="line"/>
      <point x="184.33333333333334" y="172.66666666666666"/>
      <point x="213.83333333333334" y="231.83333333333334"/>
      <point x="266.8666666666667" y="231.83333333333334" type="curve" smooth="yes"/>
      <point x="296.76666666666665" y="231.83333333333334"/>
      <point x="325.26666666666665" y="208.16666666666666"/>
      <point x="325.26666666666665" y="163.8" type="curve" smooth="yes"/>
      <point x="325.26666666666665" y="113.60000000000001"/>
      <point x="297.7666666666667" y="83.96666666666667"/>
      <point x="248.36666666666667" y="83.96666666666667" type="curve" smooth="yes"/>
      <point x="190.76666666666665" y="83.96666666666667"/>
      <point x="124.76666666666667" y="148.1"/>
      <point x="124.76666666666667" y="259.09999999999997" type="curve" smooth="yes"/>
      <point x="124.76666666666667" y="411.8333333333333"/>
      <point x="229.03333333333333" y="504.0"/>
      <point x="365.0" y="504.0" type="curve" smooth="yes"/>
      <point x="508.03333333333336" y="504.0"/>
      <point x="614.1333333333333" y="417.8"/>
      <point x="614.1333333333333" y="263.9" type="curve" smooth="yes"/>
      <point x="614.1333333333333" y="176.0"/>
      <point x="592.4333333333333" y="110.43333333333334"/>
      <point x="558.6666666666666" y="49.266666666666666" type="curve"/>
      <point x="583.5666666666667" y="0.0" type="line"/>
      <point x="1108.3333333333335" y="0.0" type="line"/>
      <point x="1108.3333333333335" y="581.0666666666667" type="line"/>
      <point x="905.0" y="581.0666666666667" type="line"/>
      <point x="905.0" y="72.06666666666666" type="line"/>
      <point x="699.5333333333333" y="72.06666666666666" type="line"/>
      <point x="769.2" y="133.43333333333334"/>
      <point x="809.8333333333333" y="197.36666666666667"/>
      <point x="809.8333333333333" y="294.79999999999995" type="curve" smooth="yes"/>
      <point x="809.8333333333333" y="493.6333333333333"/>
      <point x="632.2666666666667" y="586.0666666666667"/>
      <point x="427.1333333333333" y="586.0666666666667" type="curve" smooth="yes"/>
      <point x="191.63333333333335" y="586.0666666666667"/>
      <point x="46.43333333333333" y="458.40000000000003"/>
      <point x="46.43333333333333" y="260.1" type="curve" smooth="yes"/>
      <point x="46.43333333333333" y="113.43333333333334"/>
      <point x="141.79999999999998" y="-5.0"/>
    </contour>
  </outline>
</glyph>
<glyph name="sha-tamil" format="2">
  <advance width="1165.7"/>
  <unicode hex="0BB6"/>
  <note>
uni0BB6
</note>
  <anchor x="578.4333333333333" y="0.0" name="bottom"/>
  <anchor x="932.5333333333333" y="581.0666666666667" name="imatra"/>
  <anchor x="578.4333333333333" y="0.0" name="nukta"/>
  <anchor x="578.4333333333334" y="581.0666666666667" name="top"/>
  <anchor x="589.0666666666667" y="581.0666666666667" name="vedic"/>
  <outline>
    <contour>
      <point x="295.0333333333333" y="-5.0" type="curve" smooth="yes"/>
      <point x="431.1" y="-5.0"/>
      <point x="528.5" y="52.03333333333333"/>
      <point x="528.5" y="218.53333333333333" type="curve" smooth="yes"/>
      <point x="528.5" y="509.0" type="line"/>
      <point x="661.7333333333333" y="509.0" type="line"/>
      <point x="661.7333333333333" y="192.10000000000002" type="line" smooth="yes"/>
      <point x="661.7333333333333" y="64.9"/>
      <point x="707.8666666666667" y="-5.633333333333334"/>
      <point x="850.1" y="-5.633333333333334" type="curve" smooth="yes"/>
      <point x="1008.6666666666667" y="-5.633333333333334"/>
      <point x="1115.6333333333334" y="126.53333333333333"/>
      <point x="1115.6333333333334" y="348.06666666666666" type="curve" smooth="yes"/>
      <point x="1115.6333333333334" y="499.43333333333334"/>
      <point x="1057.0333333333333" y="581.0666666666667"/>
      <point x="948.4" y="581.0666666666667" type="curve" smooth="yes"/>
      <point x="448.6333333333333" y="581.0666666666667" type="line"/>
      <point x="448.6333333333333" y="218.53333333333333" type="line" smooth="yes"/>
      <point x="448.6333333333333" y="123.66666666666667"/>
      <point x="414.3" y="84.43333333333334"/>
      <point x="353.3666666666667" y="84.43333333333334" type="curve" smooth="yes"/>
      <point x="291.96666666666664" y="84.43333333333334"/>
      <point x="265.09999999999997" y="121.06666666666668"/>
      <point x="265.09999999999997" y="194.29999999999998" type="curve" smooth="yes"/>
      <point x="265.09999999999997" y="581.0666666666667" type="line"/>
      <point x="62.13333333333333" y="581.0666666666667" type="line"/>
      <point x="62.13333333333333" y="211.1" type="line" smooth="yes"/>
      <point x="62.13333333333333" y="66.93333333333334"/>
      <point x="157.2" y="-5.0"/>
    </contour>
    <contour>
      <point x="909.0333333333333" y="88.46666666666667" type="curve" smooth="yes"/>
      <point x="867.5333333333334" y="88.46666666666667"/>
      <point x="865.7" y="114.10000000000001"/>
      <point x="865.7" y="188.7" type="curve" smooth="yes"/>
      <point x="865.7" y="510.0" type="line"/>
      <point x="944.0333333333333" y="510.0" type="line" smooth="yes"/>
      <point x="1010.3333333333333" y="510.0"/>
      <point x="1038.2" y="457.1666666666667"/>
      <point x="1038.2" y="345.06666666666666" type="curve" smooth="yes"/>
      <point x="1038.2" y="152.6"/>
      <point x="957.1666666666667" y="88.46666666666667"/>
    </contour>
  </outline>
</glyph>
<glyph name="sa-tamil" format="2">
  <advance width="1458.3333333333335"/>
  <unicode hex="0BB8"/>
  <note>
uni0BB8
</note>
  <anchor x="751.2333333333333" y="0.0" name="bottom"/>
  <anchor x="749.4" y="0.0" name="nukta"/>
  <anchor x="743.8666666666667" y="581.0666666666667" name="top"/>
  <anchor x="740.5333333333333" y="581.0666666666667" name="vedic"/>
  <outline>
    <contour>
      <point x="594.2" y="0.0" type="line"/>
      <point x="801.5" y="0.0" type="line"/>
      <point x="801.5" y="428.76666666666665" type="line" smooth="yes"/>
      <point x="801.5" y="484.1333333333333"/>
      <point x="826.6666666666667" y="509.0"/>
      <point x="867.4333333333333" y="509.0" type="curve" smooth="yes"/>
      <point x="908.2" y="509.0"/>
      <point x="931.4666666666667" y="477.3333333333333"/>
      <point x="931.4666666666667" y="434.23333333333335" type="curve" smooth="yes"/>
      <point x="931.4666666666667" y="199.86666666666667" type="line" smooth="yes"/>
      <point x="931.4666666666667" y="74.4"/>
      <point x="998.9" y="-5.633333333333334"/>
      <point x="1146.3333333333333" y="-5.633333333333334" type="curve" smooth="yes"/>
      <point x="1307.1" y="-5.633333333333334"/>
      <point x="1406.8999999999999" y="115.1"/>
      <point x="1406.8999999999999" y="310.3333333333333" type="curve" smooth="yes"/>
      <point x="1406.8999999999999" y="406.3666666666667"/>
      <point x="1372.7333333333333" y="492.43333333333334"/>
      <point x="1305.3333333333335" y="584.8" type="curve"/>
      <point x="1239.5333333333333" y="541.8333333333334" type="line"/>
      <point x="1299.3" y="458.8333333333333"/>
      <point x="1329.5666666666666" y="393.4333333333333"/>
      <point x="1329.5666666666666" y="299.43333333333334" type="curve" smooth="yes"/>
      <point x="1329.5666666666666" y="162.76666666666665"/>
      <point x="1266.5" y="85.53333333333333"/>
      <point x="1197.3333333333335" y="85.53333333333333" type="curve" smooth="yes"/>
      <point x="1151.2333333333333" y="85.53333333333333"/>
      <point x="1138.6" y="119.2"/>
      <point x="1138.6" y="188.23333333333335" type="curve" smooth="yes"/>
      <point x="1138.6" y="382.76666666666665" type="line" smooth="yes"/>
      <point x="1138.6" y="526.2333333333333"/>
      <point x="1019.0666666666667" y="584.4333333333333"/>
      <point x="881.8666666666667" y="584.4333333333333" type="curve" smooth="yes"/>
      <point x="756.9333333333333" y="584.4333333333333"/>
      <point x="642.1333333333333" y="526.0999999999999"/>
      <point x="642.1333333333333" y="425.6333333333333" type="curve" smooth="yes"/>
      <point x="642.1333333333333" y="350.46666666666664" type="line"/>
      <point x="594.2" y="350.46666666666664" type="line"/>
    </contour>
    <contour>
      <point x="288.6" y="-5.0" type="curve" smooth="yes"/>
      <point x="422.73333333333335" y="-5.0"/>
      <point x="503.70000000000005" y="62.63333333333333"/>
      <point x="503.70000000000005" y="180.7" type="curve" smooth="yes"/>
      <point x="503.70000000000005" y="274.6"/>
      <point x="441.93333333333334" y="349.59999999999997"/>
      <point x="334.9" y="349.59999999999997" type="curve" smooth="yes"/>
      <point x="199.76666666666668" y="349.59999999999997"/>
      <point x="134.0" y="239.1"/>
      <point x="132.53333333333333" y="120.8" type="curve"/>
      <point x="182.13333333333333" y="91.26666666666667" type="line"/>
      <point x="186.76666666666668" y="172.66666666666666"/>
      <point x="216.63333333333333" y="231.83333333333334"/>
      <point x="269.29999999999995" y="231.83333333333334" type="curve" smooth="yes"/>
      <point x="299.2" y="231.83333333333334"/>
      <point x="328.06666666666666" y="208.16666666666666"/>
      <point x="328.06666666666666" y="163.8" type="curve" smooth="yes"/>
      <point x="328.06666666666666" y="113.60000000000001"/>
      <point x="300.2" y="83.96666666666667"/>
      <point x="250.79999999999998" y="83.96666666666667" type="curve" smooth="yes"/>
      <point x="193.2" y="83.96666666666667"/>
      <point x="127.2" y="148.1"/>
      <point x="127.2" y="259.1" type="curve" smooth="yes"/>
      <point x="127.2" y="413.73333333333335"/>
      <point x="228.56666666666666" y="503.53333333333336"/>
      <point x="365.93333333333334" y="503.53333333333336" type="curve" smooth="yes"/>
      <point x="521.0" y="503.53333333333336"/>
      <point x="594.2" y="423.59999999999997"/>
      <point x="594.2" y="291.43333333333334" type="curve"/>
      <point x="685.1" y="296.6666666666667" type="line"/>
      <point x="671.3" y="501.9"/>
      <point x="525.6666666666667" y="585.4333333333333"/>
      <point x="371.1666666666667" y="585.4333333333333" type="curve" smooth="yes"/>
      <point x="166.86666666666667" y="585.4333333333333"/>
      <point x="49.233333333333334" y="452.06666666666666"/>
      <point x="49.233333333333334" y="260.1" type="curve" smooth="yes"/>
      <point x="49.233333333333334" y="113.43333333333334"/>
      <point x="144.6" y="-5.0"/>
    </contour>
  </outline>
</glyph>
<glyph name="ha-tamil" format="2">
  <advance width="1784.4666666666667"/>
  <unicode hex="0BB9"/>
  <note>
uni0BB9
</note>
  <anchor x="909.8000000000001" y="0.0" name="bottom"/>
  <anchor x="910.9000000000001" y="-148.5" name="nukta"/>
  <anchor x="943.4" y="586.7666666666667" name="top"/>
  <anchor x="917.8666666666667" y="581.0666666666667" name="vedic"/>
  <outline>
    <contour>
      <point x="267.90000000000003" y="-328.0666666666667" type="curve"/>
      <point x="267.90000000000003" y="-230.89999999999998"/>
      <point x="294.66666666666663" y="-155.46666666666667"/>
      <point x="423.76666666666665" y="-155.46666666666667" type="curve" smooth="yes"/>
      <point x="1185.9333333333334" y="-155.46666666666667" type="line" smooth="yes"/>
      <point x="1589.4666666666667" y="-155.46666666666667"/>
      <point x="1752.3000000000002" y="-16.666666666666664"/>
      <point x="1752.3000000000002" y="256.8666666666667" type="curve" smooth="yes"/>
      <point x="1752.3000000000002" y="466.9666666666667"/>
      <point x="1645.0666666666666" y="588.3333333333334"/>
      <point x="1454.7666666666667" y="588.3333333333334" type="curve" smooth="yes"/>
      <point x="1352.4" y="588.3333333333334"/>
      <point x="1272.8333333333335" y="541.0333333333333"/>
      <point x="1246.3000000000002" y="452.4666666666667" type="curve"/>
      <point x="1225.6666666666665" y="544.1999999999999"/>
      <point x="1162.6333333333332" y="587.3333333333334"/>
      <point x="1077.0666666666666" y="587.3333333333334" type="curve" smooth="yes"/>
      <point x="973.0666666666667" y="587.3333333333334"/>
      <point x="908.1999999999999" y="520.2"/>
      <point x="908.1999999999999" y="402.03333333333336" type="curve" smooth="yes"/>
      <point x="908.1999999999999" y="72.06666666666666" type="line"/>
      <point x="699.5333333333333" y="72.06666666666666" type="line"/>
      <point x="769.2" y="133.43333333333334"/>
      <point x="809.8333333333333" y="197.36666666666667"/>
      <point x="809.8333333333333" y="294.79999999999995" type="curve" smooth="yes"/>
      <point x="809.8333333333333" y="493.6333333333333"/>
      <point x="632.2666666666667" y="586.0666666666667"/>
      <point x="427.1333333333333" y="586.0666666666667" type="curve" smooth="yes"/>
      <point x="191.63333333333335" y="586.0666666666667"/>
      <point x="46.43333333333333" y="458.40000000000003"/>
      <point x="46.43333333333333" y="260.1" type="curve" smooth="yes"/>
      <point x="46.43333333333333" y="113.43333333333334"/>
      <point x="141.79999999999998" y="-5.0"/>
      <point x="286.43333333333334" y="-5.0" type="curve" smooth="yes"/>
      <point x="420.3" y="-5.0"/>
      <point x="501.26666666666665" y="65.80000000000001"/>
      <point x="501.26666666666665" y="183.86666666666665" type="curve" smooth="yes"/>
      <point x="501.26666666666665" y="277.7666666666667"/>
      <point x="439.76666666666665" y="349.59999999999997"/>
      <point x="332.46666666666664" y="349.59999999999997" type="curve" smooth="yes"/>
      <point x="197.33333333333331" y="349.59999999999997"/>
      <point x="131.56666666666666" y="238.46666666666667"/>
      <point x="130.10000000000002" y="122.7" type="curve"/>
      <point x="179.7" y="91.26666666666667" type="line"/>
      <point x="184.33333333333334" y="172.66666666666666"/>
      <point x="213.83333333333334" y="231.83333333333334"/>
      <point x="266.8666666666667" y="231.83333333333334" type="curve" smooth="yes"/>
      <point x="296.76666666666665" y="231.83333333333334"/>
      <point x="325.26666666666665" y="208.16666666666666"/>
      <point x="325.26666666666665" y="163.8" type="curve" smooth="yes"/>
      <point x="325.26666666666665" y="113.60000000000001"/>
      <point x="297.7666666666667" y="83.96666666666667"/>
      <point x="248.36666666666667" y="83.96666666666667" type="curve" smooth="yes"/>
      <point x="190.76666666666665" y="83.96666666666667"/>
      <point x="124.76666666666667" y="148.1"/>
      <point x="124.76666666666667" y="259.09999999999997" type="curve" smooth="yes"/>
      <point x="124.76666666666667" y="411.8333333333333"/>
      <point x="229.03333333333333" y="504.0"/>
      <point x="365.0" y="504.0" type="curve" smooth="yes"/>
      <point x="508.03333333333336" y="504.0"/>
      <point x="614.1333333333333" y="417.8"/>
      <point x="614.1333333333333" y="263.9" type="curve" smooth="yes"/>
      <point x="614.1333333333333" y="176.0"/>
      <point x="592.4333333333333" y="110.43333333333334"/>
      <point x="558.6666666666666" y="49.266666666666666" type="curve"/>
      <point x="583.5666666666667" y="0.0" type="line"/>
      <point x="989.7" y="0.0" type="line"/>
      <point x="989.7" y="394.3" type="line" smooth="yes"/>
      <point x="989.7" y="470.76666666666665"/>
      <point x="1012.5" y="506.9"/>
      <point x="1062.5333333333333" y="506.9" type="curve" smooth="yes"/>
      <point x="1117.9333333333334" y="506.9"/>
      <point x="1138.3666666666668" y="468.3"/>
      <point x="1138.3666666666668" y="397.1" type="curve" smooth="yes"/>
      <point x="1138.3666666666668" y="0.6333333333333333" type="line"/>
      <point x="1347.0666666666668" y="0.6333333333333333" type="line"/>
      <point x="1347.0666666666668" y="378.1333333333333" type="line" smooth="yes"/>
      <point x="1347.0666666666668" y="463.7"/>
      <point x="1374.3" y="507.9"/>
      <point x="1429.8" y="507.9" type="curve" smooth="yes"/>
      <point x="1502.2" y="507.9"/>
      <point x="1540.6000000000001" y="436.40000000000003"/>
      <point x="1540.6000000000001" y="273.6" type="curve" smooth="yes"/>
      <point x="1540.6000000000001" y="40.93333333333334"/>
      <point x="1481.3333333333333" y="-94.93333333333334"/>
      <point x="1135.4666666666667" y="-94.93333333333334" type="curve" smooth="yes"/>
      <point x="356.0" y="-94.93333333333334" type="line" smooth="yes"/>
      <point x="227.63333333333333" y="-94.93333333333334"/>
      <point x="113.73333333333333" y="-118.83333333333333"/>
      <point x="113.73333333333333" y="-225.16666666666666" type="curve" smooth="yes"/>
      <point x="113.73333333333333" y="-300.1333333333334"/>
      <point x="175.86666666666667" y="-328.0666666666667"/>
    </contour>
  </outline>
</glyph>
<glyph name="aaMatra-tamil" format="2">
  <advance width="645.6999999999999"/>
  <unicode hex="0BBE"/>
  <note>
uni0BBE
</note>
  <anchor x="337.56666666666666" y="0.0" name="bottom"/>
  <anchor x="336.56666666666666" y="0.0" name="nukta"/>
  <anchor x="330.56666666666666" y="581.0666666666667" name="top"/>
  <anchor x="330.56666666666666" y="581.0666666666667" name="vedic"/>
  <outline>
    <contour>
      <point x="67.13333333333333" y="0.0" type="line"/>
      <point x="146.73333333333332" y="0.0" type="line"/>
      <point x="146.73333333333332" y="509.0" type="line"/>
      <point x="311.20000000000005" y="509.0" type="line"/>
      <point x="311.20000000000005" y="0.0" type="line"/>
      <point x="516.0666666666667" y="0.0" type="line"/>
      <point x="516.0666666666667" y="509.0" type="line"/>
      <point x="632.5999999999999" y="509.0" type="line"/>
      <point x="632.5999999999999" y="581.0666666666667" type="line"/>
      <point x="67.13333333333333" y="581.0666666666667" type="line"/>
    </contour>
  </outline>
</glyph>
<glyph name="iMatra-tamil" format="2">
  <advance width="233.73333333333335"/>
  <unicode hex="0BBF"/>
  <note>
uni0BBF
</note>
  <anchor x="-163.5" y="886.5333333333333" name="top"/>
  <outline>
    <contour>
      <point x="79.30000000000001" y="0.0" type="line"/>
      <point x="161.79999999999998" y="0.0" type="line"/>
      <point x="161.79999999999998" y="568.0666666666666" type="line" smooth="yes"/>
      <point x="161.79999999999998" y="802.1"/>
      <point x="4.933333333333334" y="886.5333333333333"/>
      <point x="-163.5" y="886.5333333333333" type="curve" smooth="yes"/>
      <point x="-315.93333333333334" y="886.5333333333333"/>
      <point x="-415.46666666666664" y="801.6"/>
      <point x="-415.46666666666664" y="683.2" type="curve" smooth="yes"/>
      <point x="-415.46666666666664" y="578.2333333333333"/>
      <point x="-344.29999999999995" y="513.7333333333333"/>
      <point x="-218.86666666666665" y="513.7333333333333" type="curve" smooth="yes"/>
      <point x="-217.23333333333332" y="513.7333333333333" type="line"/>
      <point x="-217.23333333333332" y="580.4333333333333" type="line"/>
      <point x="-218.86666666666665" y="580.4333333333333" type="line" smooth="yes"/>
      <point x="-266.9666666666667" y="580.4333333333333"/>
      <point x="-307.9666666666667" y="601.1333333333333"/>
      <point x="-307.9666666666667" y="648.9333333333334" type="curve" smooth="yes"/>
      <point x="-307.9666666666667" y="693.2666666666667"/>
      <point x="-259.93333333333334" y="737.3"/>
      <point x="-157.4" y="737.3" type="curve" smooth="yes"/>
      <point x="-35.900000000000006" y="737.3"/>
      <point x="79.30000000000001" y="678.5333333333333"/>
      <point x="79.30000000000001" y="516.9333333333333" type="curve" smooth="yes"/>
    </contour>
  </outline>
</glyph>
<glyph name="iiMatra-tamil" format="2">
  <unicode hex="0BC0"/>
  <note>
uni0BC0
</note>
  <anchor x="0.0" y="581.0666666666667" name="_imatra"/>
  <anchor x="5.866666666666667" y="939.1333333333333" name="top"/>
  <outline>
    <contour>
      <point x="-37.233333333333334" y="509.0" type="curve" smooth="yes"/>
      <point x="-0.36666666666666664" y="509.0" type="line"/>
      <point x="-0.36666666666666664" y="581.0666666666667" type="line"/>
      <point x="-30.06666666666667" y="581.0666666666667" type="line" smooth="yes"/>
      <point x="-101.3" y="581.0666666666667"/>
      <point x="-165.70000000000002" y="622.8"/>
      <point x="-165.70000000000002" y="715.6" type="curve" smooth="yes"/>
      <point x="-165.70000000000002" y="802.0666666666667"/>
      <point x="-102.60000000000001" y="860.5333333333333"/>
      <point x="-12.866666666666667" y="860.5333333333333" type="curve" smooth="yes"/>
      <point x="42.400000000000006" y="860.5333333333333"/>
      <point x="78.43333333333332" y="827.7666666666667"/>
      <point x="78.43333333333332" y="776.4" type="curve" smooth="yes"/>
      <point x="78.43333333333332" y="738.5"/>
      <point x="56.36666666666667" y="711.6"/>
      <point x="18.233333333333334" y="711.6" type="curve" smooth="yes"/>
      <point x="-42.43333333333333" y="711.6"/>
      <point x="-59.86666666666667" y="799.0666666666667"/>
      <point x="-18.266666666666666" y="885.0666666666667" type="curve"/>
      <point x="-71.86666666666667" y="890.0666666666667" type="line"/>
      <point x="-142.16666666666666" y="766.0666666666667"/>
      <point x="-101.66666666666667" y="614.5333333333333"/>
      <point x="60.13333333333333" y="614.5333333333333" type="curve" smooth="yes"/>
      <point x="151.33333333333334" y="614.5333333333333"/>
      <point x="227.26666666666665" y="665.1666666666667"/>
      <point x="227.26666666666665" y="762.9666666666667" type="curve" smooth="yes"/>
      <point x="227.26666666666665" y="869.9333333333334"/>
      <point x="137.79999999999998" y="939.1333333333333"/>
      <point x="5.866666666666667" y="939.1333333333333" type="curve" smooth="yes"/>
      <point x="-148.46666666666667" y="939.1333333333333"/>
      <point x="-245.1" y="833.4333333333334"/>
      <point x="-245.1" y="719.6" type="curve" smooth="yes"/>
      <point x="-245.1" y="585.2666666666667"/>
      <point x="-168.96666666666667" y="509.0"/>
    </contour>
  </outline>
</glyph>
<glyph name="uuMatra-tamil" format="2">
  <advance width="914.4666666666667"/>
  <unicode hex="0BC2"/>
  <note>
uni0BC2
</note>
  <anchor x="427.43333333333334" y="796.4333333333333" name="top"/>
  <outline>
    <contour>
      <point x="389.1666666666667" y="8.366666666666667" type="curve" smooth="yes"/>
      <point x="626.7666666666667" y="8.366666666666667"/>
      <point x="846.0333333333333" y="130.1"/>
      <point x="846.0333333333333" y="404.6333333333333" type="curve" smooth="yes"/>
      <point x="846.0333333333333" y="668.5"/>
      <point x="660.6666666666666" y="796.4333333333333"/>
      <point x="427.43333333333334" y="796.4333333333333" type="curve" smooth="yes"/>
      <point x="200.73333333333335" y="796.4333333333333"/>
      <point x="86.96666666666667" y="664.4333333333334"/>
      <point x="86.96666666666667" y="525.4666666666667" type="curve" smooth="yes"/>
      <point x="86.96666666666667" y="434.1" type="line" smooth="yes"/>
      <point x="86.96666666666667" y="306.93333333333334"/>
      <point x="150.2" y="231.9"/>
      <point x="284.0" y="231.9" type="curve" smooth="yes"/>
      <point x="416.8" y="231.9"/>
      <point x="505.3666666666667" y="303.66666666666663"/>
      <point x="505.3666666666667" y="436.1666666666667" type="curve" smooth="yes"/>
      <point x="505.3666666666667" y="581.0666666666667" type="line"/>
      <point x="-334.3" y="581.0666666666667" type="line"/>
      <point x="-279.6666666666667" y="509.0" type="line"/>
      <point x="298.5" y="509.0" type="line"/>
      <point x="298.5" y="412.1666666666667" type="line" smooth="yes"/>
      <point x="298.5" y="350.8666666666667"/>
      <point x="274.06666666666666" y="321.53333333333336"/>
      <point x="231.83333333333334" y="321.53333333333336" type="curve" smooth="yes"/>
      <point x="188.7" y="321.53333333333336"/>
      <point x="166.1" y="358.66666666666663"/>
      <point x="166.1" y="427.43333333333334" type="curve" smooth="yes"/>
      <point x="166.1" y="525.4666666666667" type="line" smooth="yes"/>
      <point x="166.1" y="615.4666666666667"/>
      <point x="236.63333333333333" y="709.7333333333333"/>
      <point x="384.43333333333334" y="709.7333333333333" type="curve" smooth="yes"/>
      <point x="544.3333333333333" y="709.7333333333333"/>
      <point x="628.9666666666667" y="604.4333333333333"/>
      <point x="628.9666666666667" y="413.53333333333336" type="curve" smooth="yes"/>
      <point x="628.9666666666667" y="204.5"/>
      <point x="523.2" y="95.7"/>
      <point x="356.96666666666664" y="95.7" type="curve" smooth="yes"/>
      <point x="235.4" y="95.7"/>
      <point x="149.03333333333333" y="131.13333333333335"/>
      <point x="68.86666666666666" y="225.43333333333334" type="curve"/>
      <point x="9.166666666666666" y="169.9" type="line"/>
      <point x="101.5" y="64.16666666666667"/>
      <point x="202.23333333333335" y="8.366666666666667"/>
    </contour>
  </outline>
</glyph>
<glyph name="eMatra-tamil" format="2">
  <advance width="839.0666666666666"/>
  <unicode hex="0BC6"/>
  <note>
uni0BC6
</note>
  <outline>
    <contour>
      <point x="335.6666666666667" y="-5.0" type="curve" smooth="yes"/>
      <point x="468.2666666666667" y="-5.0"/>
      <point x="551.1333333333333" y="62.63333333333333"/>
      <point x="551.1333333333333" y="180.70000000000002" type="curve" smooth="yes"/>
      <point x="551.1333333333333" y="274.6"/>
      <point x="489.0" y="349.59999999999997"/>
      <point x="381.7" y="349.59999999999997" type="curve" smooth="yes"/>
      <point x="247.2" y="349.59999999999997"/>
      <point x="179.53333333333333" y="236.56666666666666"/>
      <point x="179.96666666666667" y="120.79999999999998" type="curve"/>
      <point x="229.56666666666666" y="91.26666666666667" type="line"/>
      <point x="234.20000000000002" y="172.66666666666669"/>
      <point x="263.70000000000005" y="231.83333333333334"/>
      <point x="316.73333333333335" y="231.83333333333334" type="curve" smooth="yes"/>
      <point x="346.6333333333333" y="231.83333333333334"/>
      <point x="375.1333333333333" y="208.16666666666666"/>
      <point x="375.1333333333333" y="163.79999999999998" type="curve" smooth="yes"/>
      <point x="375.1333333333333" y="113.60000000000001"/>
      <point x="347.6333333333333" y="83.96666666666667"/>
      <point x="298.23333333333335" y="83.96666666666667" type="curve" smooth="yes"/>
      <point x="219.1" y="83.96666666666667"/>
      <point x="133.93333333333334" y="186.36666666666667"/>
      <point x="133.93333333333334" y="373.56666666666666" type="curve" smooth="yes"/>
      <point x="133.93333333333334" y="587.3"/>
      <point x="271.1666666666667" y="703.7"/>
      <point x="432.6" y="703.7" type="curve" smooth="yes"/>
      <point x="559.5" y="703.7"/>
      <point x="686.0" y="645.6999999999999"/>
      <point x="686.0" y="418.46666666666664" type="curve" smooth="yes"/>
      <point x="686.0" y="0.0" type="line"/>
      <point x="767.1333333333334" y="0.0" type="line"/>
      <point x="767.1333333333334" y="472.76666666666665" type="line" smooth="yes"/>
      <point x="767.1333333333334" y="747.8333333333334"/>
      <point x="632.3666666666667" y="864.3666666666667"/>
      <point x="438.59999999999997" y="864.3666666666667" type="curve" smooth="yes"/>
      <point x="178.13333333333333" y="864.3666666666667"/>
      <point x="52.166666666666664" y="644.2"/>
      <point x="52.166666666666664" y="374.56666666666666" type="curve" smooth="yes"/>
      <point x="52.166666666666664" y="151.33333333333331"/>
      <point x="166.33333333333331" y="-5.0"/>
    </contour>
  </outline>
</glyph>
<glyph name="eeMatra-tamil" format="2">
  <advance width="654.9333333333333"/>
  <unicode hex="0BC7"/>
  <note>
uni0BC7
</note>
  <outline>
    <contour>
      <point x="402.8666666666667" y="-5.0" type="curve" smooth="yes"/>
      <point x="535.1" y="-5.0"/>
      <point x="617.2333333333333" y="62.63333333333333"/>
      <point x="617.2333333333333" y="180.70000000000002" type="curve" smooth="yes"/>
      <point x="617.2333333333333" y="274.59999999999997"/>
      <point x="554.3666666666667" y="349.59999999999997"/>
      <point x="447.06666666666666" y="349.59999999999997" type="curve" smooth="yes"/>
      <point x="311.8333333333333" y="349.59999999999997"/>
      <point x="247.43333333333334" y="230.23333333333335"/>
      <point x="247.86666666666667" y="114.46666666666667" type="curve"/>
      <point x="299.2" y="84.93333333333334" type="line"/>
      <point x="303.2" y="166.96666666666667"/>
      <point x="329.53333333333336" y="231.83333333333334"/>
      <point x="382.2" y="231.83333333333334" type="curve" smooth="yes"/>
      <point x="412.73333333333335" y="231.83333333333334"/>
      <point x="440.6" y="208.16666666666669"/>
      <point x="440.6" y="163.79999999999998" type="curve" smooth="yes"/>
      <point x="440.6" y="113.60000000000001"/>
      <point x="413.7333333333333" y="83.96666666666667"/>
      <point x="363.70000000000005" y="83.96666666666667" type="curve" smooth="yes"/>
      <point x="255.7" y="83.96666666666667"/>
      <point x="132.76666666666665" y="210.0"/>
      <point x="132.76666666666665" y="428.6" type="curve" smooth="yes"/>
      <point x="132.76666666666665" y="646.1999999999999"/>
      <point x="255.7" y="799.4666666666667"/>
      <point x="363.70000000000005" y="799.4666666666667" type="curve" smooth="yes"/>
      <point x="413.7333333333333" y="799.4666666666667"/>
      <point x="440.6" y="770.0999999999999"/>
      <point x="440.6" y="719.6333333333333" type="curve" smooth="yes"/>
      <point x="440.6" y="675.2666666666667"/>
      <point x="412.73333333333335" y="651.2333333333333"/>
      <point x="382.2" y="651.2333333333333" type="curve" smooth="yes"/>
      <point x="329.53333333333336" y="651.2333333333333"/>
      <point x="303.2" y="717.1"/>
      <point x="299.2" y="798.5" type="curve"/>
      <point x="247.86666666666667" y="768.9666666666667" type="line"/>
      <point x="247.43333333333334" y="653.2"/>
      <point x="311.8333333333333" y="533.8333333333334"/>
      <point x="447.06666666666666" y="533.8333333333334" type="curve" smooth="yes"/>
      <point x="554.3666666666667" y="533.8333333333334"/>
      <point x="617.2333333333333" y="608.8333333333334"/>
      <point x="617.2333333333333" y="702.7333333333333" type="curve" smooth="yes"/>
      <point x="617.2333333333333" y="820.8"/>
      <point x="535.1" y="888.4333333333334"/>
      <point x="402.8666666666667" y="888.4333333333334" type="curve" smooth="yes"/>
      <point x="200.1" y="888.4333333333334"/>
      <point x="52.9" y="683.5"/>
      <point x="52.9" y="429.23333333333335" type="curve" smooth="yes"/>
      <point x="52.9" y="174.33333333333334"/>
      <point x="200.1" y="-5.0"/>
    </contour>
  </outline>
</glyph>
<glyph name="aiMatra-tamil" format="2">
  <advance width="1365.4"/>
  <unicode hex="0BC8"/>
  <note>
uni0BC8
</note>
  <outline>
    <contour>
      <point x="1072.8" y="-18.433333333333334" type="line"/>
      <point x="1208.3000000000002" y="25.666666666666668"/>
      <point x="1318.9666666666667" y="111.23333333333333"/>
      <point x="1318.9666666666667" y="280.0" type="curve" smooth="yes"/>
      <point x="1318.9666666666667" y="479.9666666666667"/>
      <point x="1146.2333333333333" y="586.4333333333333"/>
      <point x="948.5" y="586.4333333333333" type="curve" smooth="yes"/>
      <point x="725.1333333333333" y="586.4333333333333"/>
      <point x="558.8666666666667" y="405.6333333333334"/>
      <point x="558.8666666666667" y="213.9" type="curve" smooth="yes"/>
      <point x="558.8666666666667" y="90.56666666666666"/>
      <point x="612.4666666666667" y="-4.0"/>
      <point x="746.2666666666667" y="-4.0" type="curve" smooth="yes"/>
      <point x="877.4333333333334" y="-4.0"/>
      <point x="955.7333333333333" y="86.03333333333335"/>
      <point x="955.7333333333333" y="218.53333333333333" type="curve" smooth="yes"/>
      <point x="955.7333333333333" y="455.0"/>
      <point x="737.3666666666667" y="587.0666666666667"/>
      <point x="460.3666666666667" y="587.0666666666667" type="curve" smooth="yes"/>
      <point x="222.4" y="587.0666666666667"/>
      <point x="46.43333333333333" y="455.83333333333337"/>
      <point x="46.43333333333333" y="260.1" type="curve" smooth="yes"/>
      <point x="46.43333333333333" y="113.43333333333334"/>
      <point x="141.8" y="-5.0"/>
      <point x="286.43333333333334" y="-5.0" type="curve" smooth="yes"/>
      <point x="420.3" y="-5.0"/>
      <point x="501.26666666666665" y="65.80000000000001"/>
      <point x="501.26666666666665" y="183.86666666666665" type="curve" smooth="yes"/>
      <point x="501.26666666666665" y="277.7666666666667"/>
      <point x="439.76666666666665" y="349.59999999999997"/>
      <point x="332.4666666666667" y="349.59999999999997" type="curve" smooth="yes"/>
      <point x="197.33333333333331" y="349.59999999999997"/>
      <point x="129.66666666666669" y="236.56666666666666"/>
      <point x="130.10000000000002" y="120.8" type="curve"/>
      <point x="179.7" y="91.26666666666667" type="line"/>
      <point x="184.33333333333334" y="172.66666666666666"/>
      <point x="213.83333333333334" y="231.83333333333334"/>
      <point x="266.8666666666667" y="231.83333333333334" type="curve" smooth="yes"/>
      <point x="296.76666666666665" y="231.83333333333334"/>
      <point x="325.2666666666667" y="208.16666666666666"/>
      <point x="325.2666666666667" y="163.8" type="curve" smooth="yes"/>
      <point x="325.2666666666667" y="113.60000000000001"/>
      <point x="297.76666666666665" y="83.96666666666667"/>
      <point x="248.36666666666667" y="83.96666666666667" type="curve" smooth="yes"/>
      <point x="190.76666666666668" y="83.96666666666667"/>
      <point x="124.76666666666667" y="148.1"/>
      <point x="124.76666666666667" y="259.09999999999997" type="curve" smooth="yes"/>
      <point x="124.76666666666667" y="413.73333333333335"/>
      <point x="273.1" y="509.6333333333333"/>
      <point x="436.8333333333333" y="509.6333333333333" type="curve" smooth="yes"/>
      <point x="631.6333333333333" y="509.6333333333333"/>
      <point x="779.9333333333333" y="387.3333333333333"/>
      <point x="779.9333333333333" y="200.9" type="curve" smooth="yes"/>
      <point x="779.9333333333333" y="132.63333333333333"/>
      <point x="754.7" y="88.5"/>
      <point x="706.9333333333334" y="88.5" type="curve" smooth="yes"/>
      <point x="664.4333333333333" y="88.5"/>
      <point x="636.1" y="132.1"/>
      <point x="636.1" y="207.8" type="curve" smooth="yes"/>
      <point x="636.1" y="378.2"/>
      <point x="769.7333333333333" y="509.0"/>
      <point x="910.6666666666667" y="509.0" type="curve" smooth="yes"/>
      <point x="1056.1333333333332" y="509.0"/>
      <point x="1143.8" y="426.4"/>
      <point x="1143.8" y="282.6" type="curve" smooth="yes"/>
      <point x="1143.8" y="160.83333333333334"/>
      <point x="1102.2333333333333" y="96.26666666666667"/>
      <point x="1037.6333333333332" y="35.36666666666667" type="curve"/>
    </contour>
  </outline>
</glyph>
<glyph name="halant-tamil" format="2">
  <unicode hex="0BCD"/>
  <note>
uni0BCD
</note>
  <anchor x="0.0" y="581.0666666666667" name="_top"/>
  <outline>
    <contour>
      <point x="0.0" y="649.9333333333334" type="curve" smooth="yes"/>
      <point x="53.43333333333333" y="649.9333333333334"/>
      <point x="98.86666666666667" y="693.1"/>
      <point x="98.86666666666667" y="745.1666666666666" type="curve" smooth="yes"/>
      <point x="98.86666666666667" y="796.9666666666666"/>
      <point x="54.06666666666666" y="840.7666666666668"/>
      <point x="1.0" y="840.7666666666668" type="curve" smooth="yes"/>
      <point x="-53.43333333333333" y="840.7666666666668"/>
      <point x="-97.86666666666667" y="796.9666666666666"/>
      <point x="-97.86666666666667" y="745.1666666666666" type="curve" smooth="yes"/>
      <point x="-97.86666666666667" y="693.1"/>
      <point x="-54.06666666666666" y="649.9333333333334"/>
    </contour>
  </outline>
</glyph>
<glyph name="om-tamil" format="2">
  <advance width="1098.0"/>
  <unicode hex="0BD0"/>
  <note>
uni0BD0
</note>
  <outline>
    <contour>
      <point x="366.6666666666667" y="-405.93333333333334" type="curve" smooth="yes"/>
      <point x="680.1333333333333" y="-405.93333333333334"/>
      <point x="678.6333333333333" y="-175.73333333333335"/>
      <point x="842.9333333333333" y="-175.73333333333335" type="curve" smooth="yes"/>
      <point x="904.6999999999999" y="-175.73333333333335" type="line"/>
      <point x="904.6999999999999" y="-104.66666666666666" type="line"/>
      <point x="803.8333333333334" y="-104.66666666666666" type="line" smooth="yes"/>
      <point x="633.0666666666667" y="-104.66666666666666"/>
      <point x="555.8666666666667" y="68.5"/>
      <point x="656.3000000000001" y="236.20000000000002" type="curve"/>
      <point x="662.3000000000001" y="232.56666666666666" type="line"/>
      <point x="631.5333333333333" y="112.46666666666667"/>
      <point x="671.4333333333334" y="-2.3666666666666667"/>
      <point x="833.9333333333334" y="-2.3666666666666667" type="curve" smooth="yes"/>
      <point x="960.8" y="-2.3666666666666667"/>
      <point x="1051.5666666666668" y="70.96666666666667"/>
      <point x="1051.5666666666668" y="210.76666666666665" type="curve" smooth="yes"/>
      <point x="1051.5666666666668" y="460.4"/>
      <point x="809.0333333333333" y="587.7"/>
      <point x="508.73333333333335" y="587.7" type="curve" smooth="yes"/>
      <point x="228.9" y="587.7"/>
      <point x="46.43333333333333" y="440.1"/>
      <point x="46.43333333333333" y="255.16666666666669" type="curve" smooth="yes"/>
      <point x="46.43333333333333" y="110.16666666666666"/>
      <point x="138.63333333333335" y="4.366666666666666"/>
      <point x="288.3333333333333" y="4.366666666666666" type="curve" smooth="yes"/>
      <point x="425.3666666666667" y="4.366666666666666"/>
      <point x="500.0" y="82.76666666666667"/>
      <point x="500.0" y="186.89999999999998" type="curve" smooth="yes"/>
      <point x="500.0" y="288.6666666666667"/>
      <point x="436.59999999999997" y="359.6"/>
      <point x="331.8333333333333" y="359.6" type="curve" smooth="yes"/>
      <point x="199.86666666666667" y="359.6"/>
      <point x="132.83333333333334" y="244.66666666666666"/>
      <point x="127.56666666666666" y="130.43333333333334" type="curve"/>
      <point x="177.16666666666669" y="98.23333333333333" type="line"/>
      <point x="181.8" y="181.03333333333333"/>
      <point x="214.46666666666667" y="241.2"/>
      <point x="267.5" y="241.2" type="curve" smooth="yes"/>
      <point x="299.3" y="241.2"/>
      <point x="326.5333333333333" y="215.26666666666665"/>
      <point x="326.5333333333333" y="171.26666666666668" type="curve" smooth="yes"/>
      <point x="326.5333333333333" y="121.7"/>
      <point x="300.93333333333334" y="92.96666666666667"/>
      <point x="252.16666666666666" y="92.96666666666667" type="curve" smooth="yes"/>
      <point x="192.66666666666666" y="92.96666666666667"/>
      <point x="124.13333333333334" y="152.16666666666666"/>
      <point x="124.13333333333334" y="252.26666666666668" type="curve" smooth="yes"/>
      <point x="124.13333333333334" y="414.83333333333337"/>
      <point x="297.9666666666667" y="513.5333333333333"/>
      <point x="501.0333333333333" y="513.5333333333333" type="curve" smooth="yes"/>
      <point x="693.1666666666666" y="513.5333333333333"/>
      <point x="859.4333333333334" y="419.23333333333335"/>
      <point x="859.4333333333334" y="230.4" type="curve" smooth="yes"/>
      <point x="859.4333333333334" y="128.96666666666667"/>
      <point x="821.8333333333334" y="93.6"/>
      <point x="775.2333333333333" y="93.6" type="curve" smooth="yes"/>
      <point x="716.8333333333334" y="93.6"/>
      <point x="692.3000000000001" y="182.5"/>
      <point x="741.6" y="287.3666666666667" type="curve"/>
      <point x="655.3333333333334" y="338.76666666666665" type="line"/>
      <point x="478.8333333333333" y="143.43333333333334"/>
      <point x="525.1333333333333" y="-67.43333333333334"/>
      <point x="674.2" y="-135.46666666666667" type="curve"/>
      <point x="674.2" y="-140.46666666666667" type="line"/>
      <point x="528.0333333333334" y="-156.9"/>
      <point x="551.3" y="-325.96666666666664"/>
      <point x="332.23333333333335" y="-325.96666666666664" type="curve" smooth="yes"/>
      <point x="201.10000000000002" y="-325.96666666666664"/>
      <point x="134.5" y="-253.0666666666667"/>
      <point x="156.36666666666665" y="-157.20000000000002" type="curve"/>
      <point x="85.6" y="-142.13333333333333" type="line"/>
      <point x="59.36666666666667" y="-272.0333333333333"/>
      <point x="145.33333333333334" y="-405.93333333333334"/>
    </contour>
    <contour>
      <point x="214.43333333333334" y="-262.06666666666666" type="line"/>
      <point x="271.23333333333335" y="-262.06666666666666" type="line"/>
      <point x="271.23333333333335" y="-105.06666666666668" type="line"/>
      <point x="214.43333333333334" y="-105.06666666666668" type="line"/>
    </contour>
    <contour>
      <point x="233.96666666666667" y="-262.06666666666666" type="line"/>
      <point x="447.1333333333333" y="-262.06666666666666" type="line"/>
      <point x="447.1333333333333" y="-211.79999999999998" type="line"/>
      <point x="233.96666666666667" y="-211.79999999999998" type="line"/>
    </contour>
    <contour>
      <point x="316.96666666666664" y="-262.06666666666666" type="line"/>
      <point x="371.5" y="-262.06666666666666" type="line"/>
      <point x="371.5" y="-173.66666666666666" type="line" smooth="yes"/>
      <point x="371.5" y="-160.13333333333333"/>
      <point x="379.0333333333333" y="-149.7"/>
      <point x="392.3666666666667" y="-149.7" type="curve" smooth="yes"/>
      <point x="408.0666666666667" y="-149.7"/>
      <point x="415.23333333333335" y="-160.13333333333333"/>
      <point x="415.23333333333335" y="-173.66666666666666" type="curve" smooth="yes"/>
      <point x="415.23333333333335" y="-262.06666666666666" type="line"/>
      <point x="471.6666666666667" y="-262.06666666666666" type="line"/>
      <point x="471.6666666666667" y="-181.29999999999998" type="line" smooth="yes"/>
      <point x="471.6666666666667" y="-123.06666666666666"/>
      <point x="433.8" y="-102.43333333333334"/>
      <point x="392.3666666666667" y="-102.43333333333334" type="curve" smooth="yes"/>
      <point x="352.2" y="-102.43333333333334"/>
      <point x="316.96666666666664" y="-123.06666666666666"/>
      <point x="316.96666666666664" y="-181.29999999999998" type="curve" smooth="yes"/>
    </contour>
    <contour>
      <point x="345.33333333333337" y="-87.86666666666667" type="curve" smooth="yes"/>
      <point x="364.8666666666667" y="-87.86666666666667"/>
      <point x="380.5" y="-72.23333333333333"/>
      <point x="380.5" y="-54.333333333333336" type="curve" smooth="yes"/>
      <point x="380.5" y="-36.06666666666667"/>
      <point x="364.8666666666667" y="-20.166666666666668"/>
      <point x="345.33333333333337" y="-20.166666666666668" type="curve" smooth="yes"/>
      <point x="326.06666666666666" y="-20.166666666666668"/>
      <point x="310.53333333333336" y="-36.06666666666667"/>
      <point x="310.53333333333336" y="-54.333333333333336" type="curve" smooth="yes"/>
      <point x="310.53333333333336" y="-72.23333333333333"/>
      <point x="326.06666666666666" y="-87.86666666666667"/>
    </contour>
  </outline>
</glyph>
